<?xml version="1.0" encoding="UTF-8" standalone="no"?>
<svg
   width="1151.1"
   height="874.5"
   viewBox="-810 0 1151.1 874.5"
   version="1.2"
   id="svg614"
   sodipodi:docname="forward.svg"
   inkscape:version="1.2.2 (b0a84865, 2022-12-01)"
   xmlns:inkscape="http://www.inkscape.org/namespaces/inkscape"
   xmlns:sodipodi="http://sodipodi.sourceforge.net/DTD/sodipodi-0.dtd"
   xmlns="http://www.w3.org/2000/svg"
   xmlns:svg="http://www.w3.org/2000/svg"
   xmlns:rdf="http://www.w3.org/1999/02/22-rdf-syntax-ns#"
   xmlns:cc="http://creativecommons.org/ns#"
   xmlns:dc="http://purl.org/dc/elements/1.1/"><defs
   id="defs618" />
<sodipodi:namedview
   id="namedview616"
   pagecolor="#ffffff"
   bordercolor="#000000"
   borderopacity="0.25"
   inkscape:showpageshadow="2"
   inkscape:pageopacity="0.0"
   inkscape:pagecheckerboard="0"
   inkscape:deskcolor="#d1d1d1"
   showgrid="false"
   inkscape:zoom="0.53638814"
   inkscape:cx="604.97236"
   inkscape:cy="433.45477"
   inkscape:window-width="1372"
   inkscape:window-height="861"
   inkscape:window-x="55"
   inkscape:window-y="37"
   inkscape:window-maximized="0"
   inkscape:current-layer="svg614" />
<title
   id="title2">illustrations</title>
\n<path
   fill="none"
   stroke="#ffc38c"
   stroke-width="30"
   stroke-linecap="butt"
   stroke-linejoin="bevel"
   opacity="0.500008"
   d="m -633.093,302.68 0.204,21.02 0.387,1.07 -0.112,3.28 0.546,2.85 0.356,18.52 0.331,-1.72 0.077,-20.09 0.374,-0.61 0.344,-7.94 0.549,-1.74 -0.095,-12.71 1.678,-0.99 3.4,-0.15 4.009,-1.24 2.479,-0.05 0.909,-0.36 8.401,0.09 2.278,-0.18 1.796,-0.67 1.066,0.05 2.225,-0.53 8.284,0.06 1.43,-0.56 16.835,-0.15 1.731,-0.72 3.019,0.2 3.91,-0.82 5.97,0.08 1.626,-0.36 3.618,0.09 8.219,-0.61 5.38,-1.38 2.305,0.15 2.135,-0.5 18.03,-0.07 5.75,-1.11 4.934,-0.5 9.633,-0.08 4.021,-0.48 2.557,0.07 1.324,-0.55 25.283,-0.45 13.383,-1.87 18.738,0.04 4.632,-0.77 4.371,-0.11 8.192,-2.49 10.351,0.13 5.462,-1.08 8.295,-0.19 1.892,-0.66 1.118,0.1 1.463,-0.86 1.937,0.01 0.542,-0.33 13.8579,0.06 1.166,3.13 -0.1184,37.83 0.8268,2.82 -0.1341,1.29 0.5193,1.73 -0.0508,2.17 0.2524,0.08 -0.6269,1.37 -1.6711,0.68 -9.0865,-0.13 -1.2035,-0.53 -3.8621,-0.17 -1.329,-0.35 -32.853,0.06 -4.327,0.83 -2.059,0.05 -2.203,0.66 -8.956,0.01 -2.455,0.75 -3.316,0.48 -4.363,-0.12 -3.6,0.68 -2.032,-0.1 -2.958,0.87 -2.936,0.49 -1.837,-0.07 -7.54,1.51 -2.3,-0.12 -1.402,0.52 -3.964,-0.12 -2.189,0.72 -21.009,0.13 -4.615,0.79 -2.544,-0.06 -1.529,0.5 -19.438,-0.09 -2.045,0.54 -25.334,-0.26 -4.611,0.14 -0.908,0.39 -8.093,-0.11 -0.866,0.37 -5.79,0.05 -4.503,0.78 -4.294,0.08 -1.87,0.69 -10.318,0.14 -1.053,0.18 -1.577,0.81 -1.188,-0.14 -0.881,0.52 -8.354,0.05 -1.772,0.32 -0.873,0.5 -2.298,0.03 -3.479,1.14 -0.677,-1.55 0.08,-25.07 1.482,-0.56 4.472,-0.06 4.362,-1.11 10.383,-1.32 13.887,-0.51 2.92,-0.84 3.678,-0.52 3.223,-0.39 3.692,0.11 9.585,-1.52 19.232,0.08 11.738,-1.97 1.442,0.08 4.216,-0.71 13.987,-0.07 5.518,-0.65 8.607,-0.07 2.064,-0.52 8.974,-1.06 34.483,0.05 2.604,-0.7 1.28,0.08 1.771,-0.64 2.599,-0.2 17.377,0.05 2.186,-0.5 13.479,-0.25 19.413,0.18 -0.177,0.13 0.968,1.63 -0.259,1.31 0.411,1.52 -0.46,-0.46"
   id="path6" />
<path
   fill="none"
   stroke="#beeafe"
   stroke-width="30"
   stroke-linecap="butt"
   stroke-linejoin="bevel"
   opacity="0.500008"
   d="m -664.024,302.85 0.195,-0.38 0.613,4.2 0.044,11.14 0.182,1.13 2.128,3.94 10e-4,1.76 0.503,1.89 -0.077,1.69 0.57,0.6 0.068,27.61 -0.716,1.14 0.532,-1.22 -0.147,-4.11 -1.403,-2.89 0.099,-12.66 -0.637,-1.52 -0.265,-3.01 -0.106,-9.82 -0.546,-0.97 -0.336,-4.08 -0.345,-0.37 -0.227,-10.24 -0.904,-3.65 -0.258,-0.47 -1.506,-0.88 -0.736,-0.28 -1.762,0.11 -0.787,-0.4 -2.283,-0.04 -0.505,-0.38 -5.681,0.09 -0.898,-0.35 -3.73,-0.07 -0.751,-0.37 -5.314,-0.06 -1.256,0.35 -2.33,-0.08 -0.593,0.38 -1.699,-0.1 -2.789,0.7 -1.313,-0.11 -5.092,2.1 -1.152,0.06 -1.961,1.08 -2.055,-0.2 -1.174,0.41 -7.748,-0.08 -2.183,0.52 -5.381,0.03 -1.023,0.57 -2.264,-0.16 -2.819,0.51 -16.81,0.08 -1.976,0.6 -5.865,-0.04 -2.014,-0.49 -4.798,0.07 -0.716,0.51 -0.765,-0.05 -0.405,0.31 -10.502,-0.07 -0.641,0.38 -4.84,-0.1 -1.005,0.31 -0.816,0.66 -1.624,3.14 0.21,2.21 -0.191,3.25 -0.356,0.92 -0.096,2.31 -0.768,2.18 -0.233,22.12 0.619,5.54 -0.042,3.11 0.586,0.87 -0.179,1.3 0.203,0.82 0.649,0.79 2.276,1.03 3.719,0.01 7.24,2.24 22.009,-0.15 1.52,0.71 8.101,-0.14 3.332,-0.7 8.643,0.13 0.571,0.36 1.194,-0.05 0.836,0.49 11.679,0.05 0.885,0.37 10.495,-0.09 0.605,-0.36 2.274,-0.09 1.01,-0.51 1.813,0.15 2.064,-0.52 1.807,0.08 0.584,-0.36 0.838,0.01 1.754,-0.96 0.925,0.08 1.319,-0.58 6.139,-0.17 1.361,-0.74 1.357,0.21 1.39,-0.68 3.992,-0.34 1.153,-0.62 1.34,-2.79 -0.176,-2.08 -2.703,-8.29 -0.156,-14.39 -1.359,-4.92 -0.886,-1.35 -6.008,-2.88 -2.767,-1.65 -7.284,-2.15 -8.959,0.42 -3.186,1.12 -1.013,-0.09 -3.185,0.59 -2.579,0.93 -1.729,0.02 -2.196,0.82 -3.597,0.48 -2.178,-0.08 -2.61,0.49 -5.824,-0.06 -3.185,-0.96 -6.048,-0.02 -1.293,0.56 -4.93,1.05 -12.293,-0.06 -5.242,1.47 -6.271,2.77 -0.677,2.89 -1.51,3.88 0.017,13.07 0.743,0.2 1.648,1.29 3.419,-0.27 11.523,-2.62 8.356,-0.48 6.174,0.04 1.759,-0.72 0.847,0.06 11.014,-2.71 7.401,0.14 0.952,0.38 4.707,-0.1 3.03,-0.5 1.749,-0.63 1.327,-0.03 3.127,0.03 1.711,1 1.898,-0.17 0.958,0.36 4.47,-0.24 5.644,-2.42 -0.228,0.11 -0.146,-0.36 0.277,-0.85 0.576,-1.11 1.288,-0.96 5.391,-10.85 0.386,-2.11 1.001,-1.93 0.778,-3.01"
   id="path10" />
<path
   fill="none"
   stroke="#000000"
   stroke-width="4"
   stroke-linecap="round"
   stroke-linejoin="round"
   d="m -804.828,299.45 0.178,-0.12 0.985,4.28 -0.209,7.15 0.333,2.27 0.34,0.55 -0.089,5.07 -0.365,0.56 0.075,1.75 -0.346,0.86 0.054,7.53 0.147,8.9 0.776,5.35 -0.054,7.13 0.475,3.09 -0.041,5.98 0.831,3.32 -0.125,1.58 0.606,3.29 0.491,0.6 -0.046,-0.5"
   id="path14" />
<path
   fill="none"
   stroke="#000000"
   stroke-width="4"
   stroke-linecap="round"
   stroke-linejoin="round"
   d="m -804.515,294.64 442.9999,-21.001"
   id="path18" />
<path
   fill="none"
   stroke="#000000"
   stroke-width="4"
   stroke-linecap="round"
   stroke-linejoin="round"
   d="m -805.515,373.64 448.9999,-22"
   id="path22" />
<path
   fill="none"
   stroke="#000000"
   stroke-width="4"
   stroke-linecap="round"
   stroke-linejoin="round"
   d="m -359.748,269.721 1.3528,4.988 -0.2519,2.348 0.3478,15.833 0.9049,1.89 -0.181,7.43 0.3366,2.38 -0.0447,6.18 0.4709,2.83 -0.0481,15.09 0.8059,2.27 0.344,4.51 0.513,2.09 -0.0617,7.54 0.4043,1.34 -0.0554,4.6"
   id="path26" />
<path
   fill="none"
   stroke="#000000"
   stroke-width="4"
   stroke-linecap="round"
   stroke-linejoin="round"
   d="m -651.597,289.59 1.215,9.05 -0.036,6.97 0.329,1.91 0.526,0.86 0.729,7.43 0.37,0.77 0.671,4.09 -0.02,6.67 0.734,2.88 -0.011,6.22 0.637,2.2 0.079,2.8 0.545,0.67 0.048,2.53 0.487,1.9 -0.053,4.76 0.539,0.94 0.389,3.59 -0.061,9.07 0.201,-0.46"
   id="path30" />
<path
   fill="none"
   stroke="#000000"
   stroke-width="4"
   stroke-linecap="round"
   stroke-linejoin="round"
   d="m -762.711,240.103 1.65,-0.465 3.868,-2.248 1.242,-1.389 1.034,-2.08 0.003,-1.325 -2.907,-1.381 -2.572,2.324 -2.026,3.411 -0.831,3.986 0.496,4.162 1.231,1.842 1.704,-0.084 2.622,-1.066 2.575,-1.786 1.756,-1.827"
   id="path34" />
<path
   fill="none"
   stroke="#000000"
   stroke-width="4"
   stroke-linecap="round"
   stroke-linejoin="round"
   d="m -737.339,231.222 -3.944,3.654 -1.468,2.172 -0.631,1.603 -1.827,2.88 0.221,1.917 0.852,1.436 0.594,0.278 1.548,-0.213 1.462,-0.809 1.997,-2.116 1.301,-2.103 2.606,-5.56 -0.003,0.888 1.082,3.004 -0.091,0.899 0.77,2.767 -0.106,1.102 0.676,0.957 -0.094,0.828 0.523,0.749 1.507,0.182"
   id="path38" />
<path
   fill="none"
   stroke="#000000"
   stroke-width="4"
   stroke-linecap="round"
   stroke-linejoin="round"
   d="m -712.256,228.392 -3.504,2.486 -2.266,2.389 -3.359,4.407 -1.875,3.597 -0.34,1.021 0.209,0.979 0.566,0.874 0.612,0.319 1.286,-0.205 1.922,-0.846 2.663,-1.808 4.324,-4.33 1.007,-1.677 2.205,-10 -0.195,-5.425 -0.417,-2.797 0.155,25.152 0.932,2.905 0.296,0.374 0.206,-0.23"
   id="path42" />
<path
   fill="none"
   stroke="#000000"
   stroke-width="4"
   stroke-linecap="round"
   stroke-linejoin="round"
   d="m -699.408,235.16 3.333,-0.002 6.233,-2.25 1.344,-2.686 -0.208,-1.239 -0.664,-1.206 -2.427,-0.409 -2.222,2.088 -2.332,4.021 -0.409,2.276 0.181,2.774 0.702,1.709 -0.08,0.641 0.757,1.265 0.624,0.327 1.599,-0.156 4.857,-2.217"
   id="path46" />
<path
   fill="none"
   stroke="#000000"
   stroke-width="4"
   stroke-linecap="round"
   stroke-linejoin="round"
   d="m -680.461,232.235 1.653,6.977 1.283,2.641 -0.075,0.444 2.41,-11.374 2.203,-3.546 3.593,-1.772 2.157,0.158 0.622,0.349 2.272,-0.302"
   id="path50" />
<path
   fill="none"
   stroke="#000000"
   stroke-width="4"
   stroke-linecap="round"
   stroke-linejoin="round"
   d="m -790.795,225.804 3.297,15.644 -0.009,3.06 1.226,5.007 0.742,1.297 0.245,0.185 -0.144,-0.388 1.435,-3.494 3.72,-7.479 1.678,-1.355 1.016,-0.352 0.763,0.083 1.212,2.999 1.015,4.224 -0.182,3.517 0.349,1.518"
   id="path54" />
<path
   fill="none"
   stroke="#000000"
   stroke-width="4"
   stroke-linecap="round"
   stroke-linejoin="round"
   d="m -808,283.771 0.832,-2.92 0.832,-1.266 -0.188,-1.02 3.434,-7.027 6.009,-2.934 1.704,-0.567 1.093,0.089 1.04,-0.707 1.327,-0.178 0.336,-0.308 2.786,0.048 2.294,1.042 4.536,-0.054 4.243,2.211 0.398,-0.074 0.954,0.609 1.353,-0.076 6.068,2.825 0.809,-0.153 2.015,0.468 1.369,-0.041 1.752,0.508 2.638,-0.081 2.247,0.621 0.559,0.422 5.983,-0.06 3.178,-0.903 1.515,-0.9 0.65,0.118 2.215,-0.63 0.74,-0.496 1.72,-0.31 3.483,-1.743 1.027,-1.636 1.294,-0.398 1.347,-0.96 0.354,-0.787 1.022,-0.731 1.783,-3.637 0.681,0.059 1.324,2.559 0.96,0.737 2.411,1.162 0.992,-0.118 1.565,0.929 6.236,-0.06 1.02,0.474 7.018,0.089 1.339,-0.86 2.225,-1.044 1.379,-0.234 4.108,-2.156 0.372,0.07 2.841,-1.437 1.744,-0.3 3.099,-1.467 2.368,-0.469 0.969,-0.6 3.799,-0.537 0.947,-0.52 1.515,-0.17 0.887,-0.562 2.338,-0.439 0.87,-0.537 2.586,-0.46 12.869,0.04 4.068,1.862 1.196,1.295 2.677,5.358 0.368,3.595 0.536,1.013 -0.096,0.522 1.565,3.092 -0.139,0.711 0.375,0.916"
   id="path58" />
<path
   fill="none"
   stroke="#ffc38c"
   stroke-width="30"
   stroke-linecap="butt"
   stroke-linejoin="bevel"
   opacity="0.500008"
   d="m 60.562,273.915 0.204,21.025 0.386,1.06 -0.112,3.28 0.546,2.85 0.356,18.52 0.332,-1.72 0.077,-20.09 0.373,-0.61 0.345,-7.94 0.549,-1.73 -0.096,-12.714 1.678,-0.986 3.4,-0.153 4.009,-1.246 2.479,-0.044 0.909,-0.363 8.401,0.089 2.278,-0.182 1.797,-0.667 1.066,0.048 2.225,-0.527 8.283,0.06 1.43,-0.556 16.835,-0.15 1.731,-0.723 3.019,0.198 3.911,-0.818 5.97,0.076 1.625,-0.358 3.618,0.094 8.22,-0.607 5.379,-1.382 2.305,0.151 2.135,-0.509 18.03,-0.064 5.751,-1.114 4.934,-0.501 9.632,-0.078 4.022,-0.479 2.556,0.073 1.324,-0.551 25.284,-0.455 13.383,-1.869 18.738,0.043 4.631,-0.768 4.371,-0.109 8.192,-2.497 10.351,0.137 5.462,-1.088 8.296,-0.187 1.891,-0.66 1.119,0.106 1.462,-0.869 1.938,0.018 0.541,-0.331 13.858,0.054 1.166,3.135 -0.118,37.833 0.827,2.82 -0.134,1.29 0.519,1.73 -0.051,2.17 0.252,0.07 -0.626,1.38 -1.672,0.67 -9.086,-0.13 -1.204,-0.53 -3.862,-0.16 -1.328,-0.35 -32.854,0.06 -4.327,0.83 -2.059,0.04 -2.203,0.67 -8.955,0.01 -2.455,0.74 -3.317,0.49 -4.362,-0.13 -3.601,0.68 -2.031,-0.09 -2.958,0.87 -2.936,0.49 -1.837,-0.08 -7.541,1.52 -2.3,-0.13 -1.401,0.52 -3.964,-0.11 -2.189,0.71 -21.009,0.13 -4.616,0.79 -2.544,-0.05 -1.529,0.5 -19.438,-0.1 -2.044,0.55 -25.335,-0.27 -4.611,0.15 -0.907,0.38 -8.094,-0.1 -0.866,0.37 -5.789,0.05 -4.503,0.77 -4.295,0.09 -1.869,0.68 -10.319,0.14 -1.052,0.18 -1.577,0.82 -1.188,-0.14 -0.882,0.52 -8.354,0.04 -1.771,0.32 -0.874,0.51 -2.298,0.03 -3.478,1.13 -0.678,-1.54 0.081,-25.07 1.481,-0.56 4.472,-0.06 4.363,-1.12 10.382,-1.31 13.888,-0.52 2.92,-0.83 3.677,-0.52 3.223,-0.4 3.692,0.12 9.585,-1.52 19.233,0.08 11.737,-1.97 1.443,0.08 4.215,-0.72 13.988,-0.07 5.518,-0.64 8.607,-0.069 2.064,-0.53 8.973,-1.054 34.483,0.046 2.605,-0.694 1.279,0.08 1.772,-0.639 2.599,-0.201 17.376,0.05 2.186,-0.504 13.48,-0.251 19.413,0.186 -0.178,0.125 0.969,1.632 -0.26,1.306 0.412,1.517 -0.46,-0.45"
   id="path62" />
<path
   fill="none"
   stroke="#000000"
   stroke-width="4"
   stroke-linecap="round"
   stroke-linejoin="round"
   d="m -111.174,270.685 0.179,-0.124 0.984,4.287 -0.208,7.148 0.332,2.274 0.34,0.54 -0.088,5.08 -0.366,0.56 0.075,1.75 -0.345,0.85 0.054,7.53 0.146,8.91 0.776,5.35 -0.053,7.13 0.474,3.09 -0.041,5.98 0.832,3.32 -0.126,1.58 0.606,3.28 0.491,0.61 -0.045,-0.5"
   id="path66" />
<path
   fill="none"
   stroke="#000000"
   stroke-width="4"
   stroke-linecap="round"
   stroke-linejoin="round"
   d="m -110.861,265.875 443,-21"
   id="path70" />
<path
   fill="none"
   stroke="#000000"
   stroke-width="4"
   stroke-linecap="round"
   stroke-linejoin="round"
   d="m -111.861,344.87 449,-22"
   id="path74" />
<path
   fill="none"
   stroke="#000000"
   stroke-width="4"
   stroke-linecap="round"
   stroke-linejoin="round"
   d="m 333.906,240.957 1.353,4.988 -0.252,2.347 0.348,15.834 0.905,1.89 -0.181,7.428 0.337,2.384 -0.045,6.179 0.471,2.833 -0.048,15.09 0.806,2.26 0.344,4.52 0.513,2.08 -0.062,7.54 0.404,1.34 -0.055,4.61"
   id="path78" />
<path
   fill="none"
   stroke="#000000"
   stroke-width="4"
   stroke-linecap="round"
   stroke-linejoin="round"
   d="m -113.969,250.933 0.832,-2.92 0.833,-1.267 -0.189,-1.02 3.435,-7.026 6.009,-2.935 1.703,-0.566 1.094,0.088 1.04,-0.707 1.327,-0.178 0.335,-0.307 2.786,0.048 2.294,1.042 4.536,-0.055 4.244,2.211 0.397,-0.074 0.955,0.609 1.353,-0.075 6.067,2.825 0.81,-0.153 2.014,0.467 1.37,-0.04 1.751,0.508 2.638,-0.082 2.248,0.621 0.558,0.423 5.983,-0.061 3.178,-0.903 1.515,-0.899 0.651,0.117 2.214,-0.629 0.741,-0.496 1.719,-0.31 3.483,-1.743 1.028,-1.636 1.293,-0.399 1.347,-0.959 0.355,-0.787 1.021,-0.732 1.783,-3.637 0.682,0.059 1.323,2.56 0.961,0.736 2.41,1.162 0.992,-0.117 1.565,0.928 6.237,-0.06 1.019,0.475 7.019,0.089 1.338,-0.861 2.226,-1.043 1.379,-0.234 4.107,-2.156 0.372,0.069 2.841,-1.436 1.745,-0.3 3.099,-1.467 2.368,-0.47 0.968,-0.6 3.799,-0.536 0.948,-0.52 1.514,-0.171 0.887,-0.562 2.339,-0.439 0.869,-0.536 2.587,-0.46 12.868,0.04 4.068,1.861 1.197,1.295 2.677,5.358 0.367,3.596 0.536,1.012 -0.096,0.522 1.566,3.092 -0.139,0.711 0.374,0.916"
   id="path82" />
<path
   fill="none"
   stroke="#000000"
   stroke-width="4"
   stroke-linecap="round"
   stroke-linejoin="round"
   d="m -104.725,154.071 -0.932,-1.112 -3.992,-2.71 -2.871,-0.785 -0.905,0.051 -1.256,0.948 -2.065,2.804 -0.676,5.61 0.094,15.572 0.376,3.753 1.241,5.782 0.148,3.343"
   id="path86" />
<path
   fill="none"
   stroke="#000000"
   stroke-width="4"
   stroke-linecap="round"
   stroke-linejoin="round"
   d="m -122.622,173.615 3.872,-1.903 5.587,-1.444 3.509,-1.888 3.089,-0.908 1.396,-0.837 0.863,0.106 1.208,4.018 -0.227,3.134 0.226,1.563 0.547,1.225 1.603,2.641 2.687,0.028 3.798,-1.535 1.295,-1.903 1.19,-3.272 -1.421,-2.099 -0.595,-0.208 -1.457,-1.487 -3.173,-1.404 -0.89,0.165"
   id="path90" />
<path
   fill="none"
   stroke="#000000"
   stroke-width="4"
   stroke-linecap="round"
   stroke-linejoin="round"
   d="m -83.752,169.284 1.931,7.394 -0.035,1.936 -0.899,-1.909 -0.048,-5.423 1.701,-5.861 1.097,-1.326 2.507,-1.183 1.295,0.175 1.106,0.558"
   id="path94" />
<path
   fill="none"
   stroke="#000000"
   stroke-width="4"
   stroke-linecap="round"
   stroke-linejoin="round"
   d="m -68.327,163.492 -0.301,-0.005 2.44,10.197 1.743,3.711 0.566,0.235 0.634,-0.103 0.267,-0.364 1.579,-4.272 0.878,-1.294 -0.043,0.227 1.175,-0.326 2.192,1.214 0.938,-0.091 0.709,-0.547 3.207,-9.242"
   id="path98" />
<path
   fill="none"
   stroke="#000000"
   stroke-width="4"
   stroke-linecap="round"
   stroke-linejoin="round"
   d="m -39.068,160.954 -3.777,2.436 -0.729,0.818 -1.788,4.176 -0.367,1.527 0.185,1.843 1.55,2.36 1.335,-0.092 1.155,-0.751 3.253,-3.62 1.052,-1.672 0.668,-2.506 0.629,-0.801 -0.183,0.422 0.944,2.622 -0.052,0.666 1.049,1.948 0.036,0.85 0.502,0.573"
   id="path102" />
<path
   fill="none"
   stroke="#000000"
   stroke-width="4"
   stroke-linecap="round"
   stroke-linejoin="round"
   d="m -24.466,169.938 -0.904,-3.248 0.246,-1.889 0.837,-1.37 4.594,-2.205 1.698,-0.142"
   id="path106" />
<path
   fill="none"
   stroke="#000000"
   stroke-width="4"
   stroke-linecap="round"
   stroke-linejoin="round"
   d="m 1.807,157.15 -1.894,1.275 -2.632,1.22 -3.559,3.712 -2.925,5.025 0.147,2.139 1.283,0.363 1.618,-0.085 3.456,-2.271 2.183,-2.267 0.959,-1.651 1.49,-5.361 -0.149,-8.172 2.02,-7.733 -0.179,-1.03 0.023,2.003 -0.875,4.559 0.084,1.998 -0.441,2.937 0.086,11.243 0.583,1.992 -0.034,0.911 0.914,1.626 -0.084,0.579 0.623,1.358"
   id="path110" />
<path
   fill="none"
   stroke="#000000"
   stroke-width="4"
   stroke-linecap="round"
   stroke-linejoin="round"
   d="m 15.586,164.031 -0.419,1.3 0.08,5.705"
   id="path114" />
<path
   fill="none"
   stroke="#000000"
   stroke-width="4"
   stroke-linecap="round"
   stroke-linejoin="round"
   d="m 16.186,155.586 -0.111,0.027"
   id="path118" />
<path
   fill="none"
   stroke="#000000"
   stroke-width="4"
   stroke-linecap="round"
   stroke-linejoin="round"
   d="m 25.65,163.219 0.429,6.085 0.483,1.389 -0.005,1.55 0.567,0.742 1.576,-3.95 0.598,-3.298 1.634,-2.971 0.315,-1.636 1.729,-2.225 1.439,-0.191 1.427,4.261 -0.105,5.267"
   id="path122" />
<path
   fill="none"
   stroke="#000000"
   stroke-width="4"
   stroke-linecap="round"
   stroke-linejoin="round"
   d="m 48.335,157.712 -3.331,2.328 -1.534,2.873 -0.241,0.681 0.204,0.984 0.724,1.154 0.578,0.301 2.318,-0.221 2.487,-0.811 2.41,-1.258 1.176,-1.117 1.844,-0.587 0.289,2.525 -0.913,6.282 -4.163,12.306 -2.516,3.366 -3.605,2.883 -6.794,2.296 -2.485,-0.589 -0.345,-0.606 0.475,-0.861"
   id="path126" />
<path
   fill="none"
   stroke="#000000"
   stroke-width="4"
   stroke-linecap="round"
   stroke-linejoin="round"
   d="m -95.866,204.191 -0.202,-0.015 0.055,5.302 -0.37,2.473 0.063,10.299 0.22,-0.582"
   id="path130" />
<path
   fill="none"
   stroke="#000000"
   stroke-width="4"
   stroke-linecap="round"
   stroke-linejoin="round"
   d="m -95.651,201.508 3.863,-0.741 4.087,0.217 1.993,0.985 0.779,1.963 -0.443,1.51 -2.481,4.105 -5.79,5.142 -1.028,0.286 1.353,-2.316 1.21,-0.999"
   id="path134" />
<path
   fill="none"
   stroke="#000000"
   stroke-width="4"
   stroke-linecap="round"
   stroke-linejoin="round"
   d="m -69.896,201.072 -1.369,1.838 -2.283,4.499 -0.413,1.133 0.159,1.367 1.001,1.746 0.522,0.186 1.369,-0.105 3.01,-1.728 1.12,-2.607 -0.09,-1.433 -1.143,-1.8 -0.805,-0.24"
   id="path138" />
<path
   fill="none"
   stroke="#000000"
   stroke-width="4"
   stroke-linecap="round"
   stroke-linejoin="round"
   d="m -55.583,201.227 -0.024,7.925 0.395,0.788 0.332,-0.616"
   id="path142" />
<path
   fill="none"
   stroke="#000000"
   stroke-width="4"
   stroke-linecap="round"
   stroke-linejoin="round"
   d="m -51.922,194.032 -0.074,0.011"
   id="path146" />
<path
   fill="none"
   stroke="#000000"
   stroke-width="4"
   stroke-linecap="round"
   stroke-linejoin="round"
   d="m -46.952,200.81 1.798,8.55 -0.202,2.272 0.537,2.349 2.172,-2.491 3.849,-8.263 2.054,-2.855 1.12,-1.089 0.997,-0.402 0.827,-0.042 0.334,0.337 0.9,2.86 1.893,6.985 -0.028,2.868"
   id="path150" />
<path
   fill="none"
   stroke="#000000"
   stroke-width="4"
   stroke-linecap="round"
   stroke-linejoin="round"
   d="m -21.188,185.691 -0.071,24.744 0.385,0.844 -0.121,1.542"
   id="path154" />
<path
   fill="none"
   stroke="#000000"
   stroke-width="4"
   stroke-linecap="round"
   stroke-linejoin="round"
   d="m -26.258,201.646 1.93,-0.772 14.314,-3.166 3.298,-0.124 2.55,-0.897 0.437,-0.325 0.719,-1.587 0.417,-1.29 -0.119,-0.636 -1.008,-1.185 -2.254,-0.867 -0.855,0.486 -2.821,3.926 -0.217,1.249 0.268,3.918 0.832,2.806 1.314,2.261 1.16,1.174 2.259,0.9 4.805,-0.1"
   id="path158" />
<path
   fill="none"
   stroke="#000000"
   stroke-width="4"
   stroke-linecap="round"
   stroke-linejoin="round"
   d="m 7.984,193.338 0.192,3.085 0.814,4.402 0.458,7.526 0.19,-1.935 1.431,-5.957 1.143,-4.245 0.462,-0.79 1.448,-1.364 2.005,-0.813 0.849,0.081 3.777,1.973"
   id="path162" />
<path
   fill="none"
   stroke="#c7c7c6"
   stroke-width="30"
   stroke-linecap="butt"
   stroke-linejoin="bevel"
   opacity="0.500008"
   d="m -11.689,277.555 -3.206,1.739 -2.005,0.51 -1.838,-0.021 -1.533,-0.529 -8.214,-0.029 -2.742,1.127 -5.042,0.002 -0.527,0.365 -5.655,-0.081 -0.851,-0.338 -5.698,-0.217 -0.824,-0.338 -15.824,-0.232 -1.333,0.439 -3.402,-0.014 -1.237,0.459 -4.834,-0.039 -0.803,0.541 -1.985,0.184 -9.405,-0.017 -0.885,0.495 -3.92,-0.073 -2.783,-1.151 0.243,0.03 -1.234,2.329 0.332,22.784 0.787,2.66 0.218,5.72 0.835,2.06 0.19,9.27 0.479,1.26 1.836,0.87 1.902,0.4 50.54,-0.33 2.371,-0.89 5.636,0.05 1.357,-0.86 0.924,-0.08 1.194,-0.6 7.425,0.13 4.342,-0.74 15.5,0.17 1.553,0.31 24.538,-0.02 0.4,-0.37 2.438,-0.19 3.961,-0.91 3.369,-0.22 0.841,-1.97 -0.055,-7.3 -0.273,-2.44 -0.384,-0.47 0.076,-3.21 -0.774,-3.89 0.05,-2.86 -0.629,-1.88 0.052,-9.95 -0.377,-0.76 0.086,-4.867 -0.456,-2.854 0.024,-2.232 -0.675,-1.535 0.119,-0.968 -1.4,-2.142 -3.361,-1.431 -2.942,0.064 -2.671,1.064 -2.672,-0.079 -2.116,0.739 -2.502,-0.025 -1.237,0.447 -10.93,-0.177 -3.079,0.788 -0.908,0.602 -0.708,-0.117 -0.762,0.505 -4.719,0.072 -2.476,1.135 -2.007,0.039 -4.515,1.459 -15.206,0.31 -1.305,0.541 -1.409,-0.131 -1.087,0.552 -2.97,0.306 -0.316,0.344 -1.391,-0.08 -0.755,0.559 -0.621,-0.025 -2.312,1.007 -8.412,2.42 -2.43,1.71 -2.775,0.79 -2.56,2.49 -3.383,1.67 -1.892,1.4 -0.107,0.56 -0.843,0.45 -2.362,3.73 -1.225,2.8 0.068,2.12 0.828,1.3 1.028,0.75 5.968,2.35 -0.063,0.45 2.672,0.63 4.328,-0.15 9.25,-1.93 3.445,0.18 4.498,-0.34 4.309,-0.61 5.307,-1.3 8.241,-0.5 4.779,-1.4 3.476,-0.46 3.916,0.08 0.878,-0.37 4.429,-0.07 0.952,-0.56 1.066,-0.04 2.004,-0.72 9.222,-0.09 1.311,-0.65 2.836,-0.06 2.381,1.19 0.218,-1.02"
   id="path166" />
<path
   fill="none"
   stroke="#000000"
   stroke-width="4"
   stroke-linecap="round"
   stroke-linejoin="round"
   d="m 48.62,259.456 -0.035,11.604 0.826,2.16 0.047,2.292 0.501,1.632 0.079,8.836 0.699,1.02 0.404,1.39 0.775,32.53 0.434,0.39 1.096,2.54 0.05,7.15 0.344,0.75 0.143,2.42 0.339,0.35 0.108,-0.49"
   id="path170" />
<path
   fill="none"
   stroke="#000000"
   stroke-width="4"
   stroke-linecap="round"
   stroke-linejoin="round"
   d="m -642.638,381.01 0.952,3.83 2.716,5.65 -0.086,0.87 0.644,1.1 1.052,3.68 -0.134,1.23 0.298,1.12 2.127,8.02 1.737,5.23 1.067,2.08 0.952,2.97 0.815,1.27 4.8,12.72 1.58,2.75 1.117,3.19 1.102,2 0.953,1.08 0.852,1.74 1.838,2.1 10.83,8.77 3.908,3.78 1.179,0.78 2.142,2.88 2.516,2.41 0.019,0.38 0.547,0.06"
   id="path174" />
<path
   fill="none"
   stroke="#000000"
   stroke-width="4"
   stroke-linecap="round"
   stroke-linejoin="round"
   d="m -648.543,397.25 0.273,-0.03 1.208,-2.59 1.688,-10.24 0.599,-2.57 1.416,-3.57 -0.217,0.33 2.082,0.79 1.255,1.26 6.091,3.55 2.575,2.29 1.961,2.56 1.658,1.56"
   id="path178" />
<path
   fill="none"
   stroke="#000000"
   stroke-width="4"
   stroke-linecap="round"
   stroke-linejoin="round"
   d="m 55.034,351.93 0.836,2.94 1.108,1.98 0.14,4.04 0.915,1.99 -0.168,1.09 0.713,1.16 -0.126,1.1 0.328,1.16 1.107,2.53 -0.111,1.17 1.008,1.99 -0.022,2.42 1.734,3.4 2.4,6.77 2.23,4.23 2.336,2.54 0.831,1.68 0.65,0.56 3.17,4.93 3.413,2.4 1.48,2.21 3.146,3.41 1.65,0.69 1.89,2.05 1.186,0.39 1.094,1.03 2.226,0.64 2.445,1.46 3.287,1.39"
   id="path182" />
<path
   fill="none"
   stroke="#000000"
   stroke-width="4"
   stroke-linecap="round"
   stroke-linejoin="round"
   d="m 49.686,365.52 0.558,-0.17 -0.281,0.1 0.154,-0.32 2.791,-3.55 1.697,-3.74 0.898,-3.97 1.656,-3.29 1.918,0.94 1.018,0.95 5.282,3.35 0.911,0.14"
   id="path186" />
<path
   fill="none"
   stroke="#000000"
   stroke-width="4"
   stroke-linecap="round"
   stroke-linejoin="round"
   d="m 111.767,416.82 -0.269,-0.02 -0.589,2.11 -1.381,2.76 -0.752,3.31 0.11,2.33 1.187,1.68 3.534,0.04 3.071,-1.28 1.438,-1.01 1.464,-1.52 1.736,-3.34 -0.15,-1.15 -1.425,-2.49 -3.337,-2.01"
   id="path190" />
<path
   fill="none"
   stroke="#000000"
   stroke-width="4"
   stroke-linecap="round"
   stroke-linejoin="round"
   d="m 129.649,402.01 2.252,16.14 -0.128,2.36 0.3,3.58 0.344,0.98 0.054,3.97"
   id="path194" />
<path
   fill="none"
   stroke="#000000"
   stroke-width="4"
   stroke-linecap="round"
   stroke-linejoin="round"
   d="m 131.833,420.04 3.261,-1.98 5.74,-0.73 3.084,1.35 0.968,2.09 -0.857,2.08 -2.325,2.85 -2.682,2.27 -1.208,0.83 -2.855,1.17 -1.424,1.1 -0.943,-0.24 0.643,-1.56 0.684,-0.56"
   id="path198" />
<path
   fill="none"
   stroke="#000000"
   stroke-width="4"
   stroke-linecap="round"
   stroke-linejoin="round"
   d="m 151.046,410.68 -0.039,0.06"
   id="path202" />
<path
   fill="none"
   stroke="#000000"
   stroke-width="4"
   stroke-linecap="round"
   stroke-linejoin="round"
   d="m 151.868,425.39 2.718,6.59 0.576,3.96 0.793,2.66 -0.117,1.66 -0.962,1.97 -1.854,2.58 -2.377,1.81 -1.341,0.32 -2.187,-0.21 -1.074,-0.51 -2.219,-1.97 -0.23,-0.58 0.268,-1.65 0.509,-0.83"
   id="path206" />
<path
   fill="none"
   stroke="#000000"
   stroke-width="4"
   stroke-linecap="round"
   stroke-linejoin="round"
   d="m 161.044,418.61 1.121,0.39 4.448,-0.1 1.11,-0.71 2.558,-0.84 0.593,-0.41 -0.159,-0.35 0.711,-1.36 -0.023,-0.46 -0.841,-0.81 -3.004,-1.37 -2.405,0.73 -2.203,2.74 -0.325,1.34 0.205,3.05 0.999,3.25 0.984,1.29 1.178,0.9 3.043,1.61 2.997,-0.14 0.586,-0.35"
   id="path210" />
<path
   fill="none"
   stroke="#000000"
   stroke-width="4"
   stroke-linecap="round"
   stroke-linejoin="round"
   d="m 188.445,411.91 -3.515,2.31 -1.724,1.84 -1.613,3.15 -0.271,0.88 0.165,1.22 0.789,1.53 2.877,1.64 1.857,-0.26 4.578,-1.42"
   id="path214" />
<path
   fill="none"
   stroke="#000000"
   stroke-width="4"
   stroke-linecap="round"
   stroke-linejoin="round"
   d="m 204.987,396.23 -1.361,4.71 -0.9,12.38 0.04,8.25 1.746,3.34"
   id="path218" />
<path
   fill="none"
   stroke="#000000"
   stroke-width="4"
   stroke-linecap="round"
   stroke-linejoin="round"
   d="m 202.246,408.78 3.88,-0.5 3.234,-1.34"
   id="path222" />
<path
   fill="none"
   stroke="#000000"
   stroke-width="4"
   stroke-linecap="round"
   stroke-linejoin="round"
   d="m 199.153,410.06 6.245,-1.43"
   id="path226" />
<path
   fill="none"
   stroke="#000000"
   stroke-width="4"
   stroke-linecap="round"
   stroke-linejoin="round"
   d="m 238.059,393.44 0.875,2.66 0.758,1.28 8.25,11.72 3.422,5.83 2.83,5.82 2.16,2.66 0.862,1.8"
   id="path230" />
<path
   fill="none"
   stroke="#000000"
   stroke-width="4"
   stroke-linecap="round"
   stroke-linejoin="round"
   d="m 235.579,424.14 6.374,-7.04 7.612,-10.66 5.949,-7.19 5.111,-8.85 1.174,-1.38"
   id="path234" />
<path
   fill="none"
   stroke="#ffc38c"
   stroke-width="30"
   stroke-linecap="butt"
   stroke-linejoin="bevel"
   opacity="0.500008"
   d="m 60.862,629.63 0.204,21.03 0.387,1.06 -0.112,3.28 0.546,2.85 0.356,18.52 0.331,-1.72 0.077,-20.09 0.374,-0.61 0.344,-7.94 0.549,-1.74 -0.095,-12.71 1.678,-0.98 3.4,-0.16 4.009,-1.24 2.479,-0.05 0.909,-0.36 8.401,0.09 2.278,-0.18 1.796,-0.67 1.066,0.05 2.225,-0.53 8.283,0.06 1.431,-0.55 16.835,-0.16 1.731,-0.72 3.019,0.2 3.91,-0.82 5.97,0.08 1.626,-0.36 3.618,0.09 8.219,-0.6 5.38,-1.39 2.304,0.16 2.136,-0.51 18.03,-0.07 5.75,-1.11 4.934,-0.5 9.633,-0.08 4.021,-0.48 2.557,0.07 1.324,-0.55 25.283,-0.45 13.383,-1.87 18.738,0.04 4.632,-0.77 4.37,-0.11 8.193,-2.49 10.351,0.13 5.462,-1.08 8.295,-0.19 1.892,-0.66 1.118,0.11 1.462,-0.87 1.938,0.01 0.542,-0.33 13.858,0.06 1.166,3.13 -0.119,37.83 0.827,2.82 -0.134,1.29 0.519,1.73 -0.05,2.18 0.252,0.07 -0.627,1.37 -1.671,0.68 -9.086,-0.13 -1.204,-0.53 -3.862,-0.17 -1.329,-0.34 -32.853,0.06 -4.328,0.82 -2.058,0.05 -2.203,0.66 -8.956,0.01 -2.455,0.75 -3.316,0.48 -4.363,-0.12 -3.6,0.68 -2.032,-0.09 -2.958,0.86 -2.936,0.49 -1.837,-0.07 -7.54,1.51 -2.3,-0.12 -1.402,0.52 -3.964,-0.12 -2.189,0.72 -21.009,0.13 -4.615,0.79 -2.544,-0.06 -1.53,0.5 -19.437,-0.09 -2.045,0.55 -25.334,-0.27 -4.611,0.15 -0.908,0.38 -8.093,-0.11 -0.866,0.37 -5.79,0.06 -4.503,0.77 -4.294,0.08 -1.87,0.69 -10.319,0.14 -1.052,0.18 -1.577,0.81 -1.188,-0.14 -0.881,0.53 -8.355,0.04 -1.771,0.32 -0.873,0.5 -2.298,0.03 -3.479,1.14 -0.677,-1.54 0.08,-25.07 1.482,-0.56 4.472,-0.07 4.362,-1.11 10.383,-1.31 13.887,-0.52 2.92,-0.83 3.678,-0.52 3.223,-0.4 3.692,0.12 9.585,-1.53 19.232,0.09 11.738,-1.98 1.442,0.08 4.216,-0.71 13.987,-0.07 5.518,-0.64 8.607,-0.07 2.064,-0.53 8.973,-1.06 34.484,0.05 2.604,-0.69 1.28,0.07 1.771,-0.63 2.599,-0.21 17.376,0.06 2.187,-0.51 13.479,-0.25 19.413,0.19 -0.178,0.12 0.969,1.63 -0.259,1.31 0.411,1.52 -0.46,-0.46"
   id="path238" />
<path
   fill="none"
   stroke="#beeafe"
   stroke-width="30"
   stroke-linecap="butt"
   stroke-linejoin="bevel"
   opacity="0.500008"
   d="m 29.93,629.81 0.196,-0.38 0.613,4.19 0.044,11.14 0.182,1.13 2.128,3.94 10e-4,1.76 0.503,1.89 -0.078,1.7 0.571,0.6 0.068,27.6 -0.716,1.14 0.532,-1.22 -0.147,-4.11 -1.403,-2.89 0.099,-12.66 -0.637,-1.52 -0.265,-3.01 -0.106,-9.82 -0.546,-0.97 -0.336,-4.08 -0.345,-0.37 -0.227,-10.24 -0.904,-3.64 -0.258,-0.48 -1.506,-0.88 -0.736,-0.28 -1.762,0.11 -0.787,-0.4 -2.283,-0.04 -0.505,-0.38 -5.681,0.09 -0.898,-0.35 -3.73,-0.07 -0.751,-0.37 -5.314,-0.06 -1.256,0.35 -2.33,-0.08 -0.593,0.38 -1.699,-0.09 -2.789,0.69 -1.314,-0.11 -5.091,2.1 -1.153,0.06 -1.96,1.08 -2.055,-0.2 -1.174,0.41 -7.748,-0.08 -2.183,0.52 -5.382,0.04 -1.022,0.56 -2.264,-0.16 -2.819,0.51 -16.81,0.08 -1.976,0.61 -5.865,-0.05 -2.014,-0.49 -4.798,0.07 -0.716,0.51 -0.765,-0.05 -0.405,0.31 -10.503,-0.06 -0.64,0.37 -4.84,-0.09 -1.005,0.3 -0.816,0.66 -1.624,3.15 0.21,2.21 -0.191,3.24 -0.356,0.92 -0.096,2.31 -0.768,2.18 -0.233,22.12 0.619,5.55 -0.042,3.1 0.586,0.87 -0.179,1.3 0.203,0.82 0.649,0.79 2.276,1.03 3.719,0.01 7.24,2.24 22.009,-0.14 1.52,0.7 8.101,-0.14 3.332,-0.7 8.643,0.14 0.571,0.35 1.194,-0.04 0.835,0.49 11.68,0.05 0.885,0.36 10.495,-0.09 0.605,-0.36 2.274,-0.09 1.01,-0.5 1.813,0.14 2.064,-0.52 1.807,0.09 0.584,-0.37 0.838,0.01 1.754,-0.96 0.924,0.08 1.32,-0.58 6.139,-0.17 1.361,-0.74 1.357,0.21 1.39,-0.68 3.992,-0.34 1.153,-0.62 1.34,-2.79 -0.176,-2.08 -2.703,-8.29 -0.156,-14.39 -1.359,-4.91 -0.886,-1.36 -6.008,-2.87 -2.767,-1.66 -7.284,-2.14 -8.959,0.41 -3.186,1.12 -1.013,-0.09 -3.185,0.59 -2.579,0.94 -1.73,0.01 -2.196,0.82 -3.596,0.48 -2.178,-0.08 -2.61,0.49 -5.825,-0.05 -3.184,-0.97 -6.048,-0.02 -1.293,0.56 -4.93,1.05 -12.293,-0.06 -5.243,1.48 -6.27,2.76 -0.677,2.89 -1.51,3.88 0.017,13.07 0.743,0.2 1.647,1.29 3.42,-0.27 11.523,-2.62 8.356,-0.48 6.174,0.05 1.759,-0.73 0.847,0.06 11.014,-2.71 7.401,0.14 0.952,0.38 4.707,-0.1 3.03,-0.5 1.749,-0.62 1.327,-0.04 3.127,0.04 1.711,0.99 1.898,-0.17 0.958,0.36 4.47,-0.24 5.644,-2.42 -0.228,0.11 -0.146,-0.36 0.277,-0.85 0.576,-1.11 1.288,-0.96 5.391,-10.85 0.386,-2.1 1.001,-1.94 0.778,-3.01"
   id="path242" />
<path
   fill="none"
   stroke="#000000"
   stroke-width="4"
   stroke-linecap="round"
   stroke-linejoin="round"
   d="m -110.873,626.4 0.178,-0.12 0.985,4.28 -0.209,7.15 0.332,2.27 0.341,0.55 -0.089,5.07 -0.365,0.56 0.074,1.76 -0.345,0.85 0.054,7.53 0.147,8.91 0.776,5.34 -0.054,7.13 0.475,3.1 -0.041,5.97 0.831,3.32 -0.125,1.58 0.606,3.29 0.491,0.6 -0.046,-0.5"
   id="path246" />
<path
   fill="none"
   stroke="#000000"
   stroke-width="4"
   stroke-linecap="round"
   stroke-linejoin="round"
   d="m -110.56,621.59 443,-21"
   id="path250" />
<path
   fill="none"
   stroke="#000000"
   stroke-width="4"
   stroke-linecap="round"
   stroke-linejoin="round"
   d="m -111.56,700.59 449,-22"
   id="path254" />
<path
   fill="none"
   stroke="#000000"
   stroke-width="4"
   stroke-linecap="round"
   stroke-linejoin="round"
   d="m 334.207,596.67 1.353,4.99 -0.252,2.35 0.348,15.83 0.904,1.89 -0.181,7.43 0.337,2.38 -0.045,6.18 0.471,2.84 -0.048,15.08 0.806,2.27 0.344,4.51 0.513,2.09 -0.062,7.54 0.405,1.34 -0.056,4.6"
   id="path258" />
<path
   fill="none"
   stroke="#000000"
   stroke-width="4"
   stroke-linecap="round"
   stroke-linejoin="round"
   d="m 42.358,616.54 1.215,9.05 -0.036,6.97 0.329,1.92 0.526,0.85 0.729,7.44 0.37,0.76 0.671,4.09 -0.02,6.67 0.733,2.88 -0.01,6.22 0.637,2.21 0.079,2.79 0.545,0.68 0.048,2.52 0.487,1.9 -0.053,4.76 0.539,0.94 0.389,3.59 -0.061,9.07 0.2,-0.46"
   id="path262" />
<path
   fill="none"
   stroke="#000000"
   stroke-width="4"
   stroke-linecap="round"
   stroke-linejoin="round"
   d="m -67.887,564.52 1.65,-0.47 3.869,-2.24 1.241,-1.39 1.034,-2.08 0.004,-1.33 -2.908,-1.38 -2.571,2.33 -2.026,3.41 -0.832,3.98 0.496,4.16 1.232,1.85 1.703,-0.09 2.622,-1.06 2.575,-1.79 1.756,-1.83"
   id="path266" />
<path
   fill="none"
   stroke="#000000"
   stroke-width="4"
   stroke-linecap="round"
   stroke-linejoin="round"
   d="m -42.515,555.64 -3.943,3.65 -1.469,2.18 -0.631,1.6 -1.827,2.88 0.221,1.92 0.852,1.43 0.595,0.28 1.547,-0.21 1.462,-0.81 1.997,-2.12 1.302,-2.1 2.606,-5.56 -0.004,0.89 1.083,3 -0.092,0.9 0.771,2.77 -0.107,1.1 0.676,0.96 -0.093,0.82 0.522,0.75 1.508,0.18"
   id="path270" />
<path
   fill="none"
   stroke="#000000"
   stroke-width="4"
   stroke-linecap="round"
   stroke-linejoin="round"
   d="m -17.432,552.81 -3.504,2.48 -2.265,2.39 -3.359,4.41 -1.875,3.6 -0.341,1.02 0.21,0.98 0.566,0.87 0.611,0.32 1.286,-0.2 1.923,-0.85 2.662,-1.81 4.325,-4.33 1.006,-1.68 2.205,-9.99 -0.195,-5.43 -0.416,-2.8 0.155,25.15 0.931,2.91 0.297,0.37 0.206,-0.23"
   id="path274" />
<path
   fill="none"
   stroke="#000000"
   stroke-width="4"
   stroke-linecap="round"
   stroke-linejoin="round"
   d="m -4.584,559.58 3.333,-0.01 6.233,-2.25 1.345,-2.68 -0.209,-1.24 -0.664,-1.21 -2.426,-0.4 -2.223,2.08 -2.331,4.02 -0.409,2.28 0.18,2.77 0.703,1.71 -0.081,0.64 0.758,1.27 0.623,0.33 1.599,-0.16 4.858,-2.22"
   id="path278" />
<path
   fill="none"
   stroke="#000000"
   stroke-width="4"
   stroke-linecap="round"
   stroke-linejoin="round"
   d="m 14.363,556.65 1.654,6.98 1.282,2.64 -0.075,0.44 2.41,-11.37 2.203,-3.55 3.594,-1.77 2.157,0.16 0.621,0.35 2.272,-0.3"
   id="path282" />
<path
   fill="none"
   stroke="#000000"
   stroke-width="4"
   stroke-linecap="round"
   stroke-linejoin="round"
   d="m -95.971,550.22 3.297,15.64 -0.008,3.07 1.225,5 0.742,1.3 0.246,0.18 -0.145,-0.38 1.436,-3.5 3.72,-7.48 1.677,-1.35 1.017,-0.35 0.763,0.08 1.212,3 1.014,4.22 -0.181,3.52 0.349,1.52"
   id="path286" />
<path
   fill="none"
   stroke="#000000"
   stroke-width="4"
   stroke-linecap="round"
   stroke-linejoin="round"
   d="m -113.176,608.19 0.832,-2.92 0.833,-1.27 -0.189,-1.02 3.435,-7.02 6.009,-2.94 1.703,-0.57 1.094,0.09 1.04,-0.7 1.327,-0.18 0.335,-0.31 2.786,0.05 2.294,1.04 4.536,-0.05 4.244,2.21 0.397,-0.08 0.955,0.61 1.353,-0.07 6.067,2.82 0.81,-0.15 2.014,0.47 1.37,-0.04 1.751,0.5 2.638,-0.08 2.248,0.62 0.558,0.43 5.983,-0.07 3.178,-0.9 1.515,-0.9 0.651,0.12 2.214,-0.63 0.741,-0.5 1.719,-0.31 3.483,-1.74 1.028,-1.63 1.293,-0.4 1.347,-0.96 0.355,-0.79 1.021,-0.73 1.783,-3.64 0.682,0.06 1.323,2.56 0.961,0.74 2.41,1.16 0.992,-0.12 1.565,0.93 6.237,-0.06 1.019,0.47 7.019,0.09 1.338,-0.86 2.226,-1.04 1.379,-0.23 4.107,-2.16 0.372,0.07 2.841,-1.44 1.745,-0.3 3.099,-1.46 2.368,-0.47 0.969,-0.6 3.799,-0.54 0.947,-0.52 1.514,-0.17 0.887,-0.56 2.339,-0.44 0.869,-0.54 2.587,-0.46 12.868,0.04 4.068,1.86 1.197,1.3 2.677,5.36 0.367,3.59 0.536,1.01 -0.096,0.53 1.566,3.09 -0.139,0.71 0.374,0.91"
   id="path290" />
<path
   fill="none"
   stroke="#000000"
   stroke-width="4"
   stroke-linecap="round"
   stroke-linejoin="round"
   d="m 111.041,448.91 -0.9,1.2 -3.666,7.25 -3.957,13.2 0.305,5.8 0.397,0.42 2.303,6.77 1.015,1.28 1.897,5.4 1.7,2.7"
   id="path294" />
<path
   fill="none"
   stroke="#000000"
   stroke-width="4"
   stroke-linecap="round"
   stroke-linejoin="round"
   d="m 131.939,458.19 -3.086,-3.49 -4.118,-1.94 -1.251,0.68 -0.864,1.6 -0.652,4.84 0.095,12.97 1.194,7.24 0.008,2.33 1.263,3 -0.185,0.87"
   id="path298" />
<path
   fill="none"
   stroke="#000000"
   stroke-width="4"
   stroke-linecap="round"
   stroke-linejoin="round"
   d="m 117.493,472.84 2.593,-0.56 3.992,-2.15 2.497,-0.47 1.277,-0.76"
   id="path302" />
<path
   fill="none"
   stroke="#000000"
   stroke-width="4"
   stroke-linecap="round"
   stroke-linejoin="round"
   d="m 136.459,469.61 0.386,-0.01 -1.894,3.12 -1.219,3.91 0.291,2.46 1.535,2.59 0.702,0.22 1.204,-0.24 3.201,-1.23 1.83,-1.26 2.412,-3.81 1.018,-3.35 -0.236,-0.85 -0.661,-0.74 -3.351,-1.37 -1.485,0.15 -2.612,1.23"
   id="path306" />
<path
   fill="none"
   stroke="#000000"
   stroke-width="4"
   stroke-linecap="round"
   stroke-linejoin="round"
   d="m 154.478,472.25 0.612,3.19 0.907,2.49 -0.074,1.59 0.03,-6.71 2.178,-6.52 0.295,-0.39 2.171,-0.92 2.185,-0.34"
   id="path310" />
<path
   fill="none"
   stroke="#000000"
   stroke-width="4"
   stroke-linecap="round"
   stroke-linejoin="round"
   d="m 171.016,469.86 0.728,4.17 0.851,1.69 1.763,6.74 1.706,2.69 0.613,0.35 0.648,-0.14 1.033,-1.28 2.373,-8.58 0.995,-1.97 0.857,0.42 2.333,3.17 1.106,-0.11 0.388,0.5 0.657,0.06 0.849,-1.19 3.539,-12.77 -0.2,-0.92"
   id="path314" />
<path
   fill="none"
   stroke="#000000"
   stroke-width="4"
   stroke-linecap="round"
   stroke-linejoin="round"
   d="m 201.609,461.04 -2.472,2.51 -1.346,1.85 -2.229,4.88 -0.47,2.28 0.196,2.82 1.392,2.5 0.595,0.32 0.713,-0.12 1.469,-0.96 3.32,-4.03 2.432,-7.8 -0.16,-1.1 0.036,5.72 0.509,3.87 0.645,1.55 0.596,0.98 1.628,1.08 2.436,-0.97"
   id="path318" />
<path
   fill="none"
   stroke="#000000"
   stroke-width="4"
   stroke-linecap="round"
   stroke-linejoin="round"
   d="m 218.811,470.05 0.053,3.93 -1.43,-1.83 -0.197,-1.09 0.223,-3.46 1.791,-7.36 0.73,-1.01 0.731,-2 0.813,-0.61 1.412,-0.06 1.371,1.71 1.286,0.56 1.257,0.05"
   id="path322" />
<path
   fill="none"
   stroke="#000000"
   stroke-width="4"
   stroke-linecap="round"
   stroke-linejoin="round"
   d="m 240.738,454.99 -2.762,0.34 -2.459,2.61 -2.134,3.35 -2.477,6.55 -0.443,2.33 0.171,2.22 0.742,1.39 1.462,0.8 0.97,-0.07 2.723,-1.25 1.954,-1.5 1.095,-1.92 1.209,-1.31 0.966,-2.23 1.227,-8.33 -0.861,-3.09 -1.091,-7.57 0.125,-2.33 -0.336,-1.76 0.257,-1.82 0.502,0.13 0.99,1.73 0.985,2.36 0.431,2.61 0.92,10.04 -0.806,10.86 0.118,3.98 0.57,0.53 0.657,-0.29 1.827,-2.01 0.279,-1.12"
   id="path326" />
<path
   fill="none"
   stroke="#000000"
   stroke-width="4"
   stroke-linecap="round"
   stroke-linejoin="round"
   d="m 254.28,460.34 6.744,-0.03 1.483,0.37 3.38,-0.72 0.76,-0.51 0.367,-1.72 -1.086,-1.9 -1.002,-0.87 -1.642,-0.7 -1.429,-0.01 -2.139,1.28 -1.763,1.92 -1.31,1.93 -0.84,2.73 -0.446,6.07 1.241,2.62 1.85,1.53 3.254,-0.9 3.22,-2.39 2.24,-0.94"
   id="path330" />
<path
   fill="none"
   stroke="#000000"
   stroke-width="4"
   stroke-linecap="round"
   stroke-linejoin="round"
   d="m 280.771,452.98 -3.739,2 -1.798,1.61 -3.307,4.82 0.329,2.19 1.232,2.59 1.923,1.55 2.251,-1.19 1.457,-1.49 1.459,-2.8 0.863,-2.63 1.135,-7.33 -0.486,-8.79 -0.604,-2.66 0.043,-0.8 0.268,-0.07 -0.341,0.75 -0.029,5.3 -1.99,16.83 0.155,6.75 0.728,0.51 0.459,-0.17 2.48,-3.43"
   id="path334" />
<path
   fill="none"
   stroke="#000000"
   stroke-width="4"
   stroke-linecap="round"
   stroke-linejoin="round"
   d="m 289.791,431.46 2.051,0.37 1.779,1.1 0.933,0.67 1.446,1.85 2.265,4.81 1.938,9.34 0.042,7.79 -0.758,5.91 -2.413,9.32 -3.609,6.7 -1.071,0.63 2.662,-5.95"
   id="path338" />
<path
   fill="none"
   stroke="#000000"
   stroke-width="4"
   stroke-linecap="round"
   stroke-linejoin="round"
   d="m -583.87,474.03 -3.355,1.87 -2.132,2.98 -0.362,1.33 0.227,2.07 1.266,3.22 2.462,1.52 0.915,0.22 2.663,-0.25 2.36,-0.67 1.927,-1.26 2.337,-3.04 0.551,-1.2 0.564,-3.88 -1.502,-3.38 -0.644,-0.78 -1.949,-1.12 -2.196,-0.6 -0.857,0.07 -3.479,1.2 -0.457,0.62 -0.889,0.3"
   id="path342" />
<path
   fill="none"
   stroke="#000000"
   stroke-width="4"
   stroke-linecap="round"
   stroke-linejoin="round"
   d="m -565.941,455.25 -0.259,-0.01 0.043,0.32 1.643,8.23 1.608,13.21 1.646,7.65"
   id="path346" />
<path
   fill="none"
   stroke="#000000"
   stroke-width="4"
   stroke-linecap="round"
   stroke-linejoin="round"
   d="m -561.685,474.08 6.339,-1.51 2.822,0.17 4.366,1.69 -0.084,1.23 -1.993,3.54 -1.372,1.72 -4.792,4.43 -2.475,1.4 -0.913,1.1 -0.382,-0.01 1.306,-2.18 2.068,-2.15"
   id="path350" />
<path
   fill="none"
   stroke="#000000"
   stroke-width="4"
   stroke-linecap="round"
   stroke-linejoin="round"
   d="m -540.824,467.21 h -0.059"
   id="path354" />
<path
   fill="none"
   stroke="#000000"
   stroke-width="4"
   stroke-linecap="round"
   stroke-linejoin="round"
   d="m -540.556,481.04 3.416,4.12 2.484,5.78 0.653,5.83 -1.002,3.71 -1.272,2.72 -2.748,3.38 -3.505,1.95 -0.801,0.22 -1.846,-0.19 -2.557,-0.85 -2.011,-2.5"
   id="path358" />
<path
   fill="none"
   stroke="#000000"
   stroke-width="4"
   stroke-linecap="round"
   stroke-linejoin="round"
   d="m -528.079,477.08 2.775,0.73 1.115,-0.06 1.058,-0.12 3.385,-1.46 1.295,-1.52 1.164,-3.09 -0.893,-1.99 -3.101,-0.89 -1.81,0.84 -2.549,2.19 -1.572,2.95 -0.51,1.91 1.382,7.14 1.284,1.49 3.206,1.64 1.277,-0.19 2.573,-1.07 3.697,-2.89"
   id="path362" />
<path
   fill="none"
   stroke="#000000"
   stroke-width="4"
   stroke-linecap="round"
   stroke-linejoin="round"
   d="m -499.683,467.34 -3.356,2.35 -1.175,1.28 -1.792,3.27 0.126,2.2 0.987,1.89 1.747,1.39 2.157,0.56 1.828,-0.16 1.103,-0.16 1.357,-0.97"
   id="path366" />
<path
   fill="none"
   stroke="#000000"
   stroke-width="4"
   stroke-linecap="round"
   stroke-linejoin="round"
   d="m -484.596,448.04 2.989,24.82 1.152,6.28 0.435,1.53 0.722,1.07 -0.082,0.43"
   id="path370" />
<path
   fill="none"
   stroke="#000000"
   stroke-width="4"
   stroke-linecap="round"
   stroke-linejoin="round"
   d="m -489.917,472.84 5.51,-3.07 8.07,-3.86 2.051,-1.4"
   id="path374" />
<path
   fill="none"
   stroke="#000000"
   stroke-width="4"
   stroke-linecap="round"
   stroke-linejoin="round"
   d="m -442.422,451.15 5.41,7.24 4.053,6.93 1.778,4.56 1.653,3 1.696,2.51 1.39,1.15"
   id="path378" />
<path
   fill="none"
   stroke="#000000"
   stroke-width="4"
   stroke-linecap="round"
   stroke-linejoin="round"
   d="m -443.427,479.48 13.948,-22.28 4.152,-7.99 4.116,-6.73"
   id="path382" />
<path
   fill="none"
   stroke="#000000"
   stroke-width="4"
   stroke-linecap="round"
   stroke-linejoin="round"
   d="m 57.411,707.71 -0.229,0.01 1.31,4.21 2.579,4.55 0.169,0.99 2.551,5.95 1.7,3.16 0.616,2.28 4.411,5.64 2.536,2.32 5.458,8.61 3.256,3.11 4.341,6.07 1.912,1.67 4.511,5.79 2.648,1.73 2.982,2.73 4.578,2.67 1.037,1.26 4.629,3.1 1.276,1.45 0.968,0.18"
   id="path386" />
<path
   fill="none"
   stroke="#000000"
   stroke-width="4"
   stroke-linecap="round"
   stroke-linejoin="round"
   d="m 51.956,723.78 1.958,-3.26 1.003,-4.88 -0.1,-4.79 0.32,-1.51 0.76,-1.47 2.549,1.7 5.393,2.84 5.559,2.01"
   id="path390" />
<path
   fill="none"
   stroke="#000000"
   stroke-width="4"
   stroke-linecap="round"
   stroke-linejoin="round"
   d="m 125.542,779.81 -0.322,0.25 -1.334,3.72 -0.31,2.67 0.304,3.32 0.967,2.99 1.889,1.46 0.521,-0.04 1.391,-0.19 3.952,-1.98 3.719,-3.08 0.618,-1.23 0.678,-2.96 -2.193,-2.96 -0.926,-0.67 -6.481,-1.43 -2.676,0.15 1.092,-0.66"
   id="path394" />
<path
   fill="none"
   stroke="#000000"
   stroke-width="4"
   stroke-linecap="round"
   stroke-linejoin="round"
   d="m 148.044,763.88 2.979,20.36 -0.101,8.81"
   id="path398" />
<path
   fill="none"
   stroke="#000000"
   stroke-width="4"
   stroke-linecap="round"
   stroke-linejoin="round"
   d="m 153.313,780.94 4.717,-1.42 1.133,0.26 3.322,2.59 0.957,3.24 -2.488,6.05 -0.911,1.4 -4.613,4.44 -0.432,0.07 0.14,-0.26 1.657,-1.72"
   id="path402" />
<path
   fill="none"
   stroke="#000000"
   stroke-width="4"
   stroke-linecap="round"
   stroke-linejoin="round"
   d="m 172.249,769.5 -0.451,1.1 0.082,2.6 0.242,0.13"
   id="path406" />
<path
   fill="none"
   stroke="#000000"
   stroke-width="4"
   stroke-linecap="round"
   stroke-linejoin="round"
   d="m 173.172,788.84 0.83,2.42 2.238,12.66 -0.073,1.34 -0.852,2.8 -1.873,4.26 -2.295,2.47 -3.012,1.69 -1.701,-0.06 -2.433,-1.07 -1.936,-2.58 -0.219,-0.83 0.262,-1.7"
   id="path410" />
<path
   fill="none"
   stroke="#000000"
   stroke-width="4"
   stroke-linecap="round"
   stroke-linejoin="round"
   d="m 186.176,782.91 1.801,0.54 2.397,-0.13 3.102,-1.33 0.769,-0.94 0.943,-2.95 -0.052,-0.72 -0.44,-0.44 -2.406,-0.89 -1.412,0.66 -3.667,3.16 -1.913,4.75 -0.228,1.84 0.23,3.24 1.001,4.14 0.626,0.98 0.651,0.75 2.335,1.18 2.075,-0.06 1.822,-0.61 3.44,-2.37"
   id="path414" />
<path
   fill="none"
   stroke="#000000"
   stroke-width="4"
   stroke-linecap="round"
   stroke-linejoin="round"
   d="m 208.576,777.68 -4.121,4.58 -1.316,2.48 0.055,1.96 1.327,3.09 0.868,1.09 2.521,1.27 1.205,0.21 4.33,-0.38 1.742,-0.64"
   id="path418" />
<path
   fill="none"
   stroke="#000000"
   stroke-width="4"
   stroke-linecap="round"
   stroke-linejoin="round"
   d="m 226.29,762.91 0.621,16.76 -0.097,4.46 0.666,5.28 0.492,1.41 0.949,1.43"
   id="path422" />
<path
   fill="none"
   stroke="#000000"
   stroke-width="4"
   stroke-linecap="round"
   stroke-linejoin="round"
   d="m 220.805,779.95 6.591,-3.97 11.649,-9.49"
   id="path426" />
<path
   fill="none"
   stroke="#000000"
   stroke-width="4"
   stroke-linecap="round"
   stroke-linejoin="round"
   d="m 270.201,760.93 2.234,3.93 3.07,3.79 3.658,7.08 1.428,3.81 3.302,5.35 1.244,2.75 -0.373,0.15"
   id="path430" />
<path
   fill="none"
   stroke="#000000"
   stroke-width="4"
   stroke-linecap="round"
   stroke-linejoin="round"
   d="m 268.734,787.01 12.123,-20.02 5.77,-7.89"
   id="path434" />
<path
   fill="none"
   stroke="#000000"
   stroke-width="4"
   stroke-linecap="round"
   stroke-linejoin="round"
   d="m 304.969,748.4 -1.366,5.12 0.387,3.86 1.192,2.82 1.546,0.61"
   id="path438" />
<path
   fill="none"
   stroke="#000000"
   stroke-width="4"
   stroke-linecap="round"
   stroke-linejoin="round"
   d="m -34.466,300.99 0.018,0.37 -0.005,-0.25 1.715,0.08 1.197,-0.34 -0.324,-0.08 -0.026,-0.5 -1.738,-0.59 0.063,0.64 -0.871,1.74 0.153,2.29 0.734,1.2 0.566,0.24 0.824,-0.13 0.923,-0.64 1.57,-3.25 -0.18,-1.14 -0.844,-0.99 -2.402,-0.83 -0.4,0.09 -0.337,0.83 -1.513,1.44 -0.743,2.12 0.066,2.27 1.355,0.65 1.759,-0.1 1.44,-0.84 2.247,-4.46 -0.2,-1.32 -0.85,-1.29 -3.428,-1.63 -0.466,0.06 0.198,0.14 -1.445,1.55 -0.752,1.61 0.121,3.1 0.686,1.67 1.611,0.67 1.247,-0.08 2.542,-1.99 2.003,-4.5 -1.403,-2.98 -3.795,-1.95 -2.52,1.67 -2.229,2.28 -0.683,0.84 -1.054,2.81 0.12,3.21 1.739,3.13 1.623,0.66 1.442,-0.13 2.574,-1.38 1.749,-1.85 1.891,-3.9 -0.196,-1.83 -2.062,-3.7 -3.795,-1.82 -2.788,1.34 -2.708,3.07 -0.873,2.56 0.129,2.44 1.849,3.42 1.64,1.41 1.418,0.52 2.902,-0.11 2.177,-1.15 1.423,-1.55 2.047,-5.85 -0.563,-2.31 -2.275,-3.64 -3.987,-1.97 -1.723,0.19 -1.529,0.75 -2.449,2.53 -1.356,4.43 0.289,5.01 1.286,2.42 3.154,2.58 3.783,-0.08 2.597,-0.96 1.735,-1.69 1.542,-2.15 1.954,-5.61 -0.162,-1.76 -1.716,-3.11 -1.003,-0.85 -4.068,-1.84 -5.459,1.7 -4.256,4.07 -1.162,1.86 -1.842,4.1 -0.302,1.65 0.354,2.64 0.947,1.53 2.801,2.31 3.968,-0.2 3.046,-1.09 3.043,-2.12 1.315,-1.37 0.991,-1.72 1.78,-4.09 -0.562,-2.56 -2.267,-3.31 -0.963,-0.86 -3.906,-1.7 -1.171,0.17 -2.583,1.4 -2.322,2.41 -2.029,3.1 -0.829,3.59 0.124,2.11 1.566,3.23 1.627,1.45 2.409,1.16 3.931,-0.18 2.174,-0.85 1.62,-1.05 2.858,-3.89 1.613,-5.38 -0.162,-2.37 -1.611,-3.29 -1.884,-1.57 -1.693,-0.68 -1.16,-0.97 -3.192,-0.04 -3.769,1.93 -2.028,2.16 -1.283,3.66 0.126,5.73 1.601,4.31 2.186,1.86 0.734,0.22 3.16,-0.24 3.34,-1.36 2.279,-2.27 2.2,-5.18 -0.197,-2.48 -1.975,-3.73 -1.007,-0.83 -3.771,-1.7 -1.747,0.19 -1.735,0.98 -4.348,4.31 -2.317,3.4 -0.295,2.13 0.195,1.35 1.173,1.89 2.124,1.93 1.884,1.13 1.754,0.42 2.989,-0.17 3.055,-1.11 2.766,-2.57 2.175,-5.68 -0.164,-1.74 -1.888,-4.61 -2.186,-2.25 -2.605,-0.98 -0.574,0.05 -3.736,3.45 -0.993,1.85 -0.292,1.63 0.135,4.11 1.192,1.64 1.09,-0.48"
   id="path442" />
<path
   fill="none"
   stroke="#000000"
   stroke-width="4"
   stroke-linecap="round"
   stroke-linejoin="round"
   d="m -33.922,302.2 -1.952,4.06 0.221,1.15 -0.634,0.61 -0.051,1.2 -2.244,4.09 0.128,0.78 -0.933,1.47 0.165,0.36 -3.213,6.15 0.202,0.31 -1.078,1.62 -0.802,2.58 0.087,0.81 -0.503,0.82 0.104,0.83 -1.267,2.49 -0.217,1.45 -0.694,1.11 0.128,0.69 -0.879,1.32 0.115,0.35 -0.74,1.17 -0.742,3.01 -0.761,1.3 0.172,0.35 -0.562,0.69 -0.523,3.93 -2.504,5.4 -0.553,2.62 0.029,5.09 -0.358,0.42 -0.206,3.16 -1.083,3.96 -0.096,4.38 -0.611,1.77 0.05,1.27 -0.558,0.75 0.085,1.14 -1.298,5.89 -0.287,4.52 -0.671,1.52 0.122,0.89 -0.478,2.23 0.022,13.41 0.835,2.27 -0.087,0.86 0.507,0.95 -0.088,1.02 0.732,1.21 -0.139,0.72 3.568,6.6 0.744,1.96 -0.15,0.69 1.635,2.98 0.01,1.08 2.114,3.65 0.778,2.41 3.935,7.6 1.503,1.87 0.804,0.47 0.502,1.12 0.955,0.61 1.523,1.71 0.547,0.11 2.527,2.68 1.945,3.85 1.045,1.38 1.602,1.26 0.405,1.4 0.557,0.22 1.023,1.74 0.627,0.33 1.552,3.21 1.925,2.4 4.059,2.01 0.838,1.41 1.92,1.63 3.631,1.75 0.534,1.13 1.446,1.42 23.308,11.14 1.256,0.79 1.249,1.38 3.542,1.99 2.229,1.85 5.149,2.85 5.188,2.04 3.376,2.21 1.748,0.79 0.581,0.63 1.333,0.49 1.369,1.37 2.346,0.82 2.587,1.65 7.91,3.31 6.017,2.97 12.725,4.64 13.216,6.63 0.366,0.53 2.493,1.27 1.912,1.62 0.798,1.79 1.104,1.16 1.887,0.7 3.567,6.56 1.444,3.74 0.054,10.28 -1.276,2.82 0.078,0.81 -0.666,0.91 0.081,0.77 -1.254,2.04 -0.262,1.72 -0.538,0.68 0.087,0.75 -3.214,4.86 -2.955,6.03 -1.19,1.37 -1.55,3.38 -1.132,1.34 -1.972,1.37 -0.624,0.68 -0.192,0.77 -0.631,0.06 -0.739,1.18 -0.76,0.14 -0.22,0.47 -1.81,0.84 -1.162,1.93 -1.438,0.55 -0.616,1.27 -1.841,1.33 -0.977,1.19 -0.408,-0.02 -1.111,0.81 -0.34,0.62 -3.671,2.7 -0.435,0.89 -2.904,2.99 -0.598,1.12 -0.946,0.38 -1.309,1.61 -0.433,0.06"
   id="path446" />
<path
   fill="none"
   stroke="#000000"
   stroke-width="4"
   stroke-linecap="round"
   stroke-linejoin="round"
   d="m 57.168,585.45 -0.411,5.12 -1.322,4.3 0.136,1.85 -0.406,0.88 0.132,3.51 -0.367,0.33 -0.024,0.93 -0.548,0.85 -0.025,0.97 0.058,-0.32 0.918,0.42 1.379,-0.4 13.265,-6.68"
   id="path450" />
<path
   fill="none"
   stroke="#000000"
   stroke-width="4"
   stroke-linecap="round"
   stroke-linejoin="round"
   d="m 125.425,818.16 -1.346,2.21 -3.439,8.2 -2.477,10.86 -0.214,2.16 0.269,5.44 1.514,8.32 0.425,2.01 2.063,5.19"
   id="path454" />
<path
   fill="none"
   stroke="#000000"
   stroke-width="4"
   stroke-linecap="round"
   stroke-linejoin="round"
   d="m 134.934,837.12 h -0.233 l 0.838,3.91 -0.16,8.99 3.074,-9.46 1.761,-3.41 1.708,-2.26 1.83,-0.93 1.28,1.66 1.721,5.73 1.514,7.12 1.714,3.56"
   id="path458" />
<path
   fill="none"
   stroke="#000000"
   stroke-width="4"
   stroke-linecap="round"
   stroke-linejoin="round"
   d="m 154.967,842.34 2.086,-0.4 2.685,-1.16 1.504,-1.87 1.669,-3.34 -0.16,-0.62 -2.283,0.09 -0.826,0.57 -1.625,2.4 -1.476,2.97 -0.412,2.19 0.149,3.11 1.158,1.94 1.274,0.55 3.465,-0.1 1.739,-0.36"
   id="path462" />
<path
   fill="none"
   stroke="#000000"
   stroke-width="4"
   stroke-linecap="round"
   stroke-linejoin="round"
   d="m 170.249,836.47 -0.391,-0.09 0.887,3.95 0.508,5.13 1.32,3.69 0.626,-0.06 1.369,-1.17 1.507,-4.21 0.599,-0.93 1.598,-0.53 h 0.48 l 1.353,1.67 2.214,4.43 0.613,0.3 1.639,-0.75 0.824,-0.99 1.251,-2.8 0.859,-4.77 1.062,-3.7 -0.131,-1.14"
   id="path466" />
<path
   fill="none"
   stroke="#000000"
   stroke-width="4"
   stroke-linecap="round"
   stroke-linejoin="round"
   d="m 218.056,831.76 5.703,6.26 2.419,3.71 0.892,2.26 0.617,0.4 -0.15,-5.58 0.378,-1.54 0.003,-1.84 0.936,-4.52 0.048,-2.03 0.33,-0.91 0.616,-0.21"
   id="path470" />
<path
   fill="none"
   stroke="#000000"
   stroke-width="4"
   stroke-linecap="round"
   stroke-linejoin="round"
   d="m 237.217,834.3 3.192,-0.17 0.472,-0.74 1.693,-1.15 1.826,-1.8 0.788,-2.09 -1.225,-1.37 -2.242,-0.7 -2.869,1.54 -1.563,1.71 -0.911,2.27 -0.112,4.92 1.027,2.84 -0.095,0.42 0.604,1.01 2.254,1.57 3.113,-1 1.884,-1.2 0.889,-0.23"
   id="path474" />
<path
   fill="none"
   stroke="#000000"
   stroke-width="4"
   stroke-linecap="round"
   stroke-linejoin="round"
   d="m 254.689,828.92 0.697,4.57 1.407,4.59 0.018,1.74 0.812,1.67 -0.12,-2.2 -0.877,-2.44 0.214,-3.2 1.833,-4.85 1.78,-2.11 1.321,-0.09 3.133,3.51 1.026,0.01"
   id="path478" />
<path
   fill="none"
   stroke="#000000"
   stroke-width="4"
   stroke-linecap="round"
   stroke-linejoin="round"
   d="m 267.617,839.95 2.772,1.11 2.748,-0.23 4.368,-2.47 0.442,-1.09 0.03,-1.19 -1.963,-2.1 -3.373,-2.22 -0.786,-1.05 0.064,-1.31 2.759,-2.55 2.004,-0.82 0.916,0.3 0.823,1.21"
   id="path482" />
<path
   fill="none"
   stroke="#000000"
   stroke-width="4"
   stroke-linecap="round"
   stroke-linejoin="round"
   d="m 286.098,827.96 -1.841,6.31 -0.052,4.44 0.381,0.37 0.353,-0.33"
   id="path486" />
<path
   fill="none"
   stroke="#000000"
   stroke-width="4"
   stroke-linecap="round"
   stroke-linejoin="round"
   d="m 288.163,823.14 -0.104,0.05"
   id="path490" />
<path
   fill="none"
   stroke="#000000"
   stroke-width="4"
   stroke-linecap="round"
   stroke-linejoin="round"
   d="m 296.931,832.48 -1.125,3.35 0.359,1.46 2.986,1.15 1.512,-0.07 2.116,-1 2.275,-3.12 0.835,-3.97 -0.133,-1.87 -1.461,-1.6 -3.173,-1.06 -1.3,0.11 -2.104,0.99 -0.133,0.38 0.124,0.59 0.999,0.67 1.899,0.18"
   id="path494" />
<path
   fill="none"
   stroke="#000000"
   stroke-width="4"
   stroke-linecap="round"
   stroke-linejoin="round"
   d="m 311.784,827.35 0.138,3.31 1.019,3.08 -0.074,2.7 0.538,0.64 1.556,-1.96 3.137,-7.25 0.851,-0.66 0.852,-0.04 0.926,2.73 -0.792,6.35 0.646,0.74 1.01,0.15"
   id="path498" />
<path
   fill="none"
   stroke="#000000"
   stroke-width="4"
   stroke-linecap="round"
   stroke-linejoin="round"
   d="m 323.802,806.54 4.437,4.38 2.703,3.2 2.068,3.21 1.582,7.5 0.177,3.07 -0.046,7.24 -2.094,7.68 -2.972,5.62 -1.181,1.57 -5.631,3.82 0.828,-1.14 2.4,-2.16"
   id="path502" />
<path
   fill="#c07fd2"
   fill-rule="evenodd"
   d="m -475.66,71 h -0.5 l -0.5,-0.5 1,-0.5 v 1"
   id="path506" />
<path
   fill="#c07fd2"
   fill-rule="evenodd"
   d="m -477.66,68 h -0.5 l -0.5,-0.5 1,-0.5 v 1"
   id="path510" />
<path
   fill="#c07fd2"
   fill-rule="evenodd"
   d="m -478.66,65 -0.5,1 -0.5,-1 h 1"
   id="path514" />
<path
   fill="#c07fd2"
   fill-rule="evenodd"
   d="m -479.66,65 h -0.5 l -0.5,-0.5 1,-0.5 v 1"
   id="path518" />
<path
   fill="#c07fd2"
   fill-rule="evenodd"
   d="m -489.66,41 v -0.5 l 0.5,-0.5 h 0.5 v 1 h -1"
   id="path522" />
<path
   fill="#c07fd2"
   fill-rule="evenodd"
   d="m -488.66,40 v -0.5 l 0.5,-0.5 0.5,1 h -1"
   id="path526" />
<path
   fill="#c07fd2"
   fill-rule="evenodd"
   d="m -533.66,44 1,0.5 -1,0.5 v -1"
   id="path530" />
<path
   fill="#c07fd2"
   fill-rule="evenodd"
   d="m -656.66,71 h -1 v -1 h 1 v 1"
   id="path534" />
<path
   fill="#c07fd2"
   fill-rule="evenodd"
   d="m -665.66,61 v -0.5 l 0.5,-0.5 0.5,1 h -1"
   id="path538" />
<path
   fill="#c07fd2"
   fill-rule="evenodd"
   d="m 20.34,86.5 -2.5,2.5 -4.75,-0.625 -0.75,-2.875 -2,-2 1,-1 v -1 l -1,-1 1,-1 -1,-1 1,-1 -1,-1 2,-2 -1,-1 0.75,-1.5 V 44 l -0.875,-7.75 -2.25,-1 -0.375,-5 2,-1 0.75,-1.75 0.5,-0.5 1,1 1,-1 1,1 1,-1 h 5 l 1,1 0.5,-0.5 0.25,-1.25 2.25,-0.25 1,1 0.5,-0.5 0.25,-1.25 3.75,-0.5 2,-1.375 3,-1 4,-1 4.5,-0.375 1,-1 1,1 2.875,0.75 0.125,4.25 -1.125,4.375 -4.375,0.375 -2,-0.125 -3,0.875 -6,2 -2.5,0.5 -1,1 -1,-1 -1,1 -2.5,0.625 -4.75,0.625 -0.25,2.25 1,1 -1,1 2,6 -1,1 1,1 -1,1 1.5,1.5 2.5,-0.625 5,-0.75 3,-1.125 3,-0.875 2,-1.125 2,-1 2,-1.25 3.5,-0.25 1,-1 1,1 h 2 l 2.5,2.5 -0.375,2.5 -0.875,1.75 -2.25,1.25 -2.5,1.625 -3,0.75 -2,1.125 -2,1 -2,1.25 -4,0.875 -5,0.875 -5,0.75 -1.5,0.75 -0.5,0.5 1,1 -0.625,1.5 0.375,3 -0.25,10 -0.5,9.5 m 0,-41.5 v -1 h -1 v 1 h 1 m 13,5 v -1 h -1 v 1 h 1"
   id="path542" />
<path
   fill="#c07fd2"
   fill-rule="evenodd"
   d="m -8.16,94 -3,-1 -3.5,-3.5 -0.625,-2.5 -0.75,-5 -1.25,-3 -0.75,-5 -0.625,-3.5 1,-1 -0.5,-0.5 -1.25,-0.25 -0.5,-1.5 -2.75,0.125 -2,1.25 -3.5,1.125 -2.5,1.75 -2,1.125 -3,0.875 -2.5,0.5 -1,-1 -1.5,1.5 -1,3 -1.375,3.5 -1.125,2 -1.75,2.5 -1.5,4 -2,2.75 -2.75,0.75 -1,1 -1,-1 -1.5,-0.5 -1.875,-0.75 0.5,-7.25 2,-2.5 1.625,-3.5 1,-4.5 2,-2.5 1.25,-3.5 0.875,-3 1.25,-2 1.75,-6 1.25,-2 1.75,-6 1.25,-2 0.75,-3 1.25,-2 1.75,-6 1.125,-2 1,-2 0.5,-1.5 5.5,-5.5 1.5,-0.75 3.5,-0.25 4.5,4.5 0.5,1.5 1.125,2 1,3 0.75,4 1.125,3 3,9 0.75,2.875 5.75,-0.5 8,-0.125 2.375,1.5 0.625,3.75 -2.5,2.5 -1.5,0.75 -4,0.875 -6.75,0.5 0.375,1.875 1,3 0.75,6 1,5 0.875,4 1.375,2 0.375,2.5 1,1 -1,1 v 1 l -2.5,2.5 h -1 l -1,1 m -24,-31 0.5,-0.5 0.25,-1.25 2.25,-0.25 1,-1 1,1 0.5,-0.5 0.25,-1.25 1.75,-1 3.5,-0.25 0.5,-0.5 -1,-1 1,-1 -2,-2 1,-1 -0.25,-1.25 -1.5,-0.5 -0.625,-2.75 -0.625,-1.5 1,-1 -0.5,-0.5 -1.25,-0.25 -0.25,-3.25 -1.5,-1.5 -0.5,0.5 -0.75,1.5 -0.5,4 -1.375,2 -0.75,3 -1.375,2 -0.5,4 -1.375,2 -0.375,2.5 -1,1 0.5,0.5 h 1 l 1,-1 1,1 m 8.5,-3 v -1 h -1 v 1 h 1"
   id="path546" />
<path
   fill="#c07fd2"
   fill-rule="evenodd"
   d="m -483.66,34 h -1 v -1 h 1 v 1"
   id="path550" />
<path
   fill="#c07fd2"
   fill-rule="evenodd"
   d="m -443.66,22 h -1 v -1 h 1 v 1"
   id="path554" />
<path
   fill="#c07fd2"
   fill-rule="evenodd"
   d="m -436.66,20 h -1 v -1 h 1 v 1"
   id="path558" />
<path
   fill="#c07fd2"
   fill-rule="evenodd"
   d="m -427.66,85.25 -5,1.375 -6,0.625 -1.5,0.75 -1,-1 -1,1 h -2 l -2.5,-2.5 v -3 l -1,-1 1,-1 -1,-1 -0.25,-5.5 -0.25,-2 0.5,-1.5 -1,-1 1,-1 v -3 l -1,-1 1,-1 -1,-1 0.375,-3.5 0.625,-2.5 -1,-1 1,-1 v -11 l -1,-1 1,-1 -1,-1 -0.25,-9.5 -1.5,-2 v -3.75 l 2.25,-1.625 4.5,-1 2.75,-0.875 0.25,-1.25 0.5,-0.5 1,1 2.5,-0.375 1.5,-0.625 2,-2 1,1 1,-1 h 1 l 1,-1 1,1 0.5,-0.5 v -1 l 0.5,-0.5 1,1 2.25,-0.25 0.25,-1.25 0.5,-0.5 1,1 1,-1 1,1 1.5,-0.5 2,-1.25 3.5,-0.25 1,-1 1,1 h 3 l 1,-1 2,2 h 1 l 0.5,0.5 -1,1 v 1 l 1,1 -2,2 -0.25,1.25 -2.75,1 -7,0.875 -8,0.625 -2,1.5 -4,0.75 -4,0.875 -3,1.25 -4.375,1 0.125,5.375 0.25,13.375 5,0.125 4,-0.875 2.5,-0.625 0.5,-0.5 -1,-1 0.5,-0.5 1.5,0.5 h 2 l 1.5,-0.5 1,-1 1,1 2.5,-0.625 3.5,-0.375 1,-1 1,1 3.5,0.25 1.5,0.75 2.5,2.5 -0.625,3.75 -1.875,0.75 -1,1 -1,-1 -6.5,0.5 -7,0.875 -4,1 -3,1.25 -5,0.75 -3.875,0.875 -0.125,8.25 1,1 -1,1 0.625,4.5 0.5,5.75 1.375,0.25 1,1 1,-1 1,1 2.5,-0.625 4,-0.875 4,-1 4,-0.125 2.5,0.625 0.5,-0.5 -1,-1 0.5,-0.5 h 4 l 1,1 1,-1 1,1 h 1 l 1,-1 1,1 1,-1 1.5,-0.75 5,-0.5 1.5,-0.75 1,1 0.5,-0.5 0.25,-1.25 1.75,-0.75 2,-1.125 2.5,-0.375 2.5,2.5 v 4 l -3.5,3.5 -1.5,0.5 -2,1.125 -3,1 -5,1.125 -24,1.5 m -10,-5.25 v -1 h -1 v 1 h 1"
   id="path562" />
<path
   fill="#c07fd2"
   fill-rule="evenodd"
   d="m -530.66,82.75 h -10 l -3.5,-0.75 -3.5,-3.5 -1,-2 -1.5,-2.5 -0.5,-1.5 1,-1 -1,-1 0.25,-10.5 1.25,-3 1.125,-3 0.625,-4 1.25,-2 1,-2 1.5,-2.5 2,-3 0.5,-2.5 -1,-2 v -2 l 0.75,-1.75 1.75,-1 h 15 l 2,1.25 1.5,0.5 6.5,6.5 1,2 1.75,2.5 0.5,4.75 1.25,0.25 0.5,0.5 -1,1 v 1 l 1,1 -1,1 v 1 l 1,1 -1,1 1,1 -0.5,0.5 -1.25,0.25 0.5,3.5 -1.25,0.25 -0.5,0.5 1,1 -0.5,1.5 -1.5,2.5 -2,3 -1,2 -5.5,5.5 h -1 l -3,3 -2.5,0.375 -2,1.375 m -3,-37.75 -1.75,1.25 -1,3 -1.75,0.75 -0.5,0.5 1,1 -0.5,1.5 -0.75,1.75 -1.25,0.25 -0.5,0.5 1,1 -0.625,4.5 -0.125,9 1,1.75 3.25,0.25 1,1 1,-1 h 2 l 3,-3 h 1 l 2.5,-2.5 v -1 l 3,-3 0.5,-1.5 1.25,-2 0.25,-3.5 1,-1 -1,-1 1,-1 -0.5,-2.5 -0.875,-3 -1.125,-2 -1.25,-2.25 -2.75,-2 h -4 l -2.75,2 -0.75,1.25 -1,0.5 0.5,0.5 h 0.5 m -3,4 v -1 h -1 v 1 h 1 m -4,12 v -1 h -1 v 1 h 1 m 27,6 v -1 h -1 v 1 h 1 m -2,3 v -1 h -1 v 1 h 1"
   id="path566" />
<path
   fill="#c07fd2"
   fill-rule="evenodd"
   d="m -494.66,23 v -1 h -1 v 1 h 1 m 6,-6 v -1 h -1 v 1 h 1 m -3,28 v -1 h -1 v 1 h 1 m 3,-4 h 0.5 l 0.5,-0.5 V 40 l 1.375,-3 0.875,-1.75 2.125,-1 1,-4.25 1.25,-3 0.625,-4 0.5,-1.75 -2.25,0.75 -2,1 -5.5,5.5 v 1 l -3,3 -0.625,1.5 0.25,3 0.375,5.5 1.5,1.5 0.5,-0.5 0.25,-2.25 0.75,-0.25 0.5,1 0.5,-1 m 13,29 -0.25,-0.75 -1.75,-1.25 1,-0.5 -1,-0.5 v -1.5 l -0.5,-0.5 h -0.5 v -0.5 l -0.5,-0.5 h -0.5 v -1.5 l -0.5,-0.5 -1,1 -0.5,-0.5 -0.25,-1.25 -1.5,-0.5 -1,-2 -2.75,-1.75 -2,-1 -1,-1 -1,1 -1,-1 -0.5,0.5 -0.75,3.5 -0.25,9.5 -1,1 1,1 -1,1 1,1 1,5 1,1 -1,1 1,1 -2,2 v 1 l -2.5,2.5 h -4 l -4.5,-4.5 0.25,-18.5 0.75,-4.5 1,-1 -1,-1 1,-1 -0.5,-17 -0.75,-2.5 -0.25,-6 -0.5,-5.5 2.5,-2.5 h 4 l 1,1 9,-9 2,-1.25 3.5,-1.375 h 5 l 3.5,1.375 2.25,1.5 0.75,1.75 1.25,2 v 9 l -1.25,3 -1,3 -1.25,3.5 -2.25,3 -1,2 -3,3 v 1 l -3,3 2.5,2.5 h 1 l 3,3 h 1 l 2.5,2.5 1,2 4,6 1.625,2.5 1.125,3.5 1.75,2.5 1.25,2.25 2.5,1.5 2.125,2.75 0.375,4.5 -1.5,2.375 h -4.75 l -2.5,-1.875 -1.75,-0.75 -0.5,-1.5 -2.5,-0.5 -0.25,-1.25 -1,-1 1,-1 -0.5,-0.5 h -1 l -0.5,-0.5 1,-1 -1,-1 -0.25,-1.25 -2,-1 -0.75,-2.25 1,-0.5 -1,-0.5 m 2,3 v -1 h -1 v 1 h 1"
   id="path570" />
<path
   fill="#c07fd2"
   fill-rule="evenodd"
   d="m -555.66,50.5 -1.5,5.5 -1.5,0.625 -3,0.75 -2,1.125 -1.5,0.5 -1,1 -1,-1 -2.5,0.375 -2,1.375 -4,0.875 -7.75,0.5 -0.875,2.875 -0.375,5.5 1,1 -1,1 0.25,9.5 1.375,3 0.125,5 -1,1.75 -2.25,1.625 -5,0.625 -2.5,-2.5 -0.75,-1.5 -0.25,-4.5 -1,-1 1,-1 -1,-1 1,-1 v -8 l 1,-1 -1,-1 0.25,-4.5 0.75,-1.5 -1,-1 1,-1 -1,-1 1,-1 v -4 l 1,-1 -1,-1 1,-1 V 41.25 l -2.25,-1 -1.25,-2.25 v -2 l 1,-2 0.75,-1.75 1.25,-0.25 4,-4 1.5,-0.625 6,-1.75 2,-1.375 5,-0.625 3,-1.25 4,-0.75 3,-1.25 5,-0.875 4.5,-0.5 1,-1 1,1 h 1 l 2.5,2.5 -0.375,2.5 -0.875,1.75 -2.25,1.625 -4.25,0.875 -0.5,1.5 -1.25,0.25 -1,-1 -1,1 -6,2 -1,1 -1,-1 -1,1 h -1 l -1,1 -1,-1 -1.5,0.75 -4,0.5 -2,1.375 -3.25,1.125 V 39 l 0.25,7.5 -1,1 0.5,0.5 h 1 0.5 l -0.5,1 h -1 l -0.5,0.5 1,1 0.25,2.25 2.75,-0.375 4,-0.75 3,-1.25 5,-0.75 4,-1.25 6.5,-0.375 2.5,2.5 m -31,-21.5 v -1 h -1 v 1 h 1 m -3,2 v -1 h -1 v 1 h 1 m -4,9 v -1 h -1 v 1 h 1"
   id="path574" />
<path
   fill="#c07fd2"
   fill-rule="evenodd"
   d="m -619.66,102.625 -5,0.75 -4,1.25 -6.5,1 -2.5,2 -3,1 -3.75,0.625 -0.25,1.25 -0.5,0.5 -1,-1 -2,2 h -2 l -2.5,-2.5 0.375,-3.5 0.625,-2.5 2.5,-2.5 h 1 l 0.5,-0.5 -1,-1 -0.625,-4.5 0.25,-8 0.75,-11 0.625,-9.5 1,-1 -1,-1 0.625,-2.5 0.375,-5.5 1,-1 -1,-1 1,-1 v -7 l -3,-3 0.25,-4.5 1,-1.75 1.75,-0.75 7.5,-4.5 2,-1 3,-3 2.25,-0.25 0.5,-1.5 2.75,-0.75 3,-0.875 1.5,-0.625 1,-1 1,1 1,-1 1.5,-0.5 2,-1 1.5,-0.5 1,1 1,-1 h 3 l 1,-1 1,1 2.25,0.25 0.75,1.75 1,2 -0.25,2 -0.5,3.75 -1.5,0.5 -0.5,1.5 -1.75,0.875 -3,-0.25 -4,-0.125 -2,1.375 -3,0.875 -3,1 -3,0.875 -2,1.125 -2.5,1.75 -4.5,1.5 -0.25,17.25 -0.75,4.5 0.5,0.5 1,-1 1.5,-0.5 2,-1.125 3,-0.75 2,-1.375 8,-1.5 2,-1.5 4,-0.875 4.5,-0.375 2.5,2.5 -0.25,3.5 -0.75,1.5 -3.5,3.5 -1,-1 -2,2 -3.5,0.5 -4,0.875 -3,1.25 -4,0.625 -2,1.25 -6,3 -1.5,0.5 -0.5,0.5 1,1 -0.75,1.5 -0.25,7.5 -1,1 1,1 0.375,3.5 1.375,3.25 3.25,0.25 3,-0.875 1.5,-0.625 1,-1 1,1 2,-2 h 1 l 1,1 1,-1 h 2 l 2,-2 1,1 h 2 l 2,-2 1,1 2.5,-0.375 2,-1.125 2,0.25 5.5,0.25 4.5,4.5 -0.625,1.5 -1.125,3.375 -5.25,1.125 -4.5,0.5 -1,1 -1,-1 -1,1 -4.5,0.375 -6,2.25 m -27,-0.625 v -1 h -1 v 1 h 1 m -2,1 v -1 h -1 v 1 h 1"
   id="path578" />
<path
   fill="#c07fd2"
   fill-rule="evenodd"
   d="m -684.16,57 2.5,-2.5 0.25,-1.25 1.5,-0.5 0.25,-1.25 3,-3 0.5,-1.5 1.25,-2 v -6 l -1,-1.75 -2.75,-0.875 -4,0.25 -5,0.625 -2.5,1.75 -2.5,1.5 -1.5,0.5 -1.5,1.5 2,2 0.625,1.5 v 3 l 0.125,2 0.375,7.75 1.875,-0.25 1.5,-0.5 1,-1 1,1 1,-1 h 2 m 2,37 3,-1 8.5,-8.5 0.5,-1.5 1.25,-2 v -6 l -0.75,-1.5 -3.5,-3.5 -2.5,-0.625 h -5 l -2.5,0.625 -3,3 -1,-1 -2,2 -1.5,-0.5 -1.75,-0.25 0.125,3.75 0.625,2.5 -1,1 1,1 v 1 l -1,1 1,1 -0.25,12.5 -0.5,2.75 1.75,-0.25 4,-2 1.5,-0.5 3,-3 m -10.5,7 v -1 h -1 v 1 h 1 m 28,-40 1.75,0.25 0.5,1.5 1.5,0.5 1.25,2.25 1,2 -1,1 1,1 0.625,1.5 0.625,2.75 1.5,0.5 0.25,1.25 -1,1 1,1 -0.375,5.5 -1,3 -0.875,1.75 -2.25,0.25 -0.5,0.5 1,1 -0.5,0.5 h -1 l -0.5,0.5 1,1 -0.5,0.5 -1.25,0.25 -0.5,1.5 -1.25,0.25 -2.5,2.5 -0.75,1.75 -2,1 -0.25,1.25 -2.5,2.5 -3,1 -4,4 -1.5,0.5 -5,3 -2,1.125 -3,0.75 -2,1.125 -2,1.25 -4.5,0.25 -2.5,-2.5 v -1 l -2,-2 1,-1 -1,-1 1,-1 v -1 l 2.5,-2.5 h 2 0.5 l -0.5,-1 -3.75,-0.625 -1.5,-2.375 -0.625,-4 -0.625,-2.5 1,-1 -1,-1 v -2 l 1,-1 -1,-1 0.75,-1.5 0.25,-30.75 -2,0.375 -3,-0.125 -3.375,-1.25 -0.375,-5.25 1.375,-2 0.75,-3 0.625,-1.5 3,-3 v -1 l 6.5,-6.5 2,-1 2.5,-1.5 2,-1 1.75,-0.75 0.25,-1.25 0.5,-0.5 1,1 2,-2 1,1 1,-1 h 5 l 1,-1 1,1 h 2 l 1,1 1,-1 1.5,0.625 2.75,0.625 0.5,1.5 2.25,0.25 2.5,2.5 0.75,1.5 0.5,4 1.5,2 v 5 l -0.25,2 -0.75,2.5 -0.75,3 -2,2 1,1 -2.5,2.5 -1.25,0.25 v 2.5 l 2.5,0.5 1.25,1.75 0.5,1 0.5,-1 m 4,5 v -1 h -1 v 1 h 1 m 4,14 v -1 h -1 v 1 h 1 m -2,7 v -1 h -1 v 1 h 1 m -13,15 v -1 h -1 v 1 h 1 m -6,4 v -1 h -1 v 1 h 1"
   id="path582" />
<path
   fill="#c07fd2"
   fill-rule="evenodd"
   d="m 192.34,30 h -1 v -1 h 1 v 1"
   id="path586" />
<path
   fill="#c07fd2"
   fill-rule="evenodd"
   d="m 204.34,25 h -1 v -1 h 1 v 1"
   id="path590" />
<path
   fill="#c07fd2"
   fill-rule="evenodd"
   d="m 230.84,63 -3.5,-1.375 -2.25,-1.375 -1,-3 -1.5,-0.5 -0.25,-2.25 -0.5,-0.5 -1,1 -0.5,-0.5 -0.25,-1.25 -1.5,-0.5 -0.25,-1.25 -0.5,-0.5 -1,1 -0.5,-0.5 v -1 l -0.5,-0.5 -1,1 -0.5,-0.5 v -1 l -0.5,-0.5 -1,1 -0.5,-0.5 v -1 l -0.5,-0.5 -1,1 -2,-2 -2.5,-0.375 -1.5,-0.625 -1,-1 -1,1 -1,-1 -3.5,-0.25 -1.5,-0.75 -1,1 -1,-1 -1.25,0.25 -0.25,1.25 -0.5,0.5 -1,-1 -1,1 -1.25,0.25 -0.25,4.25 1,1 -0.5,0.5 h -1 l -0.5,0.5 1,1 v 2 l -1,1 1,1 -1,1 1,1 v 1 l -2,2 1,1 -0.25,1.25 -1.5,0.5 -1,2.125 -4,0.375 -0.75,-1.75 -1.25,-2 0.125,-7 0.625,-3.5 1,-1 -1,-1 0.75,-1.5 1,-5 0.875,-13 0.625,-15 1,-1.75 2.75,-0.75 3.5,-1.25 2.75,-2 1,-2 2.25,-1.25 3,-2 2.5,-1.625 3.5,-1.375 3,-1 1,-1 1,1 0.5,-0.5 0.25,-1.25 2.25,-0.25 1,1 1,-1 2,2 1,-1 0.5,0.5 v 1 l 0.5,0.5 1,-1 0.5,0.5 0.25,1.25 1.5,0.5 0.875,2.75 0.125,5 -0.75,1.5 -1,1 1,1 -0.5,1.5 -0.75,1.75 -1.5,0.5 -0.625,2.75 -0.625,1.5 -4.5,4.5 -1.75,0.75 -1.5,2.5 -2.5,1.5 -1,2 -1.5,0.5 v 1.5 l 1.75,0.875 3,0.875 3,1 3,0.875 2,1.125 2,1 1.5,0.5 3,3 h 1 l 5.5,5.5 0.25,1.25 3.25,0.25 2.5,2.5 -0.375,2.5 -0.875,1.75 -2.25,1.5 -3,0.75 -1,1 m -19,-46 2.5,-2.5 v -2 l 1,-1 -1,-1 1,-1 -0.5,-0.5 -4.5,0.25 -2,1.375 -3.5,1.125 -3,2.25 -2,1 -8.5,8.5 1,1 -1,1 -0.375,2.5 -0.625,1.5 1,1 -1,1 1,1 -1,1 0.25,2.25 1.75,-0.375 2.5,-0.375 13,-13 h 1 l 0.5,-0.5 -1,-1 0.5,-0.5 h 1 l 1.5,-1.5 -1,-1 0.5,-0.5 h 1"
   id="path594" />
<path
   fill="#c07fd2"
   fill-rule="evenodd"
   d="m 150.34,71.75 -4,0.625 -3,1 -4,2.25 -3,0.875 -3,1 -3,1.125 -5,1 -6,0.125 -1.75,-1 -0.25,-3.25 2,-2 -1,-1 -0.5,-1.5 -2,-2.5 -0.125,-19.5 1,-9 1,-8 0.625,-4.5 1,-1 -1,-1 v -4 l 3.5,-3.5 3.5,-0.375 3,-1.125 3,-0.875 2,-1.25 3,-0.875 3,-1.125 4,-0.75 3,-1.375 h 7 l 1.75,1 0.875,1.75 v 3 l -1.375,2.25 -2.25,1.25 -1.5,0.5 -1,1 -1,-1 -1.5,0.625 -3,0.875 -3,1.125 -5,0.625 -2,1.375 -3,0.875 -2.5,0.5 -2.5,2.5 1,1 -0.25,3.25 -1.25,0.25 -0.5,0.5 1,1 0.125,5.25 3.875,-0.25 4,-1 4,-0.75 2,-1.5 4,-0.75 4,-1 4,-0.25 1.5,0.75 2.5,2.5 v 4 l -2.5,2.5 -1,-1 -1,1 -5,1 -1,1 -1,-1 -2,2 -1,-1 -1,1 -3.5,0.5 -4,1 -4,0.875 -3,1 -1.75,0.875 -0.875,1.75 0.25,3 0.375,5.5 -1,1 1,1 -1,1 2,2 -1,1 0.5,0.5 h 1 l 0.5,0.5 -1,1 0.5,0.5 h 1 l 1,1 0.5,-0.5 0.25,-1.25 2.75,-0.625 1.5,-0.625 1,1 0.5,-0.5 0.75,-1.75 3.25,-1.125 2,-1.25 3,-0.875 3,-1 3,-0.875 4,-2.25 3,-1 4,-0.75 3,-1.25 4.5,-0.375 1,-1 1,1 3,0.75 0.5,5.75 -2.5,2.5 -1,-1 -1,1 -2.25,0.25 -0.25,1.25 -0.5,0.5 -1,-1 -1.25,0.25 -0.5,1.5 -3.75,0.625 -3,1.25 -4,0.625 -2,1.5 M 129.34,18 v -1 h -1 v 1 h 1 m -3,14 v -1 h -1 v 1 h 1"
   id="path598" />
<path
   fill="#c07fd2"
   fill-rule="evenodd"
   d="M 85.34,29.625 81.965,30.75 80.84,36 l -1.125,5 -0.75,8 -1.25,7 -0.375,7.5 -1,1 1,1 0.625,3.5 -0.125,6.25 -2.5,1.25 -2.5,-0.5 -2.25,-1.25 -1,-1.75 V 56 l 1.125,-6 1.25,-5 0.75,-7 0.625,-3.5 -1.5,-1.5 -1,1 -1.5,0.75 -5,0.875 -6,0.75 -4.5,0.625 -3.5,-3.5 1,-1 -1,-1 v -2 l 2.5,-2.5 6.5,-0.375 6,-1 3,-1 2,-1.25 3,-0.75 2,-1.25 6,-1.75 2,-1.25 3,-0.75 2,-1.125 2.5,-1.75 3.5,-1.125 2,-1.25 3,-1.125 7.5,-0.25 3.5,3.5 v 3 l -3.5,3.5 -2.5,0.625 -4,0.625 -2,1.25 -6,3 -2,1.125 -3,0.75 -2,1.25 M 74.34,34 v -1 h -1 v 1 h 1"
   id="path602" />
<path
   fill="#c07fd2"
   fill-rule="evenodd"
   d="m -223.66,871 v -1 h 1 v 0.5 l -0.5,0.5 h -0.5"
   id="path606" />
<path
   fill="#c07fd2"
   fill-rule="evenodd"
   d="m -223.66,871 -0.5,1 -1.25,0.25 -0.5,1.5 -1.75,0.75 h -2 l -1.5,-0.5 -2.5,-2.5 -0.75,-1.5 v -70 l 0.25,-2 v -6 l 0.5,-1.5 -1,-1 1,-1 v -1 l -1,-1 1,-1 v -32 l 1,-1 -1,-1 v -10 l 1,-1 -1,-1 v -6 l 1,-1 -1,-1 v -2 l 1,-1 -1,-1 v -35 l -1,-1 1,-1 v -1 l -1,-1 1,-1 v -4 l -1,-1 1,-1 -1,-1 0.625,-1.5 0.375,-2.5 -1,-1 1,-1 v -5 l -1,-1 1,-1 v -1 l -1,-1 1,-1 v -3 l -1,-1 1,-1 v -2 l -1,-1 1,-1 -0.25,-7.5 -0.125,-2 0.375,-2.5 -1,-1 1,-1 -1,-1 v -2 l 1,-1 -1,-1 1,-1 v -3 l -1,-1 1,-1 -1,-1 1,-1 v -4 l -1,-1 1,-1 v -3 l -1,-1 1,-1 v -1 l -1,-1 1,-1 v -138 l -1,-1 1,-1 0.25,-41.5 0.75,-1.5 -1,-1 1,-1 -1,-1 1,-1 -1,-1 0.375,-3.5 0.25,-3 -0.625,-1.5 1,-1 -1,-1 v -1 l 1,-1 -1,-1 1,-1 v -1 l -1,-1 1,-1 -1,-1 v -1 l 1,-1 -1,-1 1,-1 -1,-1 1,-1 -0.75,-1.5 v -35 -2 -8 l 0.25,-2 -0.5,-1.5 1,-1 -1,-1 1,-1 v -4 l -1,-1 1,-1 -1,-1 1,-1 -1,-1 0.75,-1.5 0.25,-17.5 -1,-1 1,-1 v -2 l -1,-1 1,-1 -1,-1 1,-1 v -3 l -1,-1 1,-1 v -8 l -1,-1 1,-1 -0.75,-1.5 -0.25,-3.5 1,-1 -1,-1 1,-1 v -1 l -1,-1 1,-1 -1,-1 1,-1 -1,-3 1,-1 -1,-1 1,-3 -1,-1 1,-1 -1,-1 1,-3 -1,-1 1,-1 -1,-1 v -111 l -1,-1 1,-1 v -1 l -1,-1 1,-1 v -3 l -1,-1 1,-1 -1,-1 v -2 l 1,-1 -1,-1 1,-1 v -2 l -1,-1 1,-1 -1,-3 1,-1 -1,-1 v -17 l 1,-1 -1,-1 1,-1 -1,-1 v -2 l 1,-1 -1,-1 v -1 l 1,-1 -1,-1 v -1 l 1,-1 -1,-1 0.25,-7.5 0.75,-1.5 -1,-1 1,-1 v -3 l -1,-1 1,-1 -1,-1 1,-1 -0.25,-5.5 v -2 l 0.25,-29.5 1,-1 -1,-1 v -2 l 1,-1 -1,-1 v -3 l 1,-1 -1,-1 1,-1 v -3 l -1,-1 1,-1 v -9 l 2.5,-2.5 h 1 l 1,-1 1,1 1.75,0.75 1.375,3.25 0.625,6 0.125,2 0.375,3 v 7 l -0.75,1.5 1,1 -1,1 1,1 v 4 l -1,1 1,1 v 3 l -1,1 1,1 v 4 l -1,1 1,1 -0.5,1.5 v 2 l 0.5,1.5 -1,1 1,1 v 2 l -1,1 1,1 -1,1 v 2 l 1,1 -1,1 1,1 v 5 l -1,1 1,1 -1,1 v 1 l 1,1 -1,1 1,1 v 7 l -1,1 1,1 v 1 l -1,1 1,1 v 1 l -1,1 1,1 v 2 l -1,1 1,1 -1,1 1,1 -1,1 1,1 v 2 l -1,1 1,1 -0.5,1.5 0.125,2 0.375,2.5 -1,1 1,1 -0.25,5.5 -0.75,1.5 1,1 -1,1 v 1 l 1,1 -1,1 1,1 -0.625,1.5 -0.375,2.5 1,1 -1,1 1,1 -1,1 v 2 l 1,1 -1,1 v 8 l 1,1 -1,1 v 35 l 1,1 -1,1 1,1 -1,1 v 10 l 1,1 -1,1 1,1 -1,1 v 2 l 1,1 -1,1 0.5,1.5 v 2 l -0.5,1.5 1,1 -1,1 v 2 l 1,1 -1,1 0.625,2.5 v 4 l 0.125,3 0.25,6.5 -1,1 1,1 v 3 l -1,1 1,1 -0.25,268.5 -0.75,1.5 1,1 -1,1 1,1 -0.5,1.5 v 2 l 0.5,1.5 -1,1 1,1 -1,1 1,1 v 3 l -1,1 1,1 v 4 l -1,1 1,1 -0.25,7.5 -0.75,1.5 1,1 -1,1 1,1 v 4 l -1,1 1,1 v 3 l -1,1 1,1 v 4 l -1,1 1,1 v 180 l 1,1 -1,1 v 2 l 1,1 -1,1 1,1 -1,1 1,1 v 1 l -1,1 1,1 -0.25,26.5 -0.5,8 -0.25,51.5 1,1 -1,1 1,1 -1,1 1,1 v 1 l -1,1 1,1 v 7 l -1,1 1,1 -1,1.5 -0.5,-1 -0.5,0.5 v 0.5 l -1,0.5 0.5,0.5 h 0.5"
   id="path610" />
<metadata
   id="metadata1225">
  <rdf:RDF>
    <cc:Work
       rdf:about="">
      <dc:title>illustrations</dc:title>
    </cc:Work>
  </rdf:RDF>
</metadata>
</svg>
