<?xml version="1.0" encoding="UTF-8" standalone="no"?>
<svg
   width="1016.745"
   height="607.00482"
   viewBox="-810 0 1016.745 607.00482"
   version="1.2"
   id="svg802"
   sodipodi:docname="header.svg"
   inkscape:version="1.2.2 (b0a84865, 2022-12-01)"
   inkscape:export-filename="header.png"
   inkscape:export-xdpi="300"
   inkscape:export-ydpi="300"
   xmlns:inkscape="http://www.inkscape.org/namespaces/inkscape"
   xmlns:sodipodi="http://sodipodi.sourceforge.net/DTD/sodipodi-0.dtd"
   xmlns="http://www.w3.org/2000/svg"
   xmlns:svg="http://www.w3.org/2000/svg"
   xmlns:rdf="http://www.w3.org/1999/02/22-rdf-syntax-ns#"
   xmlns:cc="http://creativecommons.org/ns#"
   xmlns:dc="http://purl.org/dc/elements/1.1/"><defs
   id="defs806" />
<sodipodi:namedview
   id="namedview804"
   pagecolor="#ffffff"
   bordercolor="#000000"
   borderopacity="0.25"
   inkscape:showpageshadow="2"
   inkscape:pageopacity="0.0"
   inkscape:pagecheckerboard="0"
   inkscape:deskcolor="#d1d1d1"
   showgrid="false"
   inkscape:zoom="0.61688807"
   inkscape:cx="467.66993"
   inkscape:cy="345.28144"
   inkscape:window-width="1100"
   inkscape:window-height="670"
   inkscape:window-x="306"
   inkscape:window-y="192"
   inkscape:window-maximized="0"
   inkscape:current-layer="svg802" />
<title
   id="title2">illustrations</title>

\n<path
   fill="none"
   stroke="#beeafe"
   stroke-width="35.5"
   stroke-linecap="butt"
   stroke-linejoin="bevel"
   opacity="0.500008"
   d="m 147.738,73.628986 -0.592,5.838 -0.682,2.156 0.068,2.192 -0.533,0.779 0.139,2.992 -0.676,2.961 0.041,4.928 -0.52,1.154 -0.577,5.569004 -0.485,0.738 -0.205,3.764 -0.385,0.573 -0.117,23.462 0.824,4.3 0.076,5.82 0.373,0.61 -0.037,8.25 -0.556,-1.13"
   id="path22" />
<path
   fill="none"
   stroke="#c7c7c6"
   stroke-width="32.6496"
   stroke-linecap="butt"
   stroke-linejoin="bevel"
   opacity="0.500008"
   d="m -310.88993,69.937516 -0.18117,13.20691 -1.1028,3.85029 0.0679,3.31811 -0.51751,1.16315 -0.42125,2.69017 -0.23276,15.080654 -0.41264,5.47608 -1.02352,2.41904 -0.63888,14.15033 0.0231,7.46876 -0.59398,2.82221 -0.45521,13.15349"
   id="path26" />
<path
   fill="none"
   stroke="#ffed75"
   stroke-width="30.0237"
   stroke-linecap="butt"
   stroke-linejoin="bevel"
   opacity="0.500008"
   d="m -287.69606,70.882806 0.58928,2.93605 0.19936,10.21938 -0.41628,7.14409 -0.39566,1.34216 0.0484,2.54917 -0.49844,2.32015 0.0243,3.035074 -0.34721,2.73899 -0.12318,6.69119 -0.23052,0.74073 -0.29414,7.12757 -0.84814,6.79642 0.0129,13.01718 -0.76144,8.51101 -0.11336,10.26478"
   id="path30" />
<path
   fill="none"
   stroke="#ffc38c"
   stroke-width="29.3392"
   stroke-linecap="butt"
   stroke-linejoin="bevel"
   opacity="0.500008"
   d="m -56.877012,83.870706 -7.166068,-0.004 -1.554509,0.38211 -10.734908,-0.29517 -1.305674,0.74905 -9.231492,0.16175 -2.041771,-1.04727 -11.120936,-0.11323 -2.21018,-0.79657 -7.41679,-0.27698 -0.49862,0.38211 -1.581,0.19105 -1.12685,1.10793 -0.92155,0.42862 -1.12401,2.37253 -0.31696,1.35661 0.35575,21.376104 -0.55254,6.00363 0.0511,2.95986 -0.51565,2.81835 0.036,2.40286 -0.41158,1.17363 -0.4655,10.62437 -0.43049,1.07154 -0.69447,4.19516 0.1211,1.36468 1.0417,0.70762 15.48171,-0.2224 0.7219,0.38414 3.41272,0.0303 0.650947,-0.42457 0.946143,-0.10109 3.663453,0.0303 3.810108,-1.24338 2.075833,0.0809 3.516803,-0.8087 5.342855,-0.62675 6.990085,-0.21228 1.839297,-0.8087 1.099415,-0.0505 3.373936,0.29316 7.52087,-0.0102 2.459965,0.8087 h 0.951818 l 2.450504,1.02099 4.700425,-0.0102 0.5639,-0.38413 2.026632,0.0505 3.311492,0.86936 3.49315,0.20217 1.415426,0.80871 5.784702,0.0202 0.358588,0.29316 1.753198,0.0303 1.787259,0.62675 1.570593,0.0505 2.786384,-0.0102 1.236605,-0.60654 2.615132,-0.0505 1.166592,-0.48522 9.7764678,-0.10109 0.6490524,-0.42457 0.9404635,-0.0909 4.0986802,0.0202 3.8971523,-1.09175 3.3029762,0.0202 4.7676016,1.7286 4.066512,0.19207 10.503104,-0.0202 4.525389,-0.33359 1.228091,-0.48522 13.104045,0.32348 7.967447,-0.54587 6.162213,0.0505 4.337108,0.59642 8.114099,-0.0202 0.627292,0.41446 2.391842,0.18196 10.902376,-0.0202 3.600065,-0.32349 1.743736,-0.54587 2.710693,0.0505 1.662369,0.61664 2.474156,0.0404 0.875181,0.54588 12.700988,-0.13141 0.3936,-0.28305 1.56681,-3.31569 -0.29804,-1.6073 0.19301,-10.4323 0.77962,-1.77915 0.17031,-5.76405 0.73326,-2.26842 -0.0151,-2.9073 1.00386,-2.62121 -0.0445,-2.7314 0.69636,-1.89238 -0.0644,-6.63845 0.41064,-0.61665 -0.48065,-8.310454 -0.84301,-1.71648 -1.41353,-1.55373 -3.02671,-1.60326 -3.95486,-0.92799 -2.31426,0.0394 -5.482886,1.04929 -8.7518,-0.32854 -7.889864,0.18904 -3.271754,-0.53273 -13.523185,-0.29216 -1.138207,-0.37706 -8.160461,0.0465 -1.576269,-0.54993 -6.457408,-0.0283 -0.47307,-0.21936 -12.335779,0.0556 -2.143954,0.27597 -16.879145,-0.30326 -16.75898491,0.18903 -5.36177769,0.52667 -18.9369994,0.33258 -8.346851,-0.0303 -4.146934,-0.4367 -25.540113,0.35482 -1.614116,0.42053 -1.0663,-0.1021 -2.125031,0.77029 -7.603185,0.30428 -3.339875,0.54891 -3.614257,1.02706 -7.790519,0.2507 -3.079688,0.94415 -5.10253,2.69097 -0.79855,0.93406 -0.76921,2.05613 0.08037,11.396684 2.196,8.26699 0.840169,5.46584 1.316084,5.35464 2.203556,5.46887 1.854436,1.14229 0.94614,-0.13141 1.682238,-1.24338 2.394681,-2.54743 1.773067,-4.19516 0.66703,-4.34274 -0.06434,-7.57454 -0.384133,-2.93661 0.06812,-5.82167 0.65189,-3.79485 2.055018,-4.575254 1.099415,-1.22822 1.38515,-0.74401 1.166591,0.372 0.728528,2.31391 0.703928,4.824944 -0.794758,10.11084 0.07758,8.24981 0.865718,4.59041 2.07394,3.73015 3.2727,3.00233 3.500719,1.14229 1.894173,-0.16174 2.582964,-0.78849 0.873287,-0.41446 0.611206,-0.75816 0.883696,-4.57929 -1.433403,-14.27063 0.288573,-6.92251 0.52227,-2.12892 2.064478,-3.306604 1.749414,-1.32728 2.92925,-0.32651 2.544171,1.951 1.023724,2.210804 0.977364,8.1477 -0.0076,4.35488 0.809896,9.0666 1.046431,4.47214 0.772051,2.21383 2.945336,4.78148 1.262151,1.2636 2.289659,1.44555 0.91681,-0.1213 0.926272,-0.78849 0.556331,-3.46733 -1.729545,-18.79734 0.09934,-4.3205 0.630129,-4.58031 0.145706,-0.89665 1.36528,-2.4615 1.512878,-0.98258 1.406912,-0.4094 1.684129,0.39121 1.587624,0.94415 1.373796,1.5042 1.632092,4.45496 2.963312,16.62192 1.796721,5.12517 0.966955,1.95101 1.68886,2.39578 2.386166,1.38492 1.673723,-0.56609 1.67183,-2.0521 0.601745,-6.28768 -0.563899,-5.3324 -1.789152,-9.67313 0.04163,-4.0314 0.544977,-3.24897 0.860041,-1.68919 1.037917,-1.0786 1.644392,-0.53881 0.942356,0.35887 1.7087288,1.35659 2.1959923,3.30054 2.4798337,7.19748 0.4153556,2.52012 1.3501423,3.82923 1.489225,7.64631 1.55261646,3.93233 1.56680854,2.28458 1.8042897,1.93079 1.8894423,0.98056 2.1903151,-0.36392 1.7172447,-2.15318 0.7219052,-2.79003 0.6007992,-4.94321 1.1732141,-13.02319 0.0057,-4.94928 0.288573,-1.80442 0.747451,-2.14105 0.720959,-1.07356 2.220591,-0.87037 1.340681,0.37504 1.606547,1.35559 2.210184,3.14687 1.917826,4.04253 2.720154,9.19194 3.418405,6.94274 1.662369,2.72937 2.786383,-22.58107 0.992502,-3.25504 1.488278,-0.80061 1.506256,2.3786 3.33136,15.06719 1.68413,4.02533 1.590462,2.58786 1.003855,0.89968 3.225393,1.80948 1.241336,-0.16174 1.454217,-0.87947 1.321758,-4.28614 1.293375,-12.6158 0.103129,-3.84944 0.785297,-4.47113 1.510986,-2.76982 1.512879,-0.60855 0.516592,0.23049 1.789151,2.19462 5.342855,19.63335 1.656692,4.52066 1.73806,2.08241 0.810842,0.0303 0.776782,-0.43468 1.216736,-2.34524 1.40975,-4.83606 1.122122,-6.1775 2.810037,-7.45424 1.858219,-3.58964 0.552547,1.36671 1.222413,5.83279 0.860988,7.26318 1.28202,6.79616 0.646214,1.62752 0.890318,0.0202 0.945194,-1.80948 5.317309,-16.70381 1.27729,-1.38491 1.060623,-0.50544 0.786243,0.55295 0.618776,1.35964 1.276343,9.46993 -0.07569,6.92859 0.751235,-0.73794 0.736097,-1.93382"
   id="path34" />
<path
   fill="none"
   stroke="#f29eff"
   stroke-width="27.8368"
   stroke-linecap="butt"
   stroke-linejoin="bevel"
   opacity="0.500008"
   d="m -145.14155,82.772316 0.57591,3.14354 0.28087,4.34186 0.21836,13.097914 -0.30671,0.35123 0.0333,2.34604 -0.43589,1.09708 0.0616,1.26547 -0.28088,0.67147 0.0909,10.00499 -0.15919,4.13113 -0.51591,3.44208 -0.0425,12.23118 -0.68093,1.31196 -3.5063,2.15905 -0.61426,-0.13429 -1.41768,0.8161 -5.11737,-0.0516 -4.50144,0.49587 -2.56702,-0.062 -0.76176,0.37189 -5.20737,0.062 -0.81594,0.16528 -1.77025,1.09502 -3.79551,-0.0929 -1.09932,0.46487 -4.91417,0.4442 -5.29679,-0.0413 -0.85371,0.18594 -1.31859,1.01238 -1.09231,-0.22726 -1.87559,0.38221 -1.80075,-0.0413 -2.74212,0.90907 -8.46748,-0.0413 -4.06005,-2.5206 -3.60515,-0.8471 -3.61166,0.031 -1.04197,0.35123 -1.37994,-0.0827 -0.38872,0.40289 -2.60327,-0.0929 0.20445,-1.58055 0.62616,-1.48758 0.10193,-2.01442 0.7942,-2.32434 0.0168,-1.74584 0.78553,-2.74788 0.29578,-8.30564 0.4544,-1.47621 0.15518,-6.44514 0.53966,-2.25305 -0.0776,-1.9824 0.2943,-2.59603 -0.0365,-6.68686 0.52773,-7.084584 -0.0402,-9.79115 0.94371,-1.89459 3.18352,-2.02165 9.04889,0.17665 2.08037,0.79027 13.36439,-0.0578 0.73185,-0.5723 0.69301,0.0692 0.75352,-0.48037 0.93879,0.10126 0.99447,-0.51962 19.46689,-0.35433 0.39005,-0.37086 2.85122,0.0816 2.10612,-0.29235 1.37102,-0.67044 1.29184,0.0919 0.54341,0.36259 0.96846,3.64973 -0.27337,6.58666 -0.28671,1.22106 0.0883,3.86873 -0.47007,1.14047 -0.42006,7.200284 -0.43256,1.71794 0.0891,1.95554 -0.42922,1.33986 -0.45339,4.48442 0.0333,14.53383 -2.13863,-2.34501 -0.42422,-1.28096 -4.55228,-19.86121 -0.68426,-3.35428 0.0583,-0.86878 -0.55924,-1.251014 -1.49271,-0.21591 -0.80594,0.622924 -1.56271,2.97619 -0.58257,2.41421 -1.61606,13.79727 -0.20419,3.22102 0.0766,8.76947 -0.58675,-3.23341 0.0491,-1.64253 -1.99443,-20.77029 -1.37685,-8.221964 -0.006,0.23037 -1.2385,0.2252 -1.30101,2.307814 -2.10278,8.60935 -1.4557,8.08766 -1.31852,11.22603 0.0982,4.88628 -0.59292,-2.06607 -0.16294,-4.27679 -1.42094,-14.4202 -2.29956,-10.23018 -1.19983,-4.101174 -0.56749,-1.00928 -1.50121,0.43078 -1.00246,1.78716 -2.09929,9.146534 -0.46465,7.15793 -2.40983,21.34156 0.10202,1.61153 -0.65684,-1.57022 -1.32151,-6.35318 -1.90035,-25.60801 -0.87136,3.98753 -0.0424,2.77577"
   id="path50" />
<path
   fill="none"
   stroke="#acff85"
   stroke-width="37.7108"
   stroke-linecap="butt"
   stroke-linejoin="bevel"
   opacity="0.500008"
   d="m -251.29999,75.823126 0.21344,12.10194 -0.73374,4.80028 0.0708,5.08253 -1.13142,4.498094 -0.0799,3.28031 -0.59235,2.21014 -0.29601,8.30799 -0.4987,1.6237 -0.82868,10.54307 -0.68317,2.54326 0.0222,6.90172 -1.35744,9.93368 0.16916,7.46023"
   id="path62" />
<path
   fill="none"
   stroke="#beeafe"
   stroke-width="30"
   stroke-linecap="butt"
   stroke-linejoin="bevel"
   opacity="0.500008"
   d="m -111.326,289.11499 -0.023,0.23 4.073,1.44 7.13,-0.11 2.675997,-1.19 2.234,-0.22 0.744,-0.52 6.047,-0.04 0.205,1.19 0.75,1.32 -0.25,2.11 0.552,2.84 0.074,8.3 0.368,0.66 -0.041,7.07 -3.248,1.84 -0.601,-0.18 -0.46,0.33 -1.379,0.01 -1.571,1.02 -0.489,-0.07 -3.978,1.74 -4.076997,0.54 -0.47,-3.38 -0.746,-0.95 0.065,-0.45 -0.914,-1.56 0.144,-3.81 0.755,-1.07 -0.007,-0.85 0.37,-0.54 0.068,-6.09 -0.013,2.09 -0.375,1.34 0.257,6.91"
   id="path646" />
<path
   fill="none"
   stroke="#ffc38c"
   stroke-width="30"
   stroke-linecap="butt"
   stroke-linejoin="bevel"
   opacity="0.500008"
   d="m -170.645,349.53499 0.309,-0.25 0.209,0.3 3.439,0.75 11.75,-0.1 0.569,0.36 1.877,-0.1 1.286,0.54 25.273,-0.24 0.435,0.35 2.102,0.27 16.425,-0.19 5.713,-0.7 0.816,-0.52 4.860997,0.09 0.819,-0.35 4.856,-0.2 0.482,-0.38 1.922,0.08 1.475,2.9 -0.069,3.75 -0.521,0.69 0.087,2.13 -0.331,0.46 0.048,1.44 -0.334,0.27 -0.121,0.86 -0.268,12.25 -14.803997,-0.25 -0.7,-0.5 -9.475,-0.06 -2.106,-0.5 -1.777,0.1 -1.046,-0.37 -7.413,0.07 -1,0.35 -1.991,-0.09 -0.367,0.45 -0.788,0.09 -10.167,-0.1 -0.543,0.37 -5.174,-0.08 -2.019,-0.14 -0.602,-0.35 -3.105,-0.09 -0.934,-0.33 -4.531,0.06 -2.327,-0.14 -0.557,-0.33 -4.548,-0.09 h 0.222 l -0.975,-1.65 -0.344,-1.63 -0.026,-9.19 1.772,-11.95"
   id="path650" />
<path
   fill="none"
   stroke="#f29eff"
   stroke-width="30"
   stroke-linecap="butt"
   stroke-linejoin="bevel"
   opacity="0.500008"
   d="m -189.5483,409.90499 2.763,-1.31 2.8996,-0.86 1.5263,-0.91 2.6164,0.15 0.933,0.69 1.006,-0.07 0.739,0.43 7.197,-0.05 0.313,0.33 1.463,-0.03 0.894,0.33 3.828,-0.07 1.053,-0.39 11.874,-0.04 1.565,-0.48 23.646,0.06 2.037,-0.32 1.03,-0.5 14.909,-0.21 4.121,0.04 0.299,0.32 4.878997,0.38 0.678,0.34 9.698,0.09 1.566,0.73 1.081,-0.04 1.136,2.06 -0.119,3.07 -0.635,1.5 0.089,1.49 -0.388,0.74 0.031,0.81 -0.477,0.64 0.134,0.65 -0.651,4.3 -2.234,0.88 -3.989,-0.07 -1.011,-0.48 -1.368,-0.1 -8.761997,0.01 -0.867,0.39 -13.877,-0.1 -1.611,-0.51 -2.061,-0.07 -0.69,-0.54 -1.93,-0.34 -9.986,0.05 -3.192,-0.46 -9.49,0.04 -3.111,0.95 -7.249,0.17 -0.874,0.38 -3.867,-0.1 -2.306,0.64 -2.791,-0.09 -0.588,0.38 -17.7617,-0.08 -1.1206,0.36 0.2667,-0.09 -0.4879,-0.93 0.1271,-2.15 -0.3522,-0.99 0.044,-6.4 0.7501,-1.01 -0.0265,-1.62 -1.258,-2.38 0.1079,-0.7"
   id="path654" />
<path
   fill="none"
   stroke="#acff85"
   stroke-width="30"
   stroke-linecap="butt"
   stroke-linejoin="bevel"
   opacity="0.500008"
   d="m -192.2893,458.65499 4.2794,-1.02 3.3447,-0.24 0.6137,-0.35 5.4295,-0.35 0.742,-0.57 5.36,0.15 2.831,-0.75 4.762,-0.3 10.831,0.05 1.26,0.85 h 2.686 l 0.746,0.32 3.179,0.25 0.534,0.49 2.439,0.09 10.979,-0.02 1.6,-0.32 5.143,0.35 25.966997,0.11 1.868,-0.46 2.812,0.03 1.111,-0.32 6.751,0.04 0.705,1.66 -0.179,13.49 -0.382,1.83 0.19,5.59 0.487,0.86 -2.884,1.41 -6.007,-0.61 -13.014997,-0.42 -0.506,-0.39 -10.379,0.1 -0.848,0.39 -6.938,-0.11 -0.897,0.39 -1.574,-0.13 -0.896,0.38 -8.773,-0.08 -3.696,-0.46 -0.845,-0.5 -8.131,-0.16 -2.611,-0.46 -0.852,-0.5 -1.754,-0.04 -0.571,-0.34 -4.788,0.07 -1.449,-0.16 -1.158,-0.5 -3.314,0.11 -2.047,0.63 -8.66,-0.37 -0.074,0.25 -1.349,0.02 -0.7534,0.34 -4.7122,-0.03 -1.0199,-0.71 -0.7659,-1.15 0.073,-3.1 0.3686,-1.06 -0.0884,-1.46 0.3481,-0.86 -0.0555,-1.51 0.4965,-2.57 0.0959,-10.96"
   id="path658" />
<path
   fill="none"
   stroke="#ffed75"
   stroke-width="30"
   stroke-linecap="butt"
   stroke-linejoin="bevel"
   opacity="0.500008"
   d="m -123.343,521.29499 7.849,-0.26 1.433,-0.5 1.93,-0.08 15.357997,0.01 1.233,-0.55 4.068,-0.01 0.737,-0.37 5.323,-0.47 1.618,-0.78 0.311,0.02 -0.142,2.12 -0.451,2.33 -0.507,0.7 -0.072,1.29 -0.42,0.56 -0.177,2.29 -0.597,2.01 0.055,1.32 -0.92,2.63 -0.2,7.13 -0.595,0.56 -14.394997,-0.21 -0.869,-0.33 -12.626,0.05 -1.115,-0.47 -6.869,0.05 -0.102,-8.02 -0.33,-1.16 0.349,-7.49 -0.723,1.27 0.035,0.7 -0.458,1 0.139,1.83 -0.366,0.73 0.051,2.67"
   id="path662" />
<path
   fill="none"
   stroke="#c7c7c6"
   stroke-width="30"
   stroke-linecap="butt"
   stroke-linejoin="bevel"
   opacity="0.500008"
   d="m -123.802,577.78499 2.804,-0.57 5.609,-0.27 1.992,-0.77 3.712,-0.21 2.173,-0.85 0.557,0.05 1.722,-0.91 0.842,0.12 2.007,-0.73 1.438,0.07 0.68,-0.35 10.161997,0.06 -0.278,-0.01 0.939,0.83 0.699,1.68 -0.124,2.83 -2.358,4.38 0.109,7.41 -0.212,0.9 -1.18,0.48 -16.743997,0.08 -3.124,-1.14 -3.85,0.15 0.26,-0.1 0.095,-1.13 -0.101,-0.92 -0.358,-0.37 0.066,-0.71 -0.696,-1.12 0.279,-6.21 -0.464,-1.3 0.04,-4.02 -0.382,-0.6"
   id="path670" />
<path
   fill="none"
   stroke="#000000"
   stroke-width="4"
   stroke-linecap="round"
   stroke-linejoin="round"
   d="m -788.7,72.381986 0.347,0.105 -0.298,-0.068 0.019,0.28 0.786,2.942 -0.157,19.746 0.889,3.949 0.153,3.373004 0.634,4.1 -0.078,20.896 0.817,6.25 -0.102,13.12 -0.538,1.66 -0.01,6.88"
   id="path6" />
<path
   fill="none"
   stroke="#000000"
   stroke-width="4"
   stroke-linecap="round"
   stroke-linejoin="round"
   d="m -788.848,70.244986 h 952"
   id="path10" />
<path
   fill="none"
   stroke="#000000"
   stroke-width="4"
   stroke-linecap="round"
   stroke-linejoin="round"
   d="m -790.848,158.24499 h 950"
   id="path14" />
<path
   fill="none"
   stroke="#000000"
   stroke-width="4"
   stroke-linecap="round"
   stroke-linejoin="round"
   d="m 161.9,73.065986 -0.072,17.267 -0.658,2.762 0.418,13.995004 -0.05,15.919 -0.471,7.186 -0.15,10.51 0.038,15.37 0.209,0.24"
   id="path18" />
<path
   fill="none"
   stroke="#000000"
   stroke-width="4"
   stroke-linecap="round"
   stroke-linejoin="round"
   d="m -301.0359,71.641986 -0.0738,4.101 -0.3848,2.293 -0.1203,39.246004 -0.3518,3.097 -0.3575,14.156 0.2328,25.66"
   id="path38" />
<path
   fill="none"
   stroke="#000000"
   stroke-width="4"
   stroke-linecap="round"
   stroke-linejoin="round"
   d="m -275.53824,73.126986 0.20048,2.293 -0.58829,22.022 -0.0365,35.493004 -0.53187,4.54 -0.33623,7.84 0.027,8.58 0.27374,1.21 0.0763,-0.49"
   id="path42" />
<path
   fill="none"
   stroke="#000000"
   stroke-width="4"
   stroke-linecap="round"
   stroke-linejoin="round"
   d="m 127.315,74.264986 0.459,2.234 -0.586,3.659 0.219,9.324 0.386,0.977 0.218,2.875 0.061,11.690004 0.622,5.127 -0.026,29.774 -0.351,2.1 -0.147,5.6 -0.302,0.69 0.163,10.58"
   id="path46" />
<path
   fill="none"
   stroke="#000000"
   stroke-width="4"
   stroke-linecap="round"
   stroke-linejoin="round"
   d="m -230.9255,71.642986 -0.0395,2.479 -0.8097,5.673 -0.1132,10.934 -0.375,3.073 -0.0412,56.553004 0.4962,5.31 0.3415,-1.94"
   id="path54" />
<path
   fill="none"
   stroke="#000000"
   stroke-width="4"
   stroke-linecap="round"
   stroke-linejoin="round"
   d="m -131.072,73.929986 0.425,-1.66 0.532,-0.715 0.37,1.405 -0.078,1.6 -1.164,5.282 0.075,36.166004 0.167,12.197 0.38,1.65 0.157,3.6 0.138,16.94 0.927,2.43 0.101,2.51"
   id="path58" />
<path
   fill="none"
   stroke="#000000"
   stroke-width="4"
   stroke-linecap="round"
   stroke-linejoin="round"
   d="m -329.0093,71.235986 0.9309,4.479 -0.5233,10.365 0.2112,5.961 -0.4109,5.054 0.6093,0.851 0.3921,2.368004 -2.0962,32.111 0.3369,0.62 -0.2803,4.61 0.3028,1.03 -0.1717,5.21 0.3216,0.77 -0.1664,0.95 0.2645,1.32 -0.7835,12.27"
   id="path70" />
<path
   fill="none"
   stroke="#000000"
   stroke-width="4"
   stroke-linecap="round"
   stroke-linejoin="round"
   d="m 168.704,33.829986 -3.182,3.042 -1.87,3.89 -0.49,1.97 0.486,4.735 1.96,3.396 1.764,0.674 1.821,-0.114 2.78,-1.402 2.604,-3.406 1.876,-7.411 -0.114,-1.665 -1.109,-3.061 -1.07,-1.214 -0.337,-1.352 -0.943,-0.786 -2.185,-0.916"
   id="path86" />
<path
   fill="none"
   stroke="#000000"
   stroke-width="4"
   stroke-linecap="round"
   stroke-linejoin="round"
   d="m 126.768,32.515986 -0.258,-0.129 0.484,2.212 -0.086,13.896 0.453,5.29"
   id="path90" />
<path
   fill="none"
   stroke="#000000"
   stroke-width="4"
   stroke-linecap="round"
   stroke-linejoin="round"
   d="m -141.816,40.652986 0.28,0.138 -0.244,-0.055 0.163,-0.351 1.825,-3.137 1.4,-1.321 1.496,-0.6 0.335,0.191 1.055,4.399 -1.245,5.233 -3.537,8.854 -1.858,3.012 -0.338,1.404 1.381,0.623 2.71,-0.18 1.603,-0.833 3.367,-0.685"
   id="path94" />
<path
   fill="none"
   stroke="#000000"
   stroke-width="4"
   stroke-linecap="round"
   stroke-linejoin="round"
   d="m -121.248,34.681986 -2.173,2.226 -3.393,5.432 -1.969,5.943 -0.214,1.345 0.395,3.293 0.825,1.996 1.28,0.965 2.349,0.914 1.636,-0.162 4.099,-1.51 2.593,-3.596 0.829,-4.041 -0.673,-2.239 -4.846,-5.93 -2.349,-1.196"
   id="path98" />
<path
   fill="none"
   stroke="#000000"
   stroke-width="4"
   stroke-linecap="round"
   stroke-linejoin="round"
   d="m -220.9738,37.607986 1.7264,-0.171 1.2576,0.767 0.6611,2.229 -0.0518,1.053 -3.7611,9.26 -3.2035,5.318 0.2206,1.699 0.8575,1.077 0.983,0.305 3.1811,-0.591 -0.008,-0.513 0.8595,-1.581 -0.1033,-0.834 -1.8974,-3.533 -2.635,-3.733 -1.9496,-1.741 -0.3099,-0.88 0.1359,-1.861 1.1386,-3.156 0.8682,-1.285"
   id="path102" />
<path
   fill="none"
   stroke="#000000"
   stroke-width="4"
   stroke-linecap="round"
   stroke-linejoin="round"
   d="m -350.1918,45.334986 3.2788,-2.301 1.5112,-1.481 3.7995,-1.008 1.4886,3.059 -0.1189,1.148 -3.0202,5.847 1.1308,-0.942 3.6087,-1.58 1.4517,0.516 0.8328,2.826 -1.0572,2.562 -4.1203,4.212 -1.1437,0.408 -1.8545,-0.112"
   id="path106" />
<path
   fill="none"
   stroke="#000000"
   stroke-width="4"
   stroke-linecap="round"
   stroke-linejoin="round"
   d="m -331.3824,45.813986 1.8256,-2.607 0.985,-0.86 2.7687,-1.07 1.0467,2.629 0.226,2.403 -1.4214,5.897 -2.814,6.443 0.0909,0.769 1.3575,0.416 8.1629,-0.084"
   id="path110" />
<path
   fill="none"
   stroke="#000000"
   stroke-width="4"
   stroke-linecap="round"
   stroke-linejoin="round"
   d="m -286.66727,43.587986 1.75701,-1.321 2.12281,-2.366 2.88714,-0.945 0.74359,0.586 0.71741,2.668 -3.38574,6.552 2.5932,-1.143 2.29883,0.041 1.73791,3.713 -0.13006,1.342 -1.74561,5.541 -1.26727,2.014 -1.62714,0.153 -2.13708,1.042 -1.8927,-0.158"
   id="path114" />
<path
   fill="none"
   stroke="#000000"
   stroke-width="4"
   stroke-linecap="round"
   stroke-linejoin="round"
   d="m -264.8568,42.559986 -3.6425,4.716 -2.0983,4 -1.95884,4.936 -0.32446,1.569 0.22034,2.22 1.41626,2.227 1.173,0.518 1.909,-0.233 1.6749,-0.71 1.7112,-1.252 1.7466,-1.828 0.9937,-1.666 1.319,-5.755 -0.1443,-2.242 -1.1996,-3.595 -1.2644,-1.496"
   id="path118" />
<path
   fill="none"
   stroke="#000000"
   stroke-width="4"
   stroke-linecap="round"
   stroke-linejoin="round"
   d="m -303.6109,61.454986 0.1619,-0.011"
   id="path122" />
<path
   fill="none"
   stroke="#000000"
   stroke-width="4"
   stroke-linecap="round"
   stroke-linejoin="round"
   d="m -302.7206,51.891986 -0.0385,0.139"
   id="path126" />
<path
   fill="none"
   stroke="#000000"
   stroke-width="4"
   stroke-linecap="round"
   stroke-linejoin="round"
   d="m -302.1169,42.382986 -0.0703,0.058"
   id="path130" />
<path
   fill="none"
   stroke="#000000"
   stroke-width="4"
   stroke-linecap="round"
   stroke-linejoin="round"
   d="m -303.5295,33.310986 -0.1818,-0.022"
   id="path134" />
<path
   fill="none"
   stroke="#000000"
   stroke-width="4"
   stroke-linecap="round"
   stroke-linejoin="round"
   d="m -324.161,10.119986 1.8378,-3.1859998 1.6665,-1.096 1.6705,-1.965 3.9205,-1.873 0.4672,0.141 1.5896,3.131 -1.2186,3.96 -2.1467,2.5479998 -0.6149,1.762 2.5794,-1.418 1.5975,0.226 1.2689,0.769 0.9796,2.179 -0.0682,0.683 -1.4627,2.607 -3.2319,2.989 -1.4385,0.536 -3.8014,-0.275"
   id="path138" />
<path
   fill="none"
   stroke="#000000"
   stroke-width="4"
   stroke-linecap="round"
   stroke-linejoin="round"
   d="m -301.3656,2.5759862 0.2918,4.458 -0.0542,11.6329998 0.3047,2.404 0.3631,0.433"
   id="path142" />
<path
   fill="none"
   stroke="#000000"
   stroke-width="4"
   stroke-linecap="round"
   stroke-linejoin="round"
   d="m -239.3027,47.770986 2.8816,-5.122 3.1933,-2.593 1.7495,-0.836 0.4905,0.278 0.6762,3.206 -3.4625,9.418 -0.9111,1.653 -1.3815,3.926 -1.4624,2.579 0.2188,1.389 1.7149,0.716 2.1782,-0.127 6.0288,-2.076 0.9086,-0.635"
   id="path146" />
<path
   fill="none"
   stroke="#000000"
   stroke-width="4"
   stroke-linecap="round"
   stroke-linejoin="round"
   d="m -791.88,33.162986 -1.991,-0.006 -5.216,1.354 -3.53,2.621 -0.886,0.932 -1.358,2.427 -3.139,9.517 0.377,3.728 1.372,5.049 3.327,2.609 2.616,-0.167 3.449,-1.214 2.49,-2.122 0.917,-2.231 -1.911,-0.988 -3.096,-0.976 -6.062,2.094 -1.247,-0.161 0.543,-0.256"
   id="path150" />
<path
   fill="none"
   stroke="#000000"
   stroke-width="4"
   stroke-linecap="round"
   stroke-linejoin="round"
   d="m -779.98,32.847986 -2.702,6.74 -0.934,5.485 0.11,3.45 0.92,0.655 4.322,-1.961 2.394,-2.408 1.471,-0.669 3.103,-2.838 1.846,-5.357 -0.2,-1.341 -1.572,2.422 -0.629,1.631 -1.043,9.53 0.098,9.777 0.26,0.089 0.133,-0.684"
   id="path154" />
<path
   fill="none"
   stroke="#000000"
   stroke-width="4"
   stroke-linecap="round"
   stroke-linejoin="round"
   d="m -787.266,170.96499 1.069,2.86 2.594,4.88 1.672,2.45 1.298,1.02 0.856,2.06 0.893,0.27 4.655,4.1 2.012,1.07 1.024,1.17 1.906,1.38 11.744,3.8 1.094,-0.08 1.361,0.64 0.986,-0.03 2.614,0.92 h 2.163 l 1.445,0.49 1.145,-0.01 7.24,1.89 13.359,0.01 1.015,0.35 2.73,-0.06 2.128,0.5 9.759,-0.09 5.553,-1.39 11.204,-0.01 9.481,-2.82 1.32,-0.97 2.588,-0.87 0.875,-0.6 12.012,-3.76 0.873,0.08 6.714,-1.48 1.15,0.11 6.062,-1.95 1.441,-0.06 2.929,-0.93 2.941,-0.36 2.959,-1.05 2.194,-0.18 2.175,-0.81 3.461,-0.28 3.052,-1.14 1.283,0.14 1.778,-0.65 9.482,0.12 3.01,0.99 8.936,0.16 5.752,2 1.988,1.02 1.355,0.05 1.595,0.99 1.218,0.29 2.676,1.51 0.103,0.38 3.728,1.81 2.957,2.96 0.839,1.52 2.463,2.24 0.717,0.12 1.739,2.16 0.521,0.08 0.045,0.85 1.562,-3.08 0.2,-1.05 3.216,-6 6.494,-3.05 2.505,-0.52 4.25,0.05 2.652,1.07 1.224,-0.09 1.755,0.66 1.134,-0.09 0.965,0.33 6.028,3.05 2.906,0.83 6.713,3.11 3.997,0.93 1.642,-0.09 2.01,0.82 1.303,-0.12 0.302,0.32 h 1.155 l 2.38,1.35 1.261,0.25 3.161,1.44 1.892,-0.14 3.425,0.64 2.355,-0.06 3.197,0.95 3.359,0.22 1.996,0.94 4.106,0.16 0.832,0.34 2.613,-0.07 2.088,0.69 1.939,-0.14 0.876,0.38 9.96,-0.36 1.617,0.79 5.445,-0.08 1.199,-0.37 6.946,0.09 1.296,0.66 10.22,-0.1 4.062,-0.34 6.045,0.06 0.627,-0.36 3.814,-0.39 7.16,0.05 3.616,-0.27 0.484,-0.4 5.15,0.11 0.473,-0.36 2.484,0.09 4.047,-1.08 3.938,-1.62 2.123,-0.32 7.692,0.04 5.026,-1.82 1.498,-0.36 5.194,-0.2 0.816,-0.54 2.403,-0.7 0.868,0.09 1.734,-0.82 h 1.716 l 2.049,-0.83 1.3587,-0.01 1.9772,-1 3.4931,-0.57 1.8908,-0.65 0.8506,0.06 2.0174,-1.12 4.6431,-1.21 10.3339,-5.13 0.3517,-0.68 3.6616,-3.51 5.7491,-2.97 1.0261,-0.92 1.4911,-2.91 3.766,-3.32 1.0393,-1.18 0.1584,-0.68 0.9541,-0.77 0.2736,-0.85 1.3531,-1.16 0.4009,-0.94 1.4315,-1.48"
   id="path158" />
<path
   fill="none"
   stroke="#000000"
   stroke-width="4"
   stroke-linecap="round"
   stroke-linejoin="round"
   d="m -290.848,169.24499 v 364"
   id="path250"
   style="stroke:#ffed76;stroke-opacity:0.501961" />
<path
   fill="none"
   stroke="#000000"
   stroke-width="4"
   stroke-linecap="round"
   stroke-linejoin="round"
   d="m -318.9692,166.58499 -1.2479,414.27"
   id="path254"
   style="stroke:#c7c7c5;stroke-opacity:0.501961" />
<path
   fill="none"
   stroke="#000000"
   stroke-width="4"
   stroke-linecap="round"
   stroke-linejoin="round"
   d="m -259.6297,170.71499 v 291.19"
   id="path262"
   style="stroke:#abff85;stroke-opacity:0.501961" />
<path
   fill="none"
   stroke="#000000"
   stroke-width="4"
   stroke-linecap="round"
   stroke-linejoin="round"
   d="m -256.848,464.24499 h 41"
   id="path266"
   style="stroke:#abff85;stroke-opacity:0.501961" />
<path
   fill="none"
   stroke="#000000"
   stroke-width="4"
   stroke-linecap="round"
   stroke-linejoin="round"
   d="m -290.848,535.24499 h 131"
   id="path270"
   style="stroke:#ffed76;stroke-opacity:0.501961" />
<path
   fill="none"
   stroke="#000000"
   stroke-width="4"
   stroke-linecap="round"
   stroke-linejoin="round"
   d="m -316.848,584.24499 h 166"
   id="path274"
   style="stroke:#c7c7c5;stroke-opacity:0.501961" />
<path
   fill="none"
   stroke="#000000"
   stroke-width="4"
   stroke-linecap="round"
   stroke-linejoin="round"
   d="m -165.653,343.45499 2.758,17.98 -0.148,7.84"
   id="path278" />
<path
   fill="none"
   stroke="#000000"
   stroke-width="4"
   stroke-linecap="round"
   stroke-linejoin="round"
   d="m -142.868,357.16499 3.557,1.15 2.795,-0.24 5.362,-1.79"
   id="path282" />
<path
   fill="none"
   stroke="#000000"
   stroke-width="4"
   stroke-linecap="round"
   stroke-linejoin="round"
   d="m -111.255,342.68499 1.281,9.02 -0.228,7.71 0.19,11.7"
   id="path286" />
<path
   fill="none"
   stroke="#000000"
   stroke-width="4"
   stroke-linecap="round"
   stroke-linejoin="round"
   d="m -91.146003,344.31499 -3.825,-1.04 -1.059,0.72 -3.554,6.14 -0.401,2.77 0.183,3.2 1.528,2.96 1.346,0.81 2.759,-0.28 3.41,-1.21 4.336,-2.59 2.951,-5.04 0.962,-2.49 -0.286,-0.68 -1.572,1.9 -0.638,2.59 0.291,3.56 -0.08,13.82 0.356,2.5 -0.081,2.85"
   id="path290" />
<path
   fill="none"
   stroke="#000000"
   stroke-width="4"
   stroke-linecap="round"
   stroke-linejoin="round"
   d="m -84.775003,352.37499 0.226,-0.04 -0.872,-2.26 -1.314,-2.76 -3.277,-1.48"
   id="path294" />
<path
   fill="none"
   stroke="#000000"
   stroke-width="4"
   stroke-linecap="round"
   stroke-linejoin="round"
   d="m -62.337003,351.64499 h 0.003"
   id="path298" />
<path
   fill="none"
   stroke="#000000"
   stroke-width="4"
   stroke-linecap="round"
   stroke-linejoin="round"
   d="m -60.049003,365.60499 0.059,-0.4"
   id="path302" />
<path
   fill="none"
   stroke="#000000"
   stroke-width="4"
   stroke-linecap="round"
   stroke-linejoin="round"
   d="m -16.368003,338.62499 0.597,19.13 1.131,15.91"
   id="path306" />
<path
   fill="none"
   stroke="#000000"
   stroke-width="4"
   stroke-linecap="round"
   stroke-linejoin="round"
   d="m -25.316003,358.39499 6.374,-1.14 2.581,-0.94 5.829,-3.24 3.2899997,-2.37"
   id="path310" />
<path
   fill="none"
   stroke="#000000"
   stroke-width="4"
   stroke-linecap="round"
   stroke-linejoin="round"
   d="m 3.8149967,360.37499 4.965,4.93 1.9760003,1.18 0.514,0.84"
   id="path314" />
<path
   fill="none"
   stroke="#000000"
   stroke-width="4"
   stroke-linecap="round"
   stroke-linejoin="round"
   d="m 5.5759967,397.43499 2.593,-6.92 2.0990003,-7.18 3.022,-11.55 1.198,-6.61 2.557,-8.92 0.781,-1.57"
   id="path318" />
<path
   fill="none"
   stroke="#000000"
   stroke-width="4"
   stroke-linecap="round"
   stroke-linejoin="round"
   d="m 27.430997,356.87499 -0.468,1.6 0.107,15.57 -1.991,16.03 0.09,2.11 -0.509,1.3 0.109,1.43 -0.463,-1.03 0.009,-5.21 0.915,-7.7 1.763,-9.27 1.408,-4.86 1.872,-4.61 2.712,-5.7 1.793,-2.42 0.633,-0.52 0.421,0.09 0.796,3.07 -0.044,1.21 -2.017,5.43 -1.711,2.95 -1.424,1.11 -0.046,0.46 0.218,-0.16"
   id="path322" />
<path
   fill="none"
   stroke="#000000"
   stroke-width="4"
   stroke-linecap="round"
   stroke-linejoin="round"
   d="m 47.688997,358.95499 1.052,0.36 2.25,-0.02 1.733,-0.59 2.915,-1.92 1.116,-1.62 0.669,-1.99 -0.237,-0.7 -1.686,-1.94 -0.57,-0.14 -1.224,0.37 -3.039,1.61 -1.815,2.68 -1.023,2.42 0.313,2.22 1.679,5.29 1.624,1.23 0.935,1.19 0.906,0.31 3.377,-1.05"
   id="path326" />
<path
   fill="none"
   stroke="#000000"
   stroke-width="4"
   stroke-linecap="round"
   stroke-linejoin="round"
   d="m 98.970997,354.85499 1.319003,7.07 -0.066,3.29 0.57,1.01 0.052,1.41"
   id="path330" />
<path
   fill="none"
   stroke="#000000"
   stroke-width="4"
   stroke-linecap="round"
   stroke-linejoin="round"
   d="m 102.911,344.71499 -0.092,0.04"
   id="path334" />
<path
   fill="none"
   stroke="#000000"
   stroke-width="4"
   stroke-linecap="round"
   stroke-linejoin="round"
   d="m 114.249,355.57499 -0.936,6.43 0.119,2.9 2.107,-3.51 0.608,-1.57 2.654,-4.08 2.221,-2.83 1.033,-0.54 1.185,0.19 1.486,1.36 0.985,4.39 0.91,2.42 -0.146,3.29"
   id="path338" />
<path
   fill="none"
   stroke="#000000"
   stroke-width="4"
   stroke-linecap="round"
   stroke-linejoin="round"
   d="m 143.038,350.09499 -4.332,1.45 -2.053,1.49 -2.581,4.98 -0.342,1.09 0.19,1.94 1.411,2.06 1.325,-0.08 2.379,-1.37 1.425,-1.73 1.073,-2.05 1.748,-11.89 -0.186,-4.87 0.574,-2.81 0.026,-3.89 0.367,9.47 1.028,12.03 1.395,5.79 1.002,1.53 1.477,-0.82"
   id="path342" />
<path
   fill="none"
   stroke="#000000"
   stroke-width="4"
   stroke-linecap="round"
   stroke-linejoin="round"
   d="m 158.816,356.14499 2.669,-0.95 2.581,-2.56 0.716,-2.39 -0.83,-1.46 -1.887,-0.61 -2.564,2.44 -1.123,1.76 -1.588,3.54 0.198,4.72 1.368,4.61 2.194,1.84 2.767,-0.16 1.277,-0.53 1.718,-1.29"
   id="path346" />
<path
   fill="none"
   stroke="#000000"
   stroke-width="4"
   stroke-linecap="round"
   stroke-linejoin="round"
   d="m 172.027,350.63499 0.473,1.27 6.393,10.26 2.166,2.14 0.859,1.5 2.905,2.54 0.87,2.03"
   id="path350" />
<path
   fill="none"
   stroke="#000000"
   stroke-width="4"
   stroke-linecap="round"
   stroke-linejoin="round"
   d="m 172.022,370.79499 10.625,-12.82 2.928,-4.4"
   id="path354" />
<path
   fill="none"
   stroke="#000000"
   stroke-width="4"
   stroke-linecap="round"
   stroke-linejoin="round"
   d="m -186.9361,410.30499 2.8652,-3.41 4.0619,-1.54 0.807,0.77 1.217,4.44 -0.061,1.12 -1.336,4.37 -2.6318,5.51 -1.1535,1.54 -1.4574,1.28 -0.3132,0.88 0.2297,1.02 2.3368,0.97 2.6894,-0.18 5.949,-1.98"
   id="path358" />
<path
   fill="none"
   stroke="#000000"
   stroke-width="4"
   stroke-linecap="round"
   stroke-linejoin="round"
   d="m -165.729,409.09499 -1.432,2.25 -1.448,3.84 -0.213,1.79 0.333,4.34 1.398,3.25 1.315,1.1 0.817,0.23 1.435,-0.24 2.239,-0.85 1.561,-1.25 0.985,-1.83 1.337,-4.32 -0.062,-1.25 -1.915,-5.07 -2.299,-2.96 -1.82,-0.51"
   id="path362" />
<path
   fill="none"
   stroke="#000000"
   stroke-width="4"
   stroke-linecap="round"
   stroke-linejoin="round"
   d="m -141.761,417.64499 1.976,0.59 9.75,-0.25"
   id="path366" />
<path
   fill="none"
   stroke="#000000"
   stroke-width="4"
   stroke-linecap="round"
   stroke-linejoin="round"
   d="m -115.498,409.38499 -0.291,-0.01 0.671,-1.12 2.197,-2.88 0.844,-0.68 3.432,-1.15 1.307,1.13 0.91,4.32 -2.503,7.46 -2.866,6.71 -1.062,1.92 -1.409,1.66 0.46,1.49 1.396,0.54 3.726,-0.13 5.166,-1.65 1.844,-0.02"
   id="path370" />
<path
   fill="none"
   stroke="#000000"
   stroke-width="4"
   stroke-linecap="round"
   stroke-linejoin="round"
   d="m -65.385003,412.51499 0.022,-0.06"
   id="path374" />
<path
   fill="none"
   stroke="#000000"
   stroke-width="4"
   stroke-linecap="round"
   stroke-linejoin="round"
   d="m -64.544003,425.75499 0.076,-0.07"
   id="path378" />
<path
   fill="none"
   stroke="#000000"
   stroke-width="4"
   stroke-linecap="round"
   stroke-linejoin="round"
   d="m -24.220003,413.11499 -0.04,2.2 0.786,3.64 0.074,2.24 1.635,7.4 1.637,1.43 2.332,1.25 2.213,-0.84 1.36,-0.99 0.996,-1.45 1.31,-6.22 -0.175,-2.81 -0.375,-1.09 0.108,-4.86"
   id="path382" />
<path
   fill="none"
   stroke="#000000"
   stroke-width="4"
   stroke-linecap="round"
   stroke-linejoin="round"
   d="m -0.13200327,413.70499 -0.031,8.61 0.706,4.22 0.014,4.32 3.78199997,-9.3 3.309,-5 1.241,-0.62 0.827,0.67 0.8180003,2.7 0.886,4.51 -0.18,4.01 0.428,1.48"
   id="path386" />
<path
   fill="none"
   stroke="#000000"
   stroke-width="4"
   stroke-linecap="round"
   stroke-linejoin="round"
   d="m 23.788997,417.25499 -0.996,5.82 -2.24,22.76 -0.154,7.5 0.198,-7.23 1.412,-13.94 2.077,-9.35 2.3,-5.26 1.777,-2.74 0.839,-0.51 0.551,-0.09 1.281,0.56 0.879,1.38 0.96,4.93 -0.048,1.71 -0.819,2.63 -1.888,3.31 -1.394,1.82 -2.352,1.88 -0.93,0.26"
   id="path390" />
<path
   fill="none"
   stroke="#000000"
   stroke-width="4"
   stroke-linecap="round"
   stroke-linejoin="round"
   d="m 42.621997,420.88499 -0.029,6.45 -0.391,1.89 0.12,3.51"
   id="path394" />
<path
   fill="none"
   stroke="#000000"
   stroke-width="4"
   stroke-linecap="round"
   stroke-linejoin="round"
   d="m 43.649997,415.14499 -0.097,0.01"
   id="path398" />
<path
   fill="none"
   stroke="#000000"
   stroke-width="4"
   stroke-linecap="round"
   stroke-linejoin="round"
   d="m 52.737997,415.57499 -0.014,6.83 -0.359,1.57 0.054,7.7 3.247,-6.27 2.972,-4.7 0.998,-2.28 1.594,-1.48 0.486,0.06 1.018,4.98 -0.161,7"
   id="path402" />
<path
   fill="none"
   stroke="#000000"
   stroke-width="4"
   stroke-linecap="round"
   stroke-linejoin="round"
   d="m 104.1,414.17499 -6.760003,3.52 -2.75,2.69 -1.526,2.5 0.107,1.7 1.303,2.54 1.594,1.38 1.337,0.6 2.279,-0.23 1.307003,-0.51 0.961,-0.57 1.746,-2 1.613,-8.89 1.879,-13.8 0.875,-3.67 0.877,-1.47 -1.33,11.16 -0.215,4.15 0.09,13.27 0.19,2.08 0.707,1.91 0.722,0.77 0.995,0.01"
   id="path406" />
<path
   fill="none"
   stroke="#000000"
   stroke-width="4"
   stroke-linecap="round"
   stroke-linejoin="round"
   d="m 122.303,420.21499 h 2.745 l 4.287,-1.82 1.187,-2.44 -1.247,-1.76 -2.101,-0.85 -0.573,0.07 -1.507,0.99 -1.641,1.77 -1.756,2.66 -0.204,1 0.277,3.51 1.248,4.11 2.897,2.25 1.987,-0.27 2.764,-1.08 3.47,-2.38"
   id="path410" />
<path
   fill="none"
   stroke="#000000"
   stroke-width="4"
   stroke-linecap="round"
   stroke-linejoin="round"
   d="m 138.26,415.98499 -0.064,2.27 -3.021,21.87 0.159,2.94 -0.342,0.93 0.036,1.9 0.9,-3.08 0.97,-8.72 1.313,-5.61 0.991,-3.19 1.952,-4.51 3.432,-6.11 2.723,-3.17 1.68,0.63 1.081,4.5 -0.107,2.57 -1.221,5.21 -2.161,4.05 -2.442,1.93 -1.591,-0.25 -1.225,-1.37 0.14,-1.93 0.714,-1.71"
   id="path414" />
<path
   fill="none"
   stroke="#000000"
   stroke-width="4"
   stroke-linecap="round"
   stroke-linejoin="round"
   d="m 164.496,398.09499 -1.913,20.25 0.107,11.44 0.386,0.41 -0.037,0.76"
   id="path418" />
<path
   fill="none"
   stroke="#000000"
   stroke-width="4"
   stroke-linecap="round"
   stroke-linejoin="round"
   d="m 157.974,419.35499 9.174,-4.05 5.209,-3.65 3.064,-4.24 1.471,-4.65 -0.135,-4.19 -0.015,2.04 -0.887,4.71 -0.971,9.7 0.129,17.44 1.086,0.94 2.6,-2.62 3.623,-4.69 2.604,-2.65 4.361,-1.97 1.01,0.89 0.744,3.42 -1.126,5.14 0.201,2.57 0.373,0.43 0.341,-0.57"
   id="path422" />
<path
   fill="none"
   stroke="#000000"
   stroke-width="4"
   stroke-linecap="round"
   stroke-linejoin="round"
   d="m -94.154003,404.47499 0.324,-0.3 2.517,0.93 3.919,-0.24 8.03,-1.68 3.22,-1.12 0.845,0.13 -0.647,2.29 -2.172,4.71 -5.018,9.67 -0.923,3.25 -1.073,2.07 -0.853,3.45 0.224,0.73"
   id="path426" />
<path
   fill="none"
   stroke="#000000"
   stroke-width="4"
   stroke-linecap="round"
   stroke-linejoin="round"
   d="m -186.3633,462.41499 1.2085,-3 2.751,-4.19 4.0178,-3.36 1.326,0.32 0.474,3.59 -0.833,5.14 -1.338,5.24 -1.849,5.05 -3.8349,6.95 -1.1728,2.37 -0.7336,2.41 -0.9537,1.64 0.8572,1.46 1.1751,0.9 1.0048,0.23 4.4269,-1.15 5.277,-2.57 2.491,-2.08"
   id="path430" />
<path
   fill="none"
   stroke="#000000"
   stroke-width="4"
   stroke-linecap="round"
   stroke-linejoin="round"
   d="m -165.146,457.38499 4.586,-1.41 0.819,0.09 1.159,0.82 0.538,2.08 -0.662,2.77 -1.661,4.46 -3.74,7.66 -2.312,6.87 0.249,1.33 1.175,1.62 0.68,0.24 2.193,-0.63 2.556,-2.61 2.873,-4.59 0.099,-1 -0.502,-2.88 -0.905,-1.61 -1.938,-2.18 -3.57,-3.41 -2.288,-1.18 -3.556,-3.02 1.06,-2.27 2.998,-2.83 5.593,-2.18"
   id="path434" />
<path
   fill="none"
   stroke="#000000"
   stroke-width="4"
   stroke-linecap="round"
   stroke-linejoin="round"
   d="m -143.379,467.69499 8.558,-1.98"
   id="path438" />
<path
   fill="none"
   stroke="#000000"
   stroke-width="4"
   stroke-linecap="round"
   stroke-linejoin="round"
   d="m -116.953,462.93499 1.962,-2.59 2.641,-2.22 2.229,-1.02 2.35,-0.61 0.982,0.4 0.496,1.07 0.572,3.22 -0.069,2.19 -0.616,3.14 -2.911,10.01 -2.303,4.01 -0.994,2.89 -1.552,2.31 0.706,1.6 1.549,1 8.543,-1.92 2.371,-1.01"
   id="path442" />
<path
   fill="none"
   stroke="#000000"
   stroke-width="4"
   stroke-linecap="round"
   stroke-linejoin="round"
   d="m -82.346003,458.24499 -2.307,-1.31 -1.654,-0.32 -2.038,-0.35 -1.215,0.72 -1.578,1.64 -1.749,2.6 -0.327,1.24 0.234,2.84 0.45,1.89 0.792,1.27 1.324,1.16 2.359,-0.17 1.257,-0.57 1.272,-0.98 2.444,-4.63 0.568,-2.43 0.592,-0.67 0.012,6.09 1.082,6.44 0.019,2.82 1.107,5.04 -0.089,0.97 0.628,1.19 0.19,1.66"
   id="path446" />
<path
   fill="none"
   stroke="#000000"
   stroke-width="4"
   stroke-linecap="round"
   stroke-linejoin="round"
   d="m -63.777003,462.98499 0.156,-0.1"
   id="path450" />
<path
   fill="none"
   stroke="#000000"
   stroke-width="4"
   stroke-linecap="round"
   stroke-linejoin="round"
   d="m -61.950003,472.61499 0.106,-0.03"
   id="path454" />
<path
   fill="none"
   stroke="#000000"
   stroke-width="4"
   stroke-linecap="round"
   stroke-linejoin="round"
   d="m -23.357003,462.21499 0.345,6.06 -0.071,10.06 -1.388,13.83 -0.61,2.99 -0.139,3.65 -0.031,-4.29 1.469,-14.31 2.38,-11.68 3.019,-7.05 1.746,-2.72 0.396,-0.32 1.557,-0.15 1.602,1.58 0.835,3.76 -0.7,4.4 -3.578,7.63 -2.477,2.36 1.7,-1.9"
   id="path458" />
<path
   fill="none"
   stroke="#000000"
   stroke-width="4"
   stroke-linecap="round"
   stroke-linejoin="round"
   d="m 0.35399673,465.56499 -0.855,2.19 -0.58200003,3.05 0.22300003,2.54 0.88,1.33"
   id="path462" />
<path
   fill="none"
   stroke="#000000"
   stroke-width="4"
   stroke-linecap="round"
   stroke-linejoin="round"
   d="m 1.4779967,457.22499 0.303,0.74"
   id="path466" />
<path
   fill="none"
   stroke="#000000"
   stroke-width="4"
   stroke-linecap="round"
   stroke-linejoin="round"
   d="m 14.547997,466.71499 0.068,1.27 -0.748,3.42 0.194,2.44 -0.346,0.29 0.022,1.5 2.656,-4.85 3.456,-4.7 1.475,-1.07 1.374,-0.51 1.723,0.64 1.599,2.43 1.479,6.27 -0.139,4.77"
   id="path470" />
<path
   fill="none"
   stroke="#000000"
   stroke-width="4"
   stroke-linecap="round"
   stroke-linejoin="round"
   d="m 66.686997,453.01499 -0.076,2.6 -1.162,8.1 -0.124,6.57 -0.336,1.92 0.039,8.33 -0.382,0.87"
   id="path474" />
<path
   fill="none"
   stroke="#000000"
   stroke-width="4"
   stroke-linecap="round"
   stroke-linejoin="round"
   d="m 57.696997,469.90499 9.708,-2.83 2.779,-1.52 2.408,-0.65"
   id="path478" />
<path
   fill="none"
   stroke="#000000"
   stroke-width="4"
   stroke-linecap="round"
   stroke-linejoin="round"
   d="m 83.311997,464.39499 3.866,5.8 0.277,1.19 1.453,2.66"
   id="path482" />
<path
   fill="none"
   stroke="#000000"
   stroke-width="4"
   stroke-linecap="round"
   stroke-linejoin="round"
   d="m 85.419997,495.14499 6.98,-20.12 3.345,-7.63 1.247,-4.37"
   id="path486" />
<path
   fill="none"
   stroke="#000000"
   stroke-width="4"
   stroke-linecap="round"
   stroke-linejoin="round"
   d="m 105.515,466.79499 -4.09,30.14 0.119,4.39 1.327,-12.19 1.297,-6.14 2.354,-7.7 1.85,-4.47 2.894,-5.45 2.004,-2.99 1.877,-0.64 1.479,5.44 -0.132,2.31 -0.799,3.02 -2.709,4.6 -2.015,1.76 -0.579,0.24 -0.838,-0.19 -0.67,-0.61"
   id="path490" />
<path
   fill="none"
   stroke="#000000"
   stroke-width="4"
   stroke-linecap="round"
   stroke-linejoin="round"
   d="m 128.2,468.65499 3.188,1.26 2.853,-1.48 1.22,-3.91 -0.127,-1.22 -1.239,-2.23 -2.983,-1.09 -2.029,1.83 -1.732,3.02 -0.869,2.46 -0.211,1.69 0.278,2.64 1.252,5.73 0.731,1.92 3.191,2 0.883,0.25 3.715,-1.15"
   id="path494" />
<path
   fill="none"
   stroke="#000000"
   stroke-width="4"
   stroke-linecap="round"
   stroke-linejoin="round"
   d="m -26.257003,542.54499 2.686,0.76 6.256,-0.17 4.501,-1.83 -0.905,-0.77 -1.132,-0.29 -2.118,-1.6 -2.094,-0.87 -2.309,-0.39 -2.26,-1.03 -1.232,-0.65 -0.714,-1.14 0.207,-1.44 0.787,-1.69 1.271,-1.64 3.594,-3.4 3.285,-1.3"
   id="path498" />
<path
   fill="none"
   stroke="#000000"
   stroke-width="4"
   stroke-linecap="round"
   stroke-linejoin="round"
   d="m -3.7740033,528.07499 -0.392,1.24 10e-4,2.02 1.957,8.37 1.33800003,1.77 2.78499997,1.28 1.267,-0.19 1.706,-0.77 1.744,-1.23 1.742,-1.82 0.998,-3.11 0.9950003,-5.55 -0.153,-2.47"
   id="path502" />
<path
   fill="none"
   stroke="#000000"
   stroke-width="4"
   stroke-linecap="round"
   stroke-linejoin="round"
   d="m 14.344997,543.18499 2.229,0.52 4.684,-0.16 4.257,-1.67 0.282,-1.57 -2.955,-4.05 -1.413,-1.25 -1.448,-2.29 -0.426,-0.97 0.184,-1.66 1.262,-2.43 2.75,-1.24 2.766,-0.7 1.714,1.19"
   id="path506" />
<path
   fill="none"
   stroke="#000000"
   stroke-width="4"
   stroke-linecap="round"
   stroke-linejoin="round"
   d="m 37.326997,530.51499 -0.651,8.82 -2.952,20.84 1.337,-9.34 2.176,-10.51 1.413,-4.63 2.304,-5.81 1.279,-1.95 0.852,0.11 0.616,0.96 1.049,3.9 -0.188,2.76 -1.192,2.84 -2.967,3.03 0.211,0.09"
   id="path510" />
<path
   fill="none"
   stroke="#000000"
   stroke-width="4"
   stroke-linecap="round"
   stroke-linejoin="round"
   d="m 88.702997,523.69499 -3.508,0.73 -3.738,3.31 -1.845,3.21 -0.251,1.23 0.19,1.51 0.937,1.96 3.023,1.47 5.714,-1.34 2.519,-1.6"
   id="path514" />
<path
   fill="none"
   stroke="#000000"
   stroke-width="4"
   stroke-linecap="round"
   stroke-linejoin="round"
   d="m 108.281,504.80499 -0.657,3.04 -1.567,14.27 0.259,17.26"
   id="path518" />
<path
   fill="none"
   stroke="#000000"
   stroke-width="4"
   stroke-linecap="round"
   stroke-linejoin="round"
   d="m 98.862997,523.56499 6.956003,-1.66 4.763,-1.49 2.794,-1.5 1.151,-1.12"
   id="path522" />
<path
   fill="none"
   stroke="#000000"
   stroke-width="4"
   stroke-linecap="round"
   stroke-linejoin="round"
   d="m 59.736997,530.80499 -0.136,0.35 0.09,-0.21 1.023,0.35 3.482,0.05 4.189,-1.85 0.628,-2.3 -0.995,-0.82 -3.256,-1.53 -2.127,1.09 -1.639,2.32 -2.44,6.96 0.188,4.39 1.157,3.33 1.635,0.81 0.962,-0.15 3.638,-2.19 1.179,-1.06"
   id="path526" />
<path
   fill="none"
   stroke="#000000"
   stroke-width="4"
   stroke-linecap="round"
   stroke-linejoin="round"
   d="m -123.509,572.44499 5.219,-2.46 5.716,-1.32 2.325,1.33 0.741,3.18 -0.64,1.78 -3.036,4.91 -0.658,1.67 1.474,-1.64 1.851,-1.07 2.092,-0.41 1.81,-0.76 1.144,0.87 0.941,2.46 -1.199,4.73 -1.553,3.81 -0.571,1.01 -3.806,4.04 -2.519,1.08 -2.715,-0.19 -1.195,-1.08 -0.201,-1.24"
   id="path530" />
<path
   fill="none"
   stroke="#000000"
   stroke-width="4"
   stroke-linecap="round"
   stroke-linejoin="round"
   d="m -92.139003,567.33499 -0.4,10.14 -1.107,8.85 0.137,2.69 0.434,1.53 0.003,4.16 0.393,0.42"
   id="path534" />
<path
   fill="none"
   stroke="#000000"
   stroke-width="4"
   stroke-linecap="round"
   stroke-linejoin="round"
   d="m -69.401003,573.74499 -0.31,-0.07"
   id="path538" />
<path
   fill="none"
   stroke="#000000"
   stroke-width="4"
   stroke-linecap="round"
   stroke-linejoin="round"
   d="m -68.032003,587.25499 0.074,-0.05"
   id="path542" />
<path
   fill="none"
   stroke="#000000"
   stroke-width="3.5"
   stroke-linecap="round"
   stroke-linejoin="round"
   d="m -96.946003,283.31499 -2.802,1.44 -2.696997,3.01 -3.954,7.59 -1.237,3.62 -1.323,7.23 -0.094,3.91 0.598,2.54 0.917,1.95 1.281,1.63 1.105,0.92 3.77,1.11 4.235997,-0.57 2.78,-1.07 4.503,-3.09 1.662,-1.63 4.64,-6.3 0.953,-2.6 0.129,-4.41 -0.381,-1.77 -1.241,-3.22 -2.022,-2.89 -3.361,-2.93 -5.557,-2.92"
   id="path570" />
<path
   fill="none"
   stroke="#000000"
   stroke-width="3.5"
   stroke-linecap="round"
   stroke-linejoin="round"
   d="m -65.948003,292.21499 -0.067,0.07"
   id="path574" />
<path
   fill="none"
   stroke="#000000"
   stroke-width="3.5"
   stroke-linecap="round"
   stroke-linejoin="round"
   d="m -65.114003,306.15499 0.061,-0.03"
   id="path578" />
<path
   fill="none"
   stroke="#000000"
   stroke-width="3.5"
   stroke-linecap="round"
   stroke-linejoin="round"
   d="m -32.953003,293.74499 4.102,7.78 1.622,2.2 2.563,5.29 2.265,2.69 0.574,1.28 0.855,-3.44 1.443,-9.39 1.413,-4.96 0.976,-5.06 0.664,-0.95"
   id="path582" />
<path
   fill="none"
   stroke="#000000"
   stroke-width="3.5"
   stroke-linecap="round"
   stroke-linejoin="round"
   d="m 4.4559967,294.91499 -0.027,-2.04 -0.216,-0.31 -1.133,0.14 -3.16199997,1.64 -2.12600003,1.62 -1.757,2.35 -1.416,3.03 -0.204,1 0.219,2.53 0.877,1.93 2.857,1.96 1.55400003,-0.26 1.12399997,-0.54 1.938,-1.7 1.564,-2.21 1.13,-3.11 0.382,-2.01 1.027,-1.83 -0.444,2.75 0.14,5.33 0.489,1.8 -0.11,2.02 1.051,2.4 0.014,0.68 0.45,0.83 0.317,0.06"
   id="path586" />
<path
   fill="none"
   stroke="#000000"
   stroke-width="3.5"
   stroke-linecap="round"
   stroke-linejoin="round"
   d="m 21.465997,283.29499 -0.06,22 0.322,2.76 0.754,2.41 -0.217,1.37"
   id="path590" />
<path
   fill="none"
   stroke="#000000"
   stroke-width="3.5"
   stroke-linecap="round"
   stroke-linejoin="round"
   d="m 32.082997,302.06499 -0.05,5.7 0.349,0.72"
   id="path594" />
<path
   fill="none"
   stroke="#000000"
   stroke-width="3.5"
   stroke-linecap="round"
   stroke-linejoin="round"
   d="m 34.036997,294.27499 -0.098,0.02"
   id="path598" />
<path
   fill="none"
   stroke="#000000"
   stroke-width="3.5"
   stroke-linecap="round"
   stroke-linejoin="round"
   d="m 49.049997,293.40499 -4.553,3.24 -1.271,2.06 -2.225,5.31 -0.285,1.39 0.632,3.52 0.691,1.2 1.051,0.61 1.605,-0.23 1.794,-1.05 0.427,-0.28 1.932,-3.1 0.957,-2.66 1.015,-7.53 -0.144,-6.1 -0.314,-1.77 0.088,-7.75 1.214,6.94 2.162,19.95 1.977,4.11 1.249,0.91 0.533,-0.1"
   id="path602" />
<path
   fill="none"
   stroke="#000000"
   stroke-width="3.5"
   stroke-linecap="round"
   stroke-linejoin="round"
   d="m 88.067997,283.26499 1.123,3.1 1.132,4.61 0.425,5.5 1.072,6.7 -0.169,3.12 0.362,0.73 2.455,-3.02 3.427,-6.45 2.111003,-2.32 2.053,-1.16 1.141,0.47 0.758,1.07 0.215,0.87 0.854,4.67 -0.115,6.77"
   id="path606" />
<path
   fill="none"
   stroke="#000000"
   stroke-width="3.5"
   stroke-linecap="round"
   stroke-linejoin="round"
   d="m 115.416,298.32499 h 2.399 l 2.133,-0.64 3.99,-2.16 1.533,-1.47 0.517,-1.28 -0.253,-0.63 -3.765,-0.97 -4.22,2.06 -1.725,1.74 -1.424,3.62 0.102,4.06 1.249,3.66 2.099,1.67 1.294,0.47 3.951,-1"
   id="path610" />
<path
   fill="none"
   stroke="#000000"
   stroke-width="3.5"
   stroke-linecap="round"
   stroke-linejoin="round"
   d="m 141.651,292.63499 -1.756,1.18 -2.812,1.28 -1.782,1.97 -1.69,3.43 -0.21,1.01 0.224,1.98 0.781,2.02 1.348,1.58 0.989,-0.17 0.957,-0.59 2.225,-2.28 1.801,-4.25 0.476,-2.93 0.954,-2.26 -0.06,-0.4 -0.046,5.55 1.425,5.21 0.251,0.51 1.449,1.09 1.368,-0.06"
   id="path614" />
<path
   fill="none"
   stroke="#000000"
   stroke-width="3.5"
   stroke-linecap="round"
   stroke-linejoin="round"
   d="m 161.887,293.76499 -4.081,2.11 -1.947,1.58 -2.748,2.85 -0.807,2.03 -1.05,1.39 -0.219,1.05 0.225,2.08 0.877,1.53 0.838,0.38 0.869,-0.13 1.013,-0.67 1.521,-1.94 1.31,-3.22 2.322,-7.79 1.419,-9.91 0.788,-2.6 -0.138,-1.04 -0.787,2.64 -0.867,6.12 0.117,16.3 1.321,2.41 0.933,0.07 0.371,-0.35"
   id="path618" />
<path
   fill="none"
   stroke="#000000"
   stroke-width="3.5"
   stroke-linecap="round"
   stroke-linejoin="round"
   d="m 172.242,300.58499 0.939,0.32 2.567,-0.04 3.937,-1.19 0.727,-0.55 1.337,-2.7 0.114,-1.27 -2.047,-2.1 -2.416,-1 -0.904,0.06 -1.658,1.88 -1.59,2.99 -0.517,1.32 -0.268,2.76 0.628,6.18 0.563,1.88 2.214,1.71 1.089,-0.17 3.491,-1.64 3.188,-2.66"
   id="path622" />
<path
   fill="none"
   stroke="#000000"
   stroke-width="3.5"
   stroke-linecap="round"
   stroke-linejoin="round"
   d="m 191.961,295.42499 0.28,1.94 -0.069,11.08 0.945,-3.14 1.256,-7.48 1.465,-3.26 2.47,-2.53 1.123,-0.59 5.564,-1.55"
   id="path626" />
<path
   fill="none"
   stroke="#000000"
   stroke-width="4"
   stroke-linecap="round"
   stroke-linejoin="round"
   d="m -125.257,518.64499 6.843,-4.79 1.125,-0.45 1.726,-0.2 1.259,-0.55 2.058,0.98 0.78,0.95 0.986,4.06 -0.089,1.86 -1.098,4.2 -0.886,1.89 -1.031,0.82 -0.345,0.87 0.174,0.77 1.956,-1.23 1.695,0.29 2.297,0.86 1.563,1.52 0.641,3.98 -2.026,4.93 -0.939,1.45 -4.243,4.62 -2.393,1.56 -4.468,2.09 -1.193,1.17 -0.606,-0.02 0.163,-0.57 1.324,-2.09 1.275,-1.29"
   id="path630" />
<path
   fill="none"
   stroke="#000000"
   stroke-width="4"
   stroke-linecap="round"
   stroke-linejoin="round"
   d="m -90.825003,518.22499 -1.96,2.21 -2.579,4.2 -3.286,9.95 0.319,4.14 1.243,3.4 1.772,1.2 1.465,-0.18 2.674,-1.29 4.061,-3.66 2.314,-3.53 1.613,-4.23 0.627,-4.8 -0.833,-3.42 -2.168,-3.59 -3.457,-1.02 -0.86,0.04 -1.409,0.92"
   id="path634" />
<path
   fill="none"
   stroke="#000000"
   stroke-width="4"
   stroke-linecap="round"
   stroke-linejoin="round"
   d="m -66.233003,523.43499 -1.671,2.93"
   id="path638" />
<path
   fill="none"
   stroke="#000000"
   stroke-width="4"
   stroke-linecap="round"
   stroke-linejoin="round"
   d="m -65.706003,536.53499 0.084,-0.02"
   id="path642" />
<path
   fill="none"
   stroke="#c7c7c6"
   stroke-width="30"
   stroke-linecap="butt"
   stroke-linejoin="bevel"
   opacity="0.500008"
   d="m -121.213,577.57499 0.415,-0.11"
   id="path666" />
<path
   fill="none"
   stroke="#000000"
   stroke-width="4"
   stroke-linecap="round"
   stroke-linejoin="round"
   d="m -232.215,417.24499 h 19"
   id="path674"
   style="stroke:#f19dff;stroke-opacity:0.501961" />
<path
   fill="none"
   stroke="#000000"
   stroke-width="4"
   stroke-linecap="round"
   stroke-linejoin="round"
   d="m -204.848,366.24499 h 17"
   id="path678"
   style="stroke:#ffc38b;stroke-opacity:0.501961" />
<path
   fill="none"
   stroke="#000000"
   stroke-width="4"
   stroke-linecap="round"
   stroke-linejoin="round"
   d="m -235.848,418.24499 v -230"
   id="path682"
   style="stroke:#f19dff;stroke-opacity:0.501961" />
<path
   fill="none"
   stroke="#000000"
   stroke-width="4"
   stroke-linecap="round"
   stroke-linejoin="round"
   d="m -236.848,190.24499 h 59"
   id="path686"
   style="stroke:#f19dff;stroke-opacity:0.501961" />
<path
   fill="none"
   stroke="#000000"
   stroke-width="4"
   stroke-linecap="round"
   stroke-linejoin="round"
   d="m -177.848,168.24499 v 20"
   id="path690"
   style="stroke:#f19dff;stroke-opacity:0.501961" />
<path
   fill="none"
   stroke="#000000"
   stroke-width="4"
   stroke-linecap="round"
   stroke-linejoin="round"
   d="m -209.848,211.24499 v 155"
   id="path694"
   style="stroke:#ffc38b;stroke-opacity:0.501961" />
<path
   fill="none"
   stroke="#000000"
   stroke-width="4"
   stroke-linecap="round"
   stroke-linejoin="round"
   d="m -210.848,210.24499 219.9999967,-7"
   id="path698"
   style="stroke:#ffc38b;stroke-opacity:0.501961" />
<path
   fill="none"
   stroke="#000000"
   stroke-width="4"
   stroke-linecap="round"
   stroke-linejoin="round"
   d="m 11.151997,170.24499 v 31"
   id="path702"
   style="stroke:#ffc38b;stroke-opacity:0.501961" />
<path
   fill="none"
   stroke="#000000"
   stroke-width="4"
   stroke-linecap="round"
   stroke-linejoin="round"
   d="m -142.848,309.24499 h 14"
   id="path706"
   style="stroke:#bde9fd;stroke-opacity:0.501961" />
<path
   fill="none"
   stroke="#000000"
   stroke-width="4"
   stroke-linecap="round"
   stroke-linejoin="round"
   d="m -145.848,310.24499 v -71"
   id="path710"
   style="stroke:#bde9fd;stroke-opacity:0.501961" />
<path
   fill="none"
   stroke="#000000"
   stroke-width="4"
   stroke-linecap="round"
   stroke-linejoin="round"
   d="m -143.848,237.24499 h 283"
   id="path714"
   style="stroke:#bde9fd;stroke-opacity:0.501961" />
<path
   fill="none"
   stroke="#000000"
   stroke-width="4"
   stroke-linecap="round"
   stroke-linejoin="round"
   d="m 141.152,168.24499 v 69"
   id="path718"
   style="stroke:#bde9fd;stroke-opacity:0.501961" />
<metadata
   id="metadata4274">
  <rdf:RDF>
    <cc:Work
       rdf:about="">
      <dc:title>illustrations</dc:title>
    </cc:Work>
  </rdf:RDF>
</metadata>
<g
   id="g906"
   transform="translate(-282.3769,-880.72782)">
  <path
     fill="none"
     stroke="#000000"
     stroke-width="4"
     stroke-linecap="round"
     stroke-linejoin="round"
     d="m 252.755,1453.17 0.622,-0.02"
     id="path904" />
</g>
<g
   id="g910"
   transform="translate(-282.3769,-880.72782)">
  <path
     fill="none"
     stroke="#000000"
     stroke-width="4"
     stroke-linecap="round"
     stroke-linejoin="round"
     d="m 252.813,1455.07 0.234,16.34 3.863,-11.91 4.071,-5.82 1.678,-1.42 1.052,-1.56 1.624,-0.43 0.823,0.63 1.157,2.22 1.474,8.53 -0.147,10.15 1.673,-2.06 3.417,-6.31 1.225,-1.69 7.135,-8.24 1.153,-0.82 1.987,-0.39 0.661,1.11 1.148,4.82 -0.163,3.87 -1.301,5.82 0.183,4.03"
     id="path908" />
</g>
<g
   id="g914"
   transform="translate(-282.3769,-880.72782)">
  <path
     fill="none"
     stroke="#000000"
     stroke-width="4"
     stroke-linecap="round"
     stroke-linejoin="round"
     d="m 311.431,1456.53 -3.805,-0.15 -1.683,0.58 -3.522,2.82 -2.324,4.27 -0.303,1.67 0.174,3.79 1.306,2.22 0.585,0.31 3.912,-1.19 4.719,-3.96 1.756,-2.61 0.683,-2.53 0.855,-1.12 1.274,3.88 0.888,5.24 1.669,3.22 0.304,0.24 0.734,-0.45"
     id="path912" />
</g>
<g
   id="g918"
   transform="translate(-282.3769,-880.72782)">
  <path
     fill="none"
     stroke="#000000"
     stroke-width="4"
     stroke-linecap="round"
     stroke-linejoin="round"
     d="m 327.033,1465.84 1.628,7.88 -0.198,2.42 0.032,-2.86 0.373,-1.58 0.578,-7.22 1.088,-4.4 1.728,-2.62 1.883,-0.68 1.887,0.61 2.174,1.62 1.24,2.03 2.374,2.07"
     id="path916" />
</g>
<g
   id="g922"
   transform="translate(-282.3769,-880.72782)">
  <path
     fill="none"
     stroke="#000000"
     stroke-width="4"
     stroke-linecap="round"
     stroke-linejoin="round"
     d="m 353.043,1443.99 -0.038,30.22"
     id="path920" />
</g>
<g
   id="g926"
   transform="translate(-282.3769,-880.72782)">
  <path
     fill="none"
     stroke="#000000"
     stroke-width="4"
     stroke-linecap="round"
     stroke-linejoin="round"
     d="m 357.529,1462.03 1.451,-3.03 5.714,-8.85 1.763,-3.26 4.628,-6.63"
     id="path924" />
</g>
<g
   id="g930"
   transform="translate(-282.3769,-880.72782)">
  <path
     fill="none"
     stroke="#000000"
     stroke-width="4"
     stroke-linecap="round"
     stroke-linejoin="round"
     d="m 359.59,1463.04 3.144,2.97 3.787,2.97 8.291,8.02 3.068,4.86"
     id="path928" />
</g>
<g
   id="g934"
   transform="translate(-284.2321,-864.65742)">
  <path
     fill="none"
     stroke="#000000"
     stroke-width="4"
     stroke-linecap="round"
     stroke-linejoin="round"
     d="m -418.919,1103.26 0.479,-0.23 -0.186,6.03 1.612,7 1.321,1.86 2.272,2.04 2.35,-0.01 1.921,-0.97 2.252,-3.26 1.302,-5.45 -0.161,-4.47 -1.208,-3.9"
     id="path932" />
</g>
<g
   id="g938"
   transform="translate(-284.2321,-864.65742)">
  <path
     fill="none"
     stroke="#000000"
     stroke-width="4"
     stroke-linecap="round"
     stroke-linejoin="round"
     d="m -396.686,1104.88 2.263,15.7 -0.187,6.68 -1.006,4.21 0.096,1.26 -0.44,1.43 0.115,1.66"
     id="path936" />
</g>
<g
   id="g942"
   transform="translate(-284.2321,-864.65742)">
  <path
     fill="none"
     stroke="#000000"
     stroke-width="4"
     stroke-linecap="round"
     stroke-linejoin="round"
     d="m -396.689,1106.19 4.457,-3.2 5.258,-1.24 1.335,0.83 0.572,1.4 0.304,0.92 -0.19,0.47 -4.016,7.25 -4.159,4.26 -2.698,1.38 -0.852,1.12 -0.656,0.11 2.486,-1.1 2.103,-0.49"
     id="path940" />
</g>
<g
   id="g946"
   transform="translate(-284.2321,-864.65742)">
  <path
     fill="none"
     stroke="#000000"
     stroke-width="4"
     stroke-linecap="round"
     stroke-linejoin="round"
     d="m -380.307,1102.67 0.682,4.5 -0.158,27.04 -0.371,0.87 0.048,0.47 0.58,-1.36 0.446,-1.69"
     id="path944" />
</g>
<g
   id="g950"
   transform="translate(-284.2321,-864.65742)">
  <path
     fill="none"
     stroke="#000000"
     stroke-width="4"
     stroke-linecap="round"
     stroke-linejoin="round"
     d="m -376.836,1106.05 2.658,-1.51 3.952,-0.67 1.551,0.12 1.643,0.86 0.637,2.24 -2.027,3.8 -4.639,4.85 -4.373,3.01 3.503,-3.61 1.214,-0.63"
     id="path948" />
</g>
<g
   id="g954"
   transform="translate(-284.2321,-864.65742)">
  <path
     fill="none"
     stroke="#000000"
     stroke-width="4"
     stroke-linecap="round"
     stroke-linejoin="round"
     d="m -360.546,1109.17 2.579,-0.19 3.97,-1.1 1.707,-0.96 3.047,-2.67 0.328,-1.88 -2.596,-0.81 -0.901,0.07 -1.332,0.66 -2.465,1.99 -1.961,2.92 -0.607,1.86 0.335,5.15 1.004,1.82 0.651,0.53 0.67,0.22 0.871,-0.18 3.584,-1.4 1.82,-1.22"
     id="path952" />
</g>
<g
   id="g958"
   transform="translate(-284.2321,-864.65742)">
  <path
     fill="none"
     stroke="#000000"
     stroke-width="4"
     stroke-linecap="round"
     stroke-linejoin="round"
     d="m -339.261,1108.16 1.101,5.61 0.707,1.65 -0.029,1.07 0.008,-5.28 1.192,-6.03 1.597,-3.1 1.507,-1.78 1.762,-0.53 1.765,0.01 2.58,1.51"
     id="path956" />
</g>
<g
   id="g962"
   transform="translate(-284.2321,-864.65742)">
  <path
     fill="none"
     stroke="#000000"
     stroke-width="4"
     stroke-linecap="round"
     stroke-linejoin="round"
     d="m -295.534,1094.23 -2.618,12.67 0.12,2.18 0.361,0.56 1.045,0.48 1.807,-0.15 1.73,-0.71 7.615,-1.78 3.948,-1.55 -0.088,-0.87 0.608,-0.96 -0.106,-8.96 0.205,-0.38 0.651,3.99 0.157,17.13 0.577,2.31 0.308,3.72"
     id="path960" />
</g>
<g
   id="g966"
   transform="translate(-284.2321,-864.65742)">
  <path
     fill="none"
     stroke="#000000"
     stroke-width="4"
     stroke-linecap="round"
     stroke-linejoin="round"
     d="m -245.4,1094.79 1.285,9.23 -0.195,17.6"
     id="path964" />
</g>
<g
   id="g970"
   transform="translate(-284.2321,-864.65742)">
  <path
     fill="none"
     stroke="#000000"
     stroke-width="4"
     stroke-linecap="round"
     stroke-linejoin="round"
     d="m -243.904,1109.74 3.851,-0.72 4.988,1.32 1.751,0.91 2.364,2.01 0.622,1.81 -0.455,1.85 -2.563,3.2 -4.73,3.81 -5.624,2.7 -0.249,-0.3 1.767,-1.07 1.491,-0.41"
     id="path968" />
</g>
<g
   id="g974"
   transform="translate(-284.2321,-864.65742)">
  <path
     fill="none"
     stroke="#000000"
     stroke-width="4"
     stroke-linecap="round"
     stroke-linejoin="round"
     d="m -226.722,1111.27 1.455,3.3 3.359,4.9 2.686,2.13"
     id="path972" />
</g>
<g
   id="g978"
   transform="translate(-284.2321,-864.65742)">
  <path
     fill="none"
     stroke="#000000"
     stroke-width="4"
     stroke-linecap="round"
     stroke-linejoin="round"
     d="m -225.074,1141.85 1.396,-2.07 6.891,-13.63 4.073,-9.8 0.768,-2.99"
     id="path976" />
</g>
<g
   id="g982"
   transform="translate(-284.2321,-864.65742)">
  <path
     fill="none"
     stroke="#000000"
     stroke-width="4"
     stroke-linecap="round"
     stroke-linejoin="round"
     d="m -197.152,1095.9 0.506,3.92 -0.13,24.65 -0.691,1.72 0.131,0.33"
     id="path980" />
</g>
<g
   id="g986"
   transform="translate(-284.2321,-864.65742)">
  <path
     fill="none"
     stroke="#000000"
     stroke-width="4"
     stroke-linecap="round"
     stroke-linejoin="round"
     d="m -200.734,1111.43 1,0.35 5.141,-0.1 7.359,-2.52"
     id="path984" />
</g>
<g
   id="g990"
   transform="translate(-284.2321,-864.65742)">
  <path
     fill="none"
     stroke="#000000"
     stroke-width="4"
     stroke-linecap="round"
     stroke-linejoin="round"
     d="m -185.426,1113.95 1.325,0.39 5.436,-0.31 5.184,-1.77 0.807,-0.61 1.091,-2.22 0.039,-0.67 -0.602,-0.57 -3.123,-1.28 -1.406,0.13 -2.134,0.92 -2.406,2.34 -0.902,1.38 0.181,2.51 1.139,3.99 2.735,4.7 3.629,1.83 2.136,-0.27 2.605,-0.96"
     id="path988" />
</g>
<g
   id="g994"
   transform="translate(-284.2321,-864.65742)">
  <path
     fill="none"
     stroke="#000000"
     stroke-width="4"
     stroke-linecap="round"
     stroke-linejoin="round"
     d="m -160.453,1123.19 2.714,1.33 1.28,0.25 2.005,-0.32 3.412,-1.36 0.131,-0.62 -0.855,-2.23 -6.275,-8.38 0.312,-1.43 0.856,-1.69 1.565,-1.38 5.761,-1.86"
     id="path992" />
</g>
<g
   id="g998"
   transform="translate(-294.2321,-864.65742)">
  <path
     fill="none"
     stroke="#000000"
     stroke-width="4"
     stroke-linecap="round"
     stroke-linejoin="round"
     d="m -349.216,1148.86 -0.011,5.97 0.674,6.05 1.383,5.24 2.213,1.82 3.168,-0.98 1.724,-1.23 1.229,-2.42 1.176,-7.08 -0.152,-3.05 -1.59,-6.17"
     id="path996" />
</g>
<g
   id="g1002"
   transform="translate(-294.2321,-864.65742)">
  <path
     fill="none"
     stroke="#000000"
     stroke-width="4"
     stroke-linecap="round"
     stroke-linejoin="round"
     d="m -328.934,1152.13 -0.248,-0.03 2.572,12.63 0.179,3.5 2.038,-3.97 3.424,-8.62 2.34,-2.87 1.715,-0.73 0.405,0.42 1.043,3.39 1.605,6.24 -0.14,4.62"
     id="path1000" />
</g>
<g
   id="g1006"
   transform="translate(-294.2321,-864.65742)">
  <path
     fill="none"
     stroke="#000000"
     stroke-width="4"
     stroke-linecap="round"
     stroke-linejoin="round"
     d="m -304.262,1157.27 2.696,9.01 1.817,2.4 1.27,-0.02 1.032,-0.64 2.283,-7.61 -0.143,-7.16"
     id="path1004" />
</g>
<g
   id="g1010"
   transform="translate(-294.2321,-864.65742)">
  <path
     fill="none"
     stroke="#000000"
     stroke-width="4"
     stroke-linecap="round"
     stroke-linejoin="round"
     d="m -286.669,1167.75 4,2.07 1.127,0.16 3.122,-0.32 2.965,-1.24 0.683,-1.85 -0.069,-0.85 -1.445,-1.92 -2.981,-2.87 -0.06,-2.06 1.736,-3.35 2.425,-2.85 3.179,-1.24 0.547,0.43 0.438,1.45 0.446,0.3"
     id="path1008" />
</g>
<g
   id="g1014"
   transform="translate(-294.2321,-864.65742)">
  <path
     fill="none"
     stroke="#000000"
     stroke-width="4"
     stroke-linecap="round"
     stroke-linejoin="round"
     d="m -264.497,1163.18 1.954,0.58 2.464,-0.08 0.67,-0.59 2.14,-0.74 1.396,-0.93 1.253,-1.64 0.702,-2.33 0.614,-0.97 -1.221,-2.23 -0.97,-0.8 -1.446,-0.26 -1.133,0.85 -1.724,1.77 -2.029,3.44 -0.542,3.59 0.139,5.01 0.761,3.35 0.796,1.25 1.351,0.82 4.181,-1.21 2.249,-2.18"
     id="path1012" />
</g>
<g
   id="g1018"
   transform="translate(-294.2321,-864.65742)">
  <path
     fill="none"
     stroke="#000000"
     stroke-width="4"
     stroke-linecap="round"
     stroke-linejoin="round"
     d="m -232.242,1158.44 -2.199,0.01 -3.724,1.01 -4.947,2.93 -2.47,2.89 -0.231,0.94 0.289,1.78 1.233,2.11 1.313,1.15 0.61,0.2 2.868,-0.44 2.725,-1.77 2.902,-5.35 2.039,-12.22 -0.425,-11.19 1.6,12.69 0.03,3.28 0.826,5.46 1.144,5.35 1.593,2.47"
     id="path1016" />
</g>
<rect
   style="opacity:1;fill:#000000;stroke:none;stroke-width:0.5;stroke-opacity:1;fill-opacity:1"
   id="rect2231"
   width="458.75421"
   height="89.157181"
   x="-788.92651"
   y="69.704704" />
</svg>
